#N canvas 812 135 450 300 10;
#X obj 93 27 inlet;
#X obj 148 248 outlet;
#X obj 92 72 togedge;
#X obj 178 129 bng 15 250 50 0 empty empty empty 17 7 0 10 -262144
-1 -1;
#X obj 117 138 bng 15 250 50 0 empty empty empty 17 7 0 10 -262144
-1 -1;
#X msg 161 162 0;
#X msg 119 167 1;
#X obj 158 210 * \$1;
#X obj 245 125 > 0;
#X obj 290 188 change;
#X connect 0 0 8 0;
#X connect 2 0 4 0;
#X connect 2 1 3 0;
#X connect 3 0 5 0;
#X connect 4 0 6 0;
#X connect 5 0 7 0;
#X connect 6 0 7 0;
#X connect 7 0 1 0;
#X connect 8 0 9 0;
#X connect 9 0 7 0;
