#N canvas 640 23 640 728 10;
#X obj 27 123 ps-touch-scaler;
#X obj 27 233 ps-scale-maker;
#X obj 27 33 ps-etm-usb B4-E6-2D-EA-1C-F5;
#X obj 253 123 ps-touch-scaler;
#X obj 253 233 ps-scale-maker;
#X obj 253 363 ps-osc-out mandy;
#X obj 27 363 ps-osc-out lettuce;
#X connect 0 0 1 0;
#X connect 1 0 6 0;
#X connect 2 0 0 0;
#X connect 2 1 3 0;
#X connect 3 0 4 0;
#X connect 4 0 5 0;
