#N canvas 807 23 473 728 10;
#X obj 27 33 pst-etm-usb B4-E6-2D-EA-1C-F5;
#X obj 27 153 pst-touch-scaler;
#X obj 253 153 pst-touch-scaler;
#X obj 27 263 pst-scale-maker;
#X obj 27 393 pst-osc-out lettuce;
#X obj 231 323 pst-osc-out mandy;
#X obj 372 169 pst-touch-scaler;
#X obj 310 423 pst-osc-out mandy2;
#X connect 0 0 1 0;
#X connect 0 1 2 0;
#X connect 0 2 6 0;
#X connect 1 0 3 0;
#X connect 2 0 5 0;
#X connect 3 0 4 0;
#X connect 6 0 7 0;
