#N canvas 142 269 739 323 10;
#X obj 15 165 outlet;
#X floatatom 15 127 5 0 0 0 - - -, f 5;
#X floatatom 59 127 5 0 0 0 - - -, f 5;
#X floatatom 103 127 5 0 0 0 - - -, f 5;
#X floatatom 147 127 5 0 0 0 - - -, f 5;
#X floatatom 191 127 5 0 0 0 - - -, f 5;
#X floatatom 235 127 5 0 0 0 - - -, f 5;
#X floatatom 279 127 5 0 0 0 - - -, f 5;
#X floatatom 323 127 5 0 0 0 - - -, f 5;
#X obj 59 165 outlet;
#X obj 103 165 outlet;
#X obj 147 165 outlet;
#X obj 191 165 outlet;
#X obj 235 165 outlet;
#X obj 279 165 outlet;
#X obj 323 165 outlet;
#X text 4 127 0;
#X text 48 127 1;
#X text 92 127 2;
#X text 136 127 3;
#X text 180 127 4;
#X text 224 127 5;
#X text 268 127 6;
#X text 312 127 7;
#X obj 14 87 unpack 0 0 0 0 0 0 0 0, f 52;
#X obj 14 -48 netreceive -u -b;
#X msg 14 -75 listen 8000;
#X obj 14 -102 loadbang;
#X obj 14 -21 oscparse;
#X obj 14 6 route list;
#X obj 14 33 route \$1;
#X obj 14 60 route touches;
#X floatatom 367 127 5 0 0 0 - - -, f 5;
#X floatatom 411 127 5 0 0 0 - - -, f 5;
#X floatatom 458 127 5 0 0 0 - - -, f 5;
#X floatatom 505 127 5 0 0 0 - - -, f 5;
#X obj 367 165 outlet;
#X obj 411 165 outlet;
#X obj 458 165 outlet;
#X obj 505 165 outlet;
#X text 356 127 8;
#X text 400 127 9;
#X text 444 127 10;
#X text 491 127 11;
#X connect 1 0 0 0;
#X connect 2 0 9 0;
#X connect 3 0 10 0;
#X connect 4 0 11 0;
#X connect 5 0 12 0;
#X connect 6 0 13 0;
#X connect 7 0 14 0;
#X connect 8 0 15 0;
#X connect 24 0 1 0;
#X connect 24 1 2 0;
#X connect 24 2 3 0;
#X connect 24 3 4 0;
#X connect 24 4 5 0;
#X connect 24 5 6 0;
#X connect 24 6 7 0;
#X connect 24 7 8 0;
#X connect 25 0 28 0;
#X connect 26 0 25 0;
#X connect 27 0 26 0;
#X connect 28 0 29 0;
#X connect 29 0 30 0;
#X connect 30 0 31 0;
#X connect 31 0 24 0;
#X connect 32 0 36 0;
#X connect 33 0 37 0;
#X connect 34 0 38 0;
#X connect 35 0 39 0;
#X coords 0 -1 1 1 540 46 1 0 110;
