#N canvas 33 28 630 670 10;
#X obj 266 569 outlet;
#X msg 253 354 0;
#X obj 253 265 prepend set;
#X obj 308 95 inlet;
#X obj 383 95 inlet;
#X obj 54 159 bng 25 250 50 0 \$0-setmin \$0-inlet2 min 4 10 0 10 -262144
-1 -1;
#X obj 84 159 bng 25 250 50 0 \$0-setmax \$0-inlet3 max 4 10 0 10 -262144
-1 -1;
#X floatatom 54 228 6 0 0 0 - #0-scaled-value -, f 6;
#X obj 296 302 r \$0-setmin;
#X obj 374 303 r \$0-setmax;
#X obj 269 506 s \$0-scaled-value;
#X msg 304 354 1024;
#X obj 308 191 s \$0-inlet2;
#X obj 383 191 s \$0-inlet3;
#X obj 232 191 s \$0-inlet1;
#X obj 230 229 r \$0-inlet1;
#X obj 232 95 inlet;
#X obj 54 206 hsl 50 8 0 1 0 0 empty \$0-scaled-value empty -2 -8 0
10 -1 -262144 -1 0 1;
#X obj 487 231 r \$0-scaled-value;
#X obj 266 537 r \$0-scaled-value;
#X obj 382 568 outlet;
#X obj 94 229 tgl 15 0 empty \$0-trigger-out empty 17 7 0 10 -262144
-1 -1 0 1;
#X obj 382 538 r \$0-threshold-value;
#X obj 487 260 hysteresis 0.05;
#X obj 487 349 > 0.5;
#X obj 459 95 inlet;
#X obj 459 191 s \$0-inlet4;
#X obj 487 378 s \$0-trigger-out;
#X obj 54 211 hsl 50 15 0 1 0 1 \$0-threshold \$0-inlet4 threshold
3 5 0 9 -262144 -2112 -1 2400 1;
#X floatatom 514 317 5 0 0 0 - - -, f 5;
#X obj 514 291 r \$0-threshold;
#X floatatom 54 187 3 0 1 1 curve - #0-exponent, f 3;
#X obj 320 438 r \$0-exponent;
#X obj 230 388 scale 0 1024 0 1 0;
#N canvas 196 104 450 499 (subpatch) 0;
#X obj 183 22 inlet;
#X obj 175 152 -;
#X obj 175 187 abs;
#X obj 173 275 bng 15 250 50 0 empty empty empty 17 7 0 10 -262144
-1 -1;
#X obj 221 331 float;
#X obj 183 60 t f f b f, f 11;
#X obj 220 387 outlet;
#X obj 194 115 float;
#X obj 176 226 < 5;
#X connect 0 0 5 0;
#X connect 1 0 2 0;
#X connect 2 0 8 0;
#X connect 3 0 4 0;
#X connect 4 0 6 0;
#X connect 5 0 7 1;
#X connect 5 1 1 0;
#X connect 5 2 7 0;
#X connect 5 3 4 1;
#X connect 7 0 1 1;
#X connect 8 0 3 0;
#X restore 232 127 pd;
#X obj 232 159 mavg 20;
#X obj 230 435 moses 0;
#X obj 269 478 pow 0.8, f 9;
#X connect 1 0 33 1;
#X connect 2 0 11 0;
#X connect 2 0 1 0;
#X connect 3 0 12 0;
#X connect 4 0 13 0;
#X connect 8 0 1 0;
#X connect 9 0 11 0;
#X connect 11 0 33 2;
#X connect 15 0 33 0;
#X connect 15 0 2 0;
#X connect 16 0 34 0;
#X connect 18 0 23 0;
#X connect 19 0 0 0;
#X connect 22 0 20 0;
#X connect 23 0 24 0;
#X connect 24 0 27 0;
#X connect 25 0 26 0;
#X connect 29 0 24 1;
#X connect 30 0 29 0;
#X connect 32 0 37 1;
#X connect 33 0 36 0;
#X connect 34 0 35 0;
#X connect 35 0 14 0;
#X connect 36 1 37 0;
#X connect 37 0 10 0;
#X coords 0 -1 1 1 66 96 2 48 153;
