#N canvas 0 0 1334 668 10;
#X obj 79 104 cnv 15 148 81 empty empty PST-SCALE 5 5 0 14 -4033 -262144
0;
#X obj -14 50 inlet;
#X dropdown 82 144 21 0 0 0 - #0scaleguir #0scaleguis, f 21;
#X obj 407 3 loadbang;
#X floatatom 79 435 5 0 0 0 - - -, f 5;
#X obj 79 520 change;
#X obj 79 463 int;
#X floatatom 79 491 5 0 0 0 - - -, f 5;
#X obj 105 258 loadbang;
#X text 210 357 < number of notes in scale;
#X text 117 491 < current note, f 10;
#X floatatom 169 361 5 0 0 0 - - -, f 5;
#X obj 319 449 > 0;
#X obj 318 482 * 127;
#X text 359 482 < current velocity;
#X msg -68 596 0 1 3 4 6 8 10 12 13 15 16 18 20 22;
#X obj 72 639 zl nth;
#X obj 79 555 t b f;
#X obj 222 803 pack, f 5;
#X obj 55 874 prepend set;
#X msg 251 921 64;
#X text 280 917 < store last note to send note off on next note, f
18;
#X obj 318 602 prepend set;
#X msg 318 742 0;
#X obj 73 694 t f b;
#X obj 223 838 t l b;
#X obj 251 986 pack;
#X obj 251 957 t f 0;
#X obj 410 570 sel 0;
#X obj 410 539 change;
#X text 458 566 < send note off when under thresh, f 18;
#X obj 73 667 + 64;
#X obj 410 601 s \$0-noteoff;
#X text 110 667 < scale offset;
#X obj 466 767 outlet;
#X obj 141 872 s \$0-notepairout;
#X obj 250 1015 s \$0-notepairout;
#X obj 466 726 r \$0-notepairout;
#X obj 438 326 r \$0-notepairout;
#X obj 437 416 s \$0-noteout;
#X obj 471 391 s \$0-velocityout;
#X obj 438 359 unpack;
#X obj 270 885 r \$0-noteoff;
#X floatatom 82 164 5 1 99 1 number-of-octaves #0octaver #0octaves
, f 5;
#N canvas 59 188 782 444 scalemaker 0;
#X obj 296 28 inlet;
#X obj 223 695 outlet;
#X msg 335 318 0 1 3 4 6 8 10;
#X obj 366 203 bng 15 250 50 0 empty empty empty 17 7 0 10 -262144
-1 -1;
#X msg 593 546 set;
#X floatatom 427 340 5 0 0 0 - - -, f 5;
#X obj 469 330 + 12;
#X obj 469 354 prepend set;
#X obj 366 260 t b b;
#X obj 410 532 + 0;
#X obj 340 457 zl iter 1;
#X obj 409 563 prepend add2;
#X msg 427 258 set 0;
#X obj 604 202 bng 15 250 50 0 empty empty empty 17 7 0 10 -262144
-1 -1;
#X obj 365 154 uzi;
#X obj 365 119 t b i;
#X text 109 319 scale as semi-tone steps >;
#X msg 282 658 0 1 3 4 6 8 10 12 13 15 16 18 20 22;
#X obj 296 86 t b i b, f 52;
#N canvas 764 21 511 714 scales 0;
#X obj 65 27 t b s, f 8;
#X obj 65 119 outlet;
#X obj -18 120 outlet;
#N canvas 75 167 1085 398 scales 0;
#X obj 182 59 inlet;
#X obj 812 556 outlet;
#X msg 182 138 0 2 4 7 9;
#X msg 267 138 0 3 5 7 10;
#X msg 352 138 0 3 5 6 7 10;
#X obj 470 138 sel ionian dorian phrygian lydian mixolydian aeolian
locrain, f 61;
#X obj 182 100 sel major-pentatonic minor-pentatonic blues;
#X msg 470 186 0 2 4 5 7 9 11;
#X msg 521 216 0 2 3 5 7 9 10;
#X msg 573 246 0 1 3 5 7 8 10;
#X msg 625 275 0 2 4 6 7 9 11;
#X msg 677 305 0 2 4 5 7 9 10;
#X msg 729 335 0 2 3 5 7 8 10;
#X msg 781 365 0 1 3 5 6 8 10;
#X obj 890 209 sel lydian-dominant diminished whole-tone altered;
#X msg 890 243 0 2 4 6 7 9 10;
#X msg 962 276 0 2 3 5 6 8 9 11;
#X msg 1035 310 0 2 4 6 8 10;
#X msg 1108 339 0 1 3 4 6 8 10;
#X connect 0 0 6 0;
#X connect 2 0 1 0;
#X connect 3 0 1 0;
#X connect 4 0 1 0;
#X connect 5 0 7 0;
#X connect 5 1 8 0;
#X connect 5 2 9 0;
#X connect 5 3 10 0;
#X connect 5 4 11 0;
#X connect 5 5 12 0;
#X connect 5 6 13 0;
#X connect 5 7 14 0;
#X connect 6 0 2 0;
#X connect 6 1 3 0;
#X connect 6 2 4 0;
#X connect 6 3 5 0;
#X connect 7 0 1 0;
#X connect 8 0 1 0;
#X connect 9 0 1 0;
#X connect 10 0 1 0;
#X connect 11 0 1 0;
#X connect 12 0 1 0;
#X connect 13 0 1 0;
#X connect 14 0 15 0;
#X connect 14 1 16 0;
#X connect 14 2 17 0;
#X connect 14 3 18 0;
#X connect 15 0 1 0;
#X connect 16 0 1 0;
#X connect 17 0 1 0;
#X connect 18 0 1 0;
#X restore -18 81 pd scales;
#X text -82 -54 comment;
#X obj 65 -5 r \$0scalename;
#X connect 0 0 1 0;
#X connect 0 1 3 0;
#X connect 3 0 2 0;
#X connect 5 0 0 0;
#X restore 129 28 pd scales;
#X floatatom 296 60 5 0 0 0 - - -, f 5;
#X obj 129 62 prepend set, f 12;
#X connect 0 0 20 0;
#X connect 2 0 10 0;
#X connect 3 0 8 0;
#X connect 4 0 17 0;
#X connect 5 0 6 0;
#X connect 5 0 9 1;
#X connect 6 0 7 0;
#X connect 7 0 5 0;
#X connect 8 0 2 0;
#X connect 8 1 5 0;
#X connect 9 0 11 0;
#X connect 10 0 9 0;
#X connect 11 0 17 0;
#X connect 12 0 5 0;
#X connect 13 0 4 0;
#X connect 13 0 12 0;
#X connect 14 0 3 0;
#X connect 15 0 14 0;
#X connect 15 1 14 1;
#X connect 17 0 1 0;
#X connect 18 0 17 0;
#X connect 18 1 15 0;
#X connect 18 2 13 0;
#X connect 19 0 21 0;
#X connect 19 1 20 0;
#X connect 20 0 18 0;
#X connect 21 0 2 0;
#X restore -68 429 pd scalemaker;
#X obj -68 541 prepend set;
#X obj -68 457 t l l;
#X obj -41 489 zl len;
#X text -243 -3 comment;
#X obj -41 513 s \$0-numnotes;
#X obj 168 329 r \$0-numnotes;
#X text -238 596 scale as semi-tone steps >;
#X obj 78 395 maxlib/scale 0.2 1 0 5;
#X msg 404 78 names major-pentatonic minor-pentatonic blues ionian
dorian phygian lydian mixolydian aeolian locrian lydian-dominant diminished
whole-tone altered;
#N canvas 678 128 645 439 numbercruncher 0;
#X obj 87 10 inlet;
#X obj 325 249 loadbang;
#X obj 134 415 outlet;
#X text 227 82 Sends creation argument list to the GOP;
#X text 292 214 Receives GOP values and sends them on again to the
saver;
#X msg 43 321 symbol flt;
#X obj 325 274 t b b b;
#X obj 43 226 t b f;
#X obj 245 225 t b f;
#X obj 43 140 s \$0threshr;
#X obj 43 197 r \$0threshs;
#X obj 149 227 t b f;
#X msg 344 323 symbol flt;
#X obj 134 377 pack s f s f s f;
#X obj 149 196 r \$0scaleindexs;
#X obj 135 139 s \$0scaleindexr;
#X obj 87 44 unpack s f s f s f;
#X msg 364 300 symbol flt;
#X obj 241 138 s \$0octaver;
#X obj 245 196 r \$0octaves;
#X connect 0 0 16 0;
#X connect 1 0 6 0;
#X connect 5 0 13 0;
#X connect 6 0 5 0;
#X connect 6 1 12 0;
#X connect 6 2 17 0;
#X connect 7 0 5 0;
#X connect 7 1 13 1;
#X connect 8 0 5 0;
#X connect 8 1 13 5;
#X connect 10 0 7 0;
#X connect 11 0 5 0;
#X connect 11 1 13 3;
#X connect 12 0 13 2;
#X connect 13 0 2 0;
#X connect 14 0 11 0;
#X connect 16 1 9 0;
#X connect 16 3 15 0;
#X connect 16 5 18 0;
#X connect 17 0 13 4;
#X connect 19 0 8 0;
#X restore 782 444 pd numbercruncher;
#X obj 782 565 iemguts/canvasargs;
#X obj 782 365 iemguts/canvasargs;
#X obj 689 275 loadbang;
#X obj 782 413 list trim;
#X obj 782 390 list;
#X obj 689 319 t b b, f 16;
#X msg 689 402 1;
#X obj 782 520 spigot;
#X text 782 590 v1.3 \, 2015 Liam Goodacre \, liam.goodacre@gmail.com
;
#X text 823 513 This spigot is necessary because if one [canvasargs]
object feeds the creation argument straight into another it will cause
PD to crash.;
#X obj 105 283 s \$0threshr;
#X obj 105 303 r \$0threshs;
#X obj 82 121 hsl 137 19 0 1 0 0 empty \$0inlet1 empty -2 -8 0 10 -1
-262144 -1 110 1;
#X obj 82 126 hsl 137 14 0 1 0 1 \$0threshs \$0threshr threshold 3
5 0 9 -262144 -4033 -133153 1000 1;
#X obj -14 75 s \$0inlet1;
#X obj 35 359 r \$0inlet1;
#X obj 514 135 route names;
#X obj 514 281 s \$0scalename;
#X obj 514 252 zl nth;
#X obj 613 197 t b i;
#X obj 613 163 + 1, f 4;
#X floatatom 237 146 4 0 0 0 - #0scaleindexr #0scaleindexs, f 4;
#X obj 753 130 r \$0scaleguis;
#X obj 753 198 s \$0scaleindexr;
#X obj 613 134 r \$0scaleindexs;
#X obj 476 48 s \$0scaleindexr;
#X obj 404 165 s \$0scaleguir;
#X obj 654 199 s \$0scaleguir;
#X obj 653 164 prepend set;
#X obj -85 336 r \$0octaves;
#X obj 310 65 s \$0octaver;
#X floatatom -74 378 5 0 0 0 - - -, f 5;
#X obj 407 33 t b b b;
#X connect 1 0 69 0;
#X connect 3 0 87 0;
#X connect 4 0 6 0;
#X connect 5 0 17 0;
#X connect 6 0 7 0;
#X connect 7 0 5 0;
#X connect 8 0 65 0;
#X connect 11 0 52 4;
#X connect 12 0 13 0;
#X connect 13 0 22 0;
#X connect 13 0 29 0;
#X connect 15 0 16 0;
#X connect 16 0 31 0;
#X connect 17 0 15 0;
#X connect 17 1 16 1;
#X connect 18 0 25 0;
#X connect 19 0 20 0;
#X connect 20 0 27 0;
#X connect 22 0 23 0;
#X connect 23 0 18 1;
#X connect 24 0 18 0;
#X connect 24 0 19 0;
#X connect 24 1 23 0;
#X connect 25 0 35 0;
#X connect 25 1 20 0;
#X connect 26 0 36 0;
#X connect 27 0 26 0;
#X connect 27 1 26 1;
#X connect 28 0 32 0;
#X connect 29 0 28 0;
#X connect 31 0 24 0;
#X connect 37 0 34 0;
#X connect 38 0 41 0;
#X connect 41 0 39 0;
#X connect 41 1 40 0;
#X connect 42 0 20 0;
#X connect 44 0 46 0;
#X connect 45 0 15 0;
#X connect 46 0 45 0;
#X connect 46 1 47 0;
#X connect 47 0 49 0;
#X connect 50 0 11 0;
#X connect 52 0 4 0;
#X connect 52 0 12 0;
#X connect 53 0 71 0;
#X connect 53 0 81 0;
#X connect 54 0 62 0;
#X connect 56 0 59 0;
#X connect 57 0 60 0;
#X connect 58 0 54 0;
#X connect 59 0 58 0;
#X connect 60 0 61 0;
#X connect 60 1 56 0;
#X connect 61 0 62 1;
#X connect 62 0 55 0;
#X connect 66 0 52 1;
#X connect 70 0 52 0;
#X connect 71 0 73 0;
#X connect 73 0 72 0;
#X connect 74 0 73 0;
#X connect 74 1 73 1;
#X connect 75 0 74 0;
#X connect 77 0 78 0;
#X connect 79 0 75 0;
#X connect 79 0 83 0;
#X connect 83 0 82 0;
#X connect 84 0 86 0;
#X connect 86 0 44 0;
#X connect 87 0 85 0;
#X connect 87 1 53 0;
#X connect 87 2 80 0;
#X coords 0 -1 1 1 152 86 2 77 102;
