#N canvas 2 66 718 622 12;
#X obj 22 169 shell;
#X msg 22 112 pcsc_scan -nq;
#X obj 22 202 route ATR: Card Reader;
#X obj 407 330 zl slice 1;
#X obj 407 384 s2l :;
#X obj 407 357 l2s;
#X obj 407 411 unpack;
#X floatatom 407 465 5 0 0 0 - - -, f 5;
#X obj 407 438 atoi;
#X obj 72 288 l2s -;
#X obj 72 329 sel state:-Card-inserted state:-Card-removed;
#X msg 72 370 1;
#X msg 134 370 0;
#X obj 24 519 l2s -;
#X floatatom 72 411 5 0 0 0 - - -, f 5;
#X obj 222 580 list prepend, f 27;
#X obj 24 630 list prepend;
#X obj 170 697 switch 2, f 16;
#X obj 167 496 + 1;
#X obj 72 450 t i i, f 14;
#X obj 423 507 s \$0-reader;
#X obj 149 424 s \$0-state;
#X obj 48 564 s \$0-code;
#X obj 199 394 s \$0-code;
#X symbolatom 614 331 49 0 0 0 id - -, f 49;
#X msg 780 230 set -;
#X obj 780 197 route 0;
#X obj 780 164 r \$0-code;
#X msg 836 230 set \$1;
#X floatatom 614 304 5 0 0 0 reader #0-reader -, f 5;
#X floatatom 614 277 5 0 0 0 state #0-state -, f 5;
#X obj 171 731 outlet;
#X msg 132 112 pkill pcsc_scan;
#X obj 22 52 r \$0-active;
#X obj 22 77 sel 1 0;
#X obj 938 271 tgl 15 0 \$0-active \$0-active active -40 5 0 10 -262144
-1 -1 1 1;
#X obj 937 195 loadbang;
#X msg 938 222 1;
#X connect 0 0 2 0;
#X connect 1 0 0 0;
#X connect 2 0 13 0;
#X connect 2 1 9 0;
#X connect 2 2 3 0;
#X connect 3 0 5 0;
#X connect 4 0 6 0;
#X connect 5 0 4 0;
#X connect 6 0 8 0;
#X connect 7 0 15 1;
#X connect 7 0 20 0;
#X connect 8 0 7 0;
#X connect 9 0 10 0;
#X connect 10 0 11 0;
#X connect 10 1 12 0;
#X connect 11 0 14 0;
#X connect 12 0 14 0;
#X connect 12 0 23 0;
#X connect 13 0 16 0;
#X connect 13 0 22 0;
#X connect 14 0 19 0;
#X connect 14 0 21 0;
#X connect 15 0 16 1;
#X connect 15 0 17 1;
#X connect 16 0 17 2;
#X connect 17 0 31 0;
#X connect 18 0 17 0;
#X connect 19 0 15 0;
#X connect 19 1 18 0;
#X connect 25 0 24 0;
#X connect 26 0 25 0;
#X connect 26 1 28 0;
#X connect 27 0 26 0;
#X connect 28 0 24 0;
#X connect 32 0 0 0;
#X connect 33 0 34 0;
#X connect 34 0 1 0;
#X connect 34 1 32 0;
#X connect 36 0 37 0;
#X connect 37 0 35 0;
#X coords 0 -1 1 1 417 102 1 561 262;
