#N canvas 0 0 1334 668 10;
#X declare -path subpatches;
#X obj 33 488 cnv 15 172 250 empty empty PST-MULTITOUCH 5 5 0 14 -4033
-262144 0;
#X obj 232 488 outlet;
#X obj 598 -77 inlet;
#X floatatom 454 742 10 0 0 0 - #0-clipped-value -, f 10;
#X obj 187 491 bng 15 250 50 0 \$0-reset \$0-to-reset rst -20 5 0 10
-262144 -1 -1;
#X obj 644 -69 loadbang;
#X obj 644 -42 delay 500;
#X obj 231 -115 netreceive -u -b;
#X msg 231 -142 listen 8000;
#X obj 231 -169 loadbang;
#X obj 231 -88 oscparse;
#X obj 231 -61 route list;
#X obj 231 23 route touches;
#X obj 351 -92 s pst-osc-in;
#X obj 351 -70 r pst-osc-in;
#X obj 598 -1 s \$0-to-reset;
#X obj 38 551 hsl 127 10 0 1 0 0 empty \$0-scaled-value0 empty -2 -8
0 10 -1 -262144 -1 30 1;
#X obj 38 535 hsl 127 14 0 1 0 1 \$0ceilings \$0ceilingr ceiling 3
5 0 9 -262144 -4033 -133153 10800 1;
#N canvas 202 177 645 462 numbercruncher 0;
#X obj 87 10 inlet;
#X obj 375 249 loadbang;
#X obj 134 465 outlet;
#X text 429 89 Sends creation argument list to the GOP;
#X text 435 187 Receives GOP values and sends them on again to the
saver;
#X msg 22 326 symbol flt;
#X obj 43 226 t b f;
#X obj 149 227 t b f;
#X msg 394 323 symbol flt;
#X obj 135 139 s \$0curver;
#X obj 149 196 r \$0curves;
#X obj 241 138 s \$0macr;
#X obj 245 196 r \$0macs;
#X msg 469 327 symbol sym;
#X obj 245 225 t b s;
#X obj 43 140 s \$0floorr;
#X obj 43 197 r \$0floors;
#X obj 87 44 unpack s f s f s s s f;
#X obj 134 427 pack s f s f s s s f;
#X obj 375 274 t b b b b;
#X msg 600 328 symbol flt;
#X obj 329 220 t b f;
#X obj 329 134 s \$0ceilingr;
#X obj 329 191 r \$0ceilings;
#X connect 0 0 17 0;
#X connect 1 0 19 0;
#X connect 5 0 18 0;
#X connect 6 0 5 0;
#X connect 6 1 18 1;
#X connect 7 0 5 0;
#X connect 7 1 18 3;
#X connect 8 0 18 2;
#X connect 10 0 7 0;
#X connect 12 0 14 0;
#X connect 13 0 18 4;
#X connect 14 0 5 0;
#X connect 14 1 18 5;
#X connect 16 0 6 0;
#X connect 17 1 15 0;
#X connect 17 3 9 0;
#X connect 17 5 11 0;
#X connect 17 7 22 0;
#X connect 18 0 2 0;
#X connect 19 0 5 0;
#X connect 19 1 8 0;
#X connect 19 2 13 0;
#X connect 19 3 20 0;
#X connect 20 0 18 6;
#X connect 21 0 5 0;
#X connect 21 1 18 7;
#X connect 23 0 21 0;
#X restore 1004 -135 pd numbercruncher;
#X obj 1004 -14 iemguts/canvasargs;
#X obj 1004 -214 iemguts/canvasargs;
#X obj 911 -304 loadbang;
#X obj 1004 -166 list trim;
#X obj 1004 -189 list;
#X obj 911 -260 t b b, f 16;
#X msg 911 -177 1;
#X obj 1004 -59 spigot;
#X text 1004 11 v1.3 \, 2015 Liam Goodacre \, liam.goodacre@gmail.com
;
#X text 1045 -66 This spigot is necessary because if one [canvasargs]
object feeds the creation argument straight into another it will cause
PD to crash.;
#X obj 38 718 hsl 127 14 0 1 0 1 \$0curves \$0curver curve 3 5 0 9
-262144 -4033 -133153 6250 1;
#X symbolatom 54 515 19 0 0 0 ID #0macr #0macs, f 19;
#X obj 258 -29 r \$0macs;
#X obj 231 -4 route;
#X obj 38 695 hsl 127 14 0 1 0 1 \$0floors \$0floorr floor 3 5 0 9
-262144 -4033 -133153 3150 1;
#X obj 464 -151 declare -path subpatches;
#X floatatom 255 204 5 0 0 0 - - -, f 5;
#X obj 250 368 s \$0-scaled-value0;
#X obj 285 459 s \$0-clipped-value0;
#X obj 38 563 hsl 127 10 0 1 0 0 empty \$0-scaled-value1 empty -2 -8
0 10 -1 -262144 -1 2 1;
#X obj 38 575 hsl 127 10 0 1 0 0 empty \$0-scaled-value2 empty -2 -8
0 10 -1 -262144 -1 0 1;
#X obj 38 587 hsl 127 10 0 1 0 0 empty \$0-scaled-value3 empty -2 -8
0 10 -1 -262144 -1 0 1;
#X obj 38 599 hsl 127 10 0 1 0 0 empty \$0-scaled-value4 empty -2 -8
0 10 -1 -262144 -1 0 1;
#X obj 38 611 hsl 127 10 0 1 0 0 empty \$0-scaled-value5 empty -2 -8
0 10 -1 -262144 -1 2 1;
#X obj 38 623 hsl 127 10 0 1 0 0 empty \$0-scaled-value6 empty -2 -8
0 10 -1 -262144 -1 0 1;
#X obj 38 635 hsl 127 10 0 1 0 0 empty \$0-scaled-value7 empty -2 -8
0 10 -1 -262144 -1 2 1;
#X obj 38 647 hsl 127 10 0 1 0 0 empty \$0-scaled-value8 empty -2 -8
0 10 -1 -262144 -1 0 1;
#X obj 38 659 hsl 127 10 0 1 0 0 empty \$0-scaled-value9 empty -2 -8
0 10 -1 -262144 -1 1 1;
#X obj 38 671 hsl 127 10 0 1 0 0 empty \$0-scaled-value10 empty -2
-8 0 10 -1 -262144 -1 0 1;
#X obj 38 683 hsl 127 10 0 1 0 0 empty \$0-scaled-value11 empty -2
-8 0 10 -1 -262144 -1 0 1;
#X obj 439 569 outlet;
#X floatatom 452 205 5 0 0 0 - - -, f 5;
#X obj 439 478 touch-clip;
#X obj 487 417 s \$0-scaled-value1;
#X obj 492 540 s \$0-clipped-value1;
#X obj 231 50 unpack 0 0 0 0 0 0 0 0 0 0 0 0, f 375;
#X obj 661 570 outlet;
#X floatatom 674 206 5 0 0 0 - - -, f 5;
#X obj 661 479 touch-clip;
#X obj 858 571 outlet;
#X floatatom 871 207 5 0 0 0 - - -, f 5;
#X obj 858 480 touch-clip;
#X obj 709 444 s \$0-scaled-value2;
#X obj 714 541 s \$0-clipped-value2;
#X obj 899 449 s \$0-scaled-value3;
#X obj 911 542 s \$0-clipped-value3;
#X obj 1088 561 outlet;
#X floatatom 1101 197 5 0 0 0 - - -, f 5;
#X obj 1088 470 touch-clip;
#X obj 1285 562 outlet;
#X floatatom 1298 198 5 0 0 0 - - -, f 5;
#X obj 1285 471 touch-clip;
#X obj 1497 563 outlet;
#X floatatom 1520 199 5 0 0 0 - - -, f 5;
#X obj 1497 472 touch-clip;
#X obj 1694 564 outlet;
#X floatatom 1717 200 5 0 0 0 - - -, f 5;
#X obj 1694 473 touch-clip;
#X obj 1120 431 s \$0-scaled-value4;
#X obj 1141 532 s \$0-clipped-value4;
#X obj 1332 426 s \$0-scaled-value5;
#X obj 1338 533 s \$0-clipped-value5;
#X obj 1545 438 s \$0-scaled-value6;
#X obj 1550 534 s \$0-clipped-value6;
#X obj 1746 430 s \$0-scaled-value7;
#X obj 1747 535 s \$0-clipped-value7;
#X obj 1928 579 outlet;
#X floatatom 1951 215 5 0 0 0 - - -, f 5;
#X obj 1928 488 touch-clip;
#X obj 2125 580 outlet;
#X floatatom 2148 216 5 0 0 0 - - -, f 5;
#X obj 2125 489 touch-clip;
#X obj 2347 581 outlet;
#X floatatom 2370 217 5 0 0 0 - - -, f 5;
#X obj 2347 490 touch-clip;
#X obj 2544 582 outlet;
#X floatatom 2567 218 5 0 0 0 - - -, f 5;
#X obj 2544 491 touch-clip;
#X obj 1967 451 s \$0-scaled-value8;
#X obj 1981 550 s \$0-clipped-value8;
#X obj 2176 455 s \$0-scaled-value9;
#X obj 2178 551 s \$0-clipped-value9;
#X obj 2372 414 s \$0-scaled-value10;
#X obj 2400 552 s \$0-clipped-value10;
#X obj 2581 452 s \$0-scaled-value11;
#X obj 2597 553 s \$0-clipped-value11;
#X obj 232 397 touch-clip \$0;
#X obj 232 244 touch-scale \$0;
#X obj 234 283 t 1 f;
#X obj 223 328 -;
#X obj 439 343 t 1 f;
#X obj 428 388 -;
#X obj 673 361 t 1 f;
#X obj 662 406 -;
#X obj 877 372 t 1 f;
#X obj 866 417 -;
#X obj 1078 359 t 1 f;
#X obj 1067 404 -;
#X obj 1294 340 t 1 f;
#X obj 1283 385 -;
#X obj 1509 354 t 1 f;
#X obj 1498 399 -;
#X obj 1716 360 t 1 f;
#X obj 1705 405 -;
#X obj 1924 368 t 1 f;
#X obj 1913 413 -;
#X obj 2133 362 t 1 f;
#X obj 2122 407 -;
#X obj 2364 342 t 1 f;
#X obj 2353 387 -;
#X obj 2553 378 t 1 f;
#X obj 2542 423 -;
#X obj 429 245 touch-scale \$0;
#X obj 651 246 touch-scale \$0;
#X obj 848 247 touch-scale \$0;
#X obj 1078 237 touch-scale \$0;
#X obj 1275 238 touch-scale \$0;
#X obj 1497 239 touch-scale \$0;
#X obj 1694 240 touch-scale \$0;
#X obj 1928 255 touch-scale \$0;
#X obj 2125 256 touch-scale \$0;
#X obj 2347 257 touch-scale \$0;
#X obj 2544 258 touch-scale \$0;
#X connect 2 0 15 0;
#X connect 5 0 6 0;
#X connect 6 0 15 0;
#X connect 7 0 13 0;
#X connect 8 0 7 0;
#X connect 9 0 8 0;
#X connect 10 0 11 0;
#X connect 11 0 32 0;
#X connect 12 0 54 0;
#X connect 14 0 10 0;
#X connect 18 0 26 0;
#X connect 20 0 23 0;
#X connect 21 0 24 0;
#X connect 22 0 18 0;
#X connect 23 0 22 0;
#X connect 24 0 25 0;
#X connect 24 1 20 0;
#X connect 25 0 26 1;
#X connect 26 0 19 0;
#X connect 31 0 32 1;
#X connect 32 0 12 0;
#X connect 35 0 106 0;
#X connect 50 0 131 0;
#X connect 51 0 49 0;
#X connect 51 0 53 0;
#X connect 54 0 106 0;
#X connect 54 1 131 0;
#X connect 54 2 132 0;
#X connect 54 3 133 0;
#X connect 54 4 134 0;
#X connect 54 5 135 0;
#X connect 54 6 136 0;
#X connect 54 7 137 0;
#X connect 54 8 138 0;
#X connect 54 9 139 0;
#X connect 54 10 140 0;
#X connect 54 11 141 0;
#X connect 56 0 132 0;
#X connect 57 0 55 0;
#X connect 57 0 62 0;
#X connect 59 0 133 0;
#X connect 60 0 58 0;
#X connect 60 0 64 0;
#X connect 66 0 134 0;
#X connect 67 0 65 0;
#X connect 67 0 78 0;
#X connect 69 0 135 0;
#X connect 70 0 68 0;
#X connect 70 0 80 0;
#X connect 72 0 136 0;
#X connect 73 0 71 0;
#X connect 73 0 82 0;
#X connect 75 0 137 0;
#X connect 76 0 74 0;
#X connect 76 0 84 0;
#X connect 86 0 138 0;
#X connect 87 0 85 0;
#X connect 87 0 98 0;
#X connect 89 0 139 0;
#X connect 90 0 88 0;
#X connect 90 0 100 0;
#X connect 92 0 140 0;
#X connect 93 0 91 0;
#X connect 93 0 102 0;
#X connect 95 0 141 0;
#X connect 96 0 94 0;
#X connect 96 0 104 0;
#X connect 105 0 1 0;
#X connect 105 0 37 0;
#X connect 106 0 107 0;
#X connect 107 0 108 0;
#X connect 107 1 108 1;
#X connect 108 0 36 0;
#X connect 108 0 105 0;
#X connect 109 0 110 0;
#X connect 109 1 110 1;
#X connect 110 0 52 0;
#X connect 110 0 51 0;
#X connect 111 0 112 0;
#X connect 111 1 112 1;
#X connect 112 0 61 0;
#X connect 112 0 57 0;
#X connect 113 0 114 0;
#X connect 113 1 114 1;
#X connect 114 0 63 0;
#X connect 114 0 60 0;
#X connect 115 0 116 0;
#X connect 115 1 116 1;
#X connect 116 0 77 0;
#X connect 116 0 67 0;
#X connect 117 0 118 0;
#X connect 117 1 118 1;
#X connect 118 0 79 0;
#X connect 118 0 70 0;
#X connect 119 0 120 0;
#X connect 119 1 120 1;
#X connect 120 0 81 0;
#X connect 120 0 73 0;
#X connect 121 0 122 0;
#X connect 121 1 122 1;
#X connect 122 0 83 0;
#X connect 122 0 76 0;
#X connect 123 0 124 0;
#X connect 123 1 124 1;
#X connect 124 0 97 0;
#X connect 124 0 87 0;
#X connect 125 0 126 0;
#X connect 125 1 126 1;
#X connect 126 0 99 0;
#X connect 126 0 90 0;
#X connect 127 0 128 0;
#X connect 127 1 128 1;
#X connect 128 0 101 0;
#X connect 128 0 93 0;
#X connect 129 0 130 0;
#X connect 129 1 130 1;
#X connect 130 0 96 0;
#X connect 130 0 103 0;
#X connect 131 0 109 0;
#X connect 132 0 111 0;
#X connect 133 0 113 0;
#X connect 134 0 115 0;
#X connect 135 0 117 0;
#X connect 136 0 119 0;
#X connect 137 0 121 0;
#X connect 138 0 123 0;
#X connect 139 0 125 0;
#X connect 140 0 127 0;
#X connect 141 0 129 0;
#X coords 0 -1 1 1 177 255 2 31 486;
