#N canvas 334 0 665 668 10;
#X obj 33 308 cnv 15 142 117 empty empty PST-TOUCH 5 5 0 14 -4033 -262144
0;
#X obj 266 789 outlet;
#X obj 348 283 prepend set;
#X obj 308 95 inlet;
#X obj 383 95 inlet;
#X floatatom 39 405 19 0 0 0 - #0-scaled-value -, f 19;
#X obj 269 726 s \$0-scaled-value;
#X obj 231 191 s \$0-inlet1;
#X obj 230 229 r \$0-inlet1;
#X obj 487 231 r \$0-scaled-value;
#X obj 266 757 r \$0-scaled-value;
#X obj 382 788 outlet;
#X obj 157 406 tgl 15 0 empty \$0-trigger-out empty 17 7 0 10 -262144
-1 -1 0 1;
#X obj 487 260 hysteresis 0.05;
#X obj 487 349 > 0.5;
#X obj 487 378 s \$0-trigger-out;
#X floatatom 514 317 5 0 0 0 - - -, f 5;
#N canvas 778 75 450 522 (subpatch) 0;
#X obj 183 22 inlet;
#X obj 175 152 -;
#X obj 175 187 abs;
#X obj 173 275 bng 15 250 50 0 empty empty empty 17 7 0 10 -262144
-1 -1;
#X obj 221 331 float;
#X obj 183 60 t f f b f, f 11;
#X obj 220 387 outlet;
#X obj 194 115 float;
#X obj 176 226 < 5;
#X connect 0 0 5 0;
#X connect 1 0 2 0;
#X connect 2 0 8 0;
#X connect 3 0 4 0;
#X connect 4 0 6 0;
#X connect 5 0 7 1;
#X connect 5 1 1 0;
#X connect 5 2 7 0;
#X connect 5 3 4 1;
#X connect 7 0 1 1;
#X connect 8 0 3 0;
#X restore 231 86 pd;
#X obj 230 595 moses 0;
#X obj 269 638 pow 0.8, f 9;
#X obj 275 441 min;
#X floatatom 306 442 5 0 0 0 - - -, f 5;
#X obj 275 409 t f b;
#X floatatom 396 443 5 0 0 0 - - -, f 5;
#X obj 365 410 t f b;
#X obj 365 442 max;
#X obj 156 313 bng 15 250 50 0 \$0-reset \$0-to-reset rst -20 5 0 10
-262144 -1 -1;
#X obj 403 309 r \$0-reset;
#X obj 396 465 change;
#X obj 306 464 change;
#X obj 230 541 * -1;
#X obj 230 568 + 1;
#X obj 429 103 loadbang;
#X msg 404 344 -1458;
#X obj 429 130 delay 500;
#X obj 382 758 r \$0-trigger-out;
#X obj 231 50 unpack 0 0 0 0 0 0 0 0, f 52;
#X obj 231 -115 netreceive -u -b;
#X msg 231 -142 listen 8000;
#X obj 231 -169 loadbang;
#X obj 231 -88 oscparse;
#X obj 231 -61 route list;
#X obj 231 23 route touches;
#X obj 351 -92 s pst-osc-in;
#X obj 351 -70 r pst-osc-in;
#X obj 231 118 mavg 10;
#X obj 230 508 maxlib/scale 0 1024 0 1 0, f 64;
#X obj 231 158 * -1;
#X obj 383 171 s \$0-to-reset;
#X obj 641 604 loadbang;
#X obj 641 630 delay 500;
#X obj 573 156 print;
#X obj 39 356 hsl 127 19 0 1 0 0 empty \$0-scaled-value empty -2 -8
0 10 -1 -262144 -1 0 1;
#X obj 39 361 hsl 127 14 0 1 0 1 \$0threshs \$0threshr threshold 3
5 0 9 -262144 -4033 -133153 4300 1;
#X obj 308 211 s $threshr;
#X obj 514 291 r \$0threshs;
#N canvas 202 177 645 462 numbercruncher 0;
#X obj 87 10 inlet;
#X obj 325 249 loadbang;
#X obj 134 415 outlet;
#X text 227 82 Sends creation argument list to the GOP;
#X text 292 214 Receives GOP values and sends them on again to the
saver;
#X msg 22 326 symbol flt;
#X obj 325 274 t b b b;
#X obj 43 226 t b f;
#X obj 43 140 s \$0threshr;
#X obj 43 197 r \$0threshs;
#X obj 149 227 t b f;
#X msg 344 323 symbol flt;
#X obj 135 139 s \$0curver;
#X obj 149 196 r \$0curves;
#X obj 87 44 unpack s f s f s s;
#X obj 241 138 s \$0macr;
#X obj 245 196 r \$0macs;
#X msg 419 327 symbol sym;
#X obj 245 225 t b s;
#X obj 134 377 pack s f s f s s;
#X connect 0 0 14 0;
#X connect 1 0 6 0;
#X connect 5 0 19 0;
#X connect 6 0 5 0;
#X connect 6 1 11 0;
#X connect 6 2 17 0;
#X connect 7 0 5 0;
#X connect 7 1 19 1;
#X connect 9 0 7 0;
#X connect 10 0 5 0;
#X connect 10 1 19 3;
#X connect 11 0 19 2;
#X connect 13 0 10 0;
#X connect 14 1 8 0;
#X connect 14 3 12 0;
#X connect 14 5 15 0;
#X connect 16 0 18 0;
#X connect 17 0 19 4;
#X connect 18 0 5 0;
#X connect 18 1 19 5;
#X connect 19 0 2 0;
#X restore 918 256 pd numbercruncher;
#X obj 918 377 iemguts/canvasargs;
#X obj 918 177 iemguts/canvasargs;
#X obj 825 87 loadbang;
#X obj 918 225 list trim;
#X obj 918 202 list;
#X obj 825 131 t b b, f 16;
#X msg 825 214 1;
#X obj 918 332 spigot;
#X text 918 402 v1.3 \, 2015 Liam Goodacre \, liam.goodacre@gmail.com
;
#X text 959 325 This spigot is necessary because if one [canvasargs]
object feeds the creation argument straight into another it will cause
PD to crash.;
#X obj 39 379 hsl 128 14 0 1 0 1 \$0curves \$0curver curve 3 5 0 9
-262144 -4033 -133153 5900 1;
#X obj 641 661 s \$0curver;
#X obj 320 576 r \$0curves;
#X symbolatom 54 335 19 0 0 0 ID #0macr #0macs, f 19;
#X obj 258 -29 r \$0macs;
#X obj 231 -4 route;
#X connect 2 0 33 0;
#X connect 3 0 54 0;
#X connect 4 0 48 0;
#X connect 4 0 51 0;
#X connect 8 0 2 0;
#X connect 8 0 22 0;
#X connect 8 0 24 0;
#X connect 8 0 46 0;
#X connect 9 0 13 0;
#X connect 10 0 1 0;
#X connect 13 0 14 0;
#X connect 14 0 15 0;
#X connect 16 0 14 1;
#X connect 17 0 45 0;
#X connect 18 1 19 0;
#X connect 19 0 6 0;
#X connect 20 0 21 0;
#X connect 21 0 20 1;
#X connect 21 0 29 0;
#X connect 22 0 20 0;
#X connect 22 1 21 0;
#X connect 23 0 25 1;
#X connect 23 0 28 0;
#X connect 24 0 25 0;
#X connect 24 1 23 0;
#X connect 25 0 23 0;
#X connect 27 0 33 0;
#X connect 28 0 46 2;
#X connect 29 0 46 1;
#X connect 30 0 31 0;
#X connect 31 0 18 0;
#X connect 32 0 34 0;
#X connect 33 0 21 0;
#X connect 33 0 23 0;
#X connect 34 0 48 0;
#X connect 35 0 11 0;
#X connect 36 0 17 0;
#X connect 37 0 43 0;
#X connect 38 0 37 0;
#X connect 39 0 38 0;
#X connect 40 0 41 0;
#X connect 41 0 72 0;
#X connect 42 0 36 0;
#X connect 44 0 40 0;
#X connect 45 0 47 0;
#X connect 46 0 30 0;
#X connect 47 0 7 0;
#X connect 49 0 50 0;
#X connect 50 0 68 0;
#X connect 55 0 16 0;
#X connect 56 0 64 0;
#X connect 58 0 61 0;
#X connect 59 0 62 0;
#X connect 60 0 56 0;
#X connect 61 0 60 0;
#X connect 62 0 63 0;
#X connect 62 1 58 0;
#X connect 63 0 64 1;
#X connect 64 0 57 0;
#X connect 69 0 19 1;
#X connect 71 0 72 1;
#X connect 72 0 42 0;
#X coords 0 -1 1 1 148 125 2 30 304;
