#N canvas 0 0 1522 772 10;
#X obj 18 -2 cnv 15 180 168 empty empty PST-MULTITOUCH-2 5 5 0 14 #00a800
#fcfcfc 0;
#X obj 400 820 outlet;
#X obj 560 -50 inlet;
#X obj 500 272 oscparse;
#X obj 500 299 route list;
#X obj 500 383 route touches;
#X obj 23 31 hsl 166 10 0 1 0 0 empty \$0-scaled-value0 empty -2 -8
0 10 #000000 #fcfcfc #000000 16500 1;
#X obj 23 15 hsl 166 14 0 1 0 1 \$0ceilings \$0ceilingr ceiling 3 5
0 9 #fcfcfc #00fc00 #808080 15933 1;
#X obj 23 150 hsl 166 14 0 1 0 1 \$0curves \$0curver sensitivity 3
5 0 9 #fcfcfc #00fc00 #808080 8051 1;
#X obj 23 127 hsl 166 14 0 1 0 1 \$0floors \$0floorr floor 3 5 0 9
#fcfcfc #00fc00 #808080 0 1;
#X floatatom 524 594 5 0 0 0 - - -, f 5;
#X obj 519 758 s \$0-scaled-value0;
#X obj 23 43 hsl 166 10 0 1 0 0 empty \$0-scaled-value1 empty -2 -8
0 10 #000000 #fcfcfc #000000 16500 1;
#X obj 23 55 hsl 166 10 0 1 0 0 empty \$0-scaled-value2 empty -2 -8
0 10 #000000 #fcfcfc #000000 16500 1;
#X obj 23 67 hsl 166 10 0 1 0 0 empty \$0-scaled-value3 empty -2 -8
0 10 #000000 #fcfcfc #000000 16356 1;
#X obj 23 79 hsl 166 10 0 1 0 0 empty \$0-scaled-value4 empty -2 -8
0 10 #000000 #fcfcfc #000000 16455 1;
#X obj 23 91 hsl 166 10 0 1 0 0 empty \$0-scaled-value5 empty -2 -8
0 10 #000000 #fcfcfc #000000 16146 1;
#X obj 23 103 hsl 166 10 0 1 0 0 empty \$0-scaled-value6 empty -2 -8
0 10 #000000 #fcfcfc #000000 16333 1;
#X obj 23 115 hsl 166 10 0 1 0 0 empty \$0-scaled-value7 empty -2 -8
0 10 #000000 #fcfcfc #000000 16255 1;
#X obj 670 820 outlet;
#X floatatom 721 595 5 0 0 0 - - -, f 5;
#X obj 710 760 s \$0-scaled-value1;
#X obj 900 820 outlet;
#X floatatom 943 596 5 0 0 0 - - -, f 5;
#X obj 1100 880 outlet;
#X floatatom 1140 597 5 0 0 0 - - -, f 5;
#X obj 930 740 s \$0-scaled-value2;
#X obj 1130 760 s \$0-scaled-value3;
#X obj 1357 951 outlet;
#X floatatom 1370 587 5 0 0 0 - - -, f 5;
#X obj 1554 952 outlet;
#X floatatom 1567 588 5 0 0 0 - - -, f 5;
#X obj 1766 953 outlet;
#X floatatom 1789 589 5 0 0 0 - - -, f 5;
#X obj 1963 954 outlet;
#X floatatom 1986 590 5 0 0 0 - - -, f 5;
#X obj 1389 821 s \$0-scaled-value4;
#X obj 1601 816 s \$0-scaled-value5;
#X obj 1814 828 s \$0-scaled-value6;
#X obj 2015 820 s \$0-scaled-value7;
#X obj 497 61 mrpeach/slipdec 65536;
#X msg 544 -11 close;
#X obj 499 24 comport 1 115200;
#X floatatom 490 -37 5 0 0 0 - - -, f 5;
#X obj 490 -70 inlet;
#X msg 490 -11 open \$1;
#X text 362 -68 set custom comport >;
#X text 15 296 1;
#X text 30 296 2;
#X text 46 296 3;
#X text 62 296 4;
#X text 78 296 5;
#X text 94 296 6;
#X text 110 296 7;
#X text 126 296 8;
#X obj 452 412 t b l;
#X obj 387 495 s \$0listbang;
#X obj 1740 380 s \$0curver;
#X obj 1760 40 r \$0curves;
#X obj 1820 320 s \$0macr;
#X obj 1810 120 r \$0macs;
#X obj 1760 360 s \$0floorr;
#X obj 1770 70 r \$0floors;
#X obj 1790 340 s \$0ceilingr;
#X obj 1790 100 r \$0ceilings;
#X obj 1740 210 savestate, f 11;
#X text 1837 207 👈 bangs when parent is saved;
#X obj 1810 240 s \$0-save-state;
#X obj 1740 10 r \$0-save-state;
#X obj 1740 110 f;
#X obj 1840 300 s \$0usbr;
#X obj 1830 140 r \$0usbs;
#X obj 1740 170 pack f f f s f;
#X obj 1740 270 unpack f f f s f;
#X obj 460 330 zl slice 1;
#X obj 500 440 unpack 0 0 0 0 0 0 0 0, f 243;
#X obj 501 634 sub.touch-scale \$0;
#X obj 700 640 sub.touch-scale \$0;
#X obj 920 640 sub.touch-scale \$0;
#X obj 1120 640 sub.touch-scale \$0;
#X obj 1350 630 sub.touch-scale \$0;
#X obj 1770 630 sub.touch-scale \$0;
#X obj 1960 630 sub.touch-scale \$0;
#X text 2850 590 comment;
#X obj 1544 628 sub.touch-scale \$0;
#X connect 2 0 41 0;
#X connect 3 0 4 0;
#X connect 4 0 74 0;
#X connect 5 0 55 0;
#X connect 10 0 76 0;
#X connect 20 0 77 0;
#X connect 23 0 78 0;
#X connect 25 0 79 0;
#X connect 29 0 80 0;
#X connect 31 0 84 0;
#X connect 33 0 81 0;
#X connect 35 0 82 0;
#X connect 40 0 3 0;
#X connect 41 0 42 0;
#X connect 42 0 40 0;
#X connect 43 0 45 0;
#X connect 44 0 43 0;
#X connect 45 0 42 0;
#X connect 55 0 56 0;
#X connect 55 1 75 0;
#X connect 58 0 69 1;
#X connect 60 0 72 3;
#X connect 62 0 72 1;
#X connect 64 0 72 2;
#X connect 65 0 73 0;
#X connect 65 1 67 0;
#X connect 68 0 69 0;
#X connect 69 0 72 0;
#X connect 71 0 72 4;
#X connect 72 0 65 0;
#X connect 73 0 57 0;
#X connect 73 1 61 0;
#X connect 73 2 63 0;
#X connect 73 3 59 0;
#X connect 73 4 70 0;
#X connect 74 1 5 0;
#X connect 75 0 76 0;
#X connect 75 0 1 0;
#X connect 75 1 77 0;
#X connect 75 2 78 0;
#X connect 75 3 79 0;
#X connect 75 4 80 0;
#X connect 75 5 84 0;
#X connect 75 6 81 0;
#X connect 75 7 82 0;
#X connect 76 0 11 0;
#X connect 77 0 21 0;
#X connect 77 0 19 0;
#X connect 78 0 26 0;
#X connect 78 0 22 0;
#X connect 79 0 24 0;
#X connect 79 0 27 0;
#X connect 80 0 36 0;
#X connect 80 0 28 0;
#X connect 81 0 32 0;
#X connect 81 0 38 0;
#X connect 82 0 34 0;
#X connect 82 0 39 0;
#X connect 84 0 37 0;
#X connect 84 0 30 0;
#X coords 0 -1 1 1 186 175 2 15 -5;
