#N canvas 0 0 1522 772 10;
#X obj 79 104 cnv 15 147 106 empty empty PST-SCALE 5 5 0 14 #00a800
#fcfcfc 0;
#X obj 50 240 inlet;
#X dropdown 82 134 21 0 0 0 - #0-to-scale-dropdown #0-from-scale-dropdown
, f 21;
#X obj 467 3 loadbang;
#X obj 139 520 change;
#X obj 139 463 int;
#X text 270 357 < number of notes in scale;
#X text 177 491 < current note, f 10;
#X floatatom 229 361 5 0 0 0 - - -, f 5;
#X obj 289 499 > 0;
#X obj 288 532 * 127;
#X text 329 532 < current velocity;
#X msg -20 650 0 2 3 5 7 8 10;
#X obj 139 555 t b f, f 13;
#X obj 194 1029 pack, f 5;
#X obj 130 1145 prepend set;
#X msg 129 1220 150;
#X text 158 1216 < store last note to send note off on next note,
f 18;
#X obj 288 942 prepend set;
#X msg 288 982 0;
#X obj 194 1067 t l b, f 29;
#X obj 129 1285 pack;
#X obj 129 1256 t f 0;
#X obj 320 620 sel 0;
#X obj 320 589 change;
#X text 368 616 < send note off when under thresh, f 18;
#X obj 133 897 + 64;
#X obj 320 651 s \$0-noteoff;
#X text 170 897 < scale offset;
#X obj 543 852 outlet;
#X obj 196 1094 s \$0-notepairout;
#X obj 128 1314 s \$0-notepairout;
#X obj 543 811 r \$0-notepairout;
#X obj 542 682 r \$0-notepairout;
#X obj 541 772 s \$0-noteout;
#X obj 575 747 s \$0-velocityout;
#X obj 542 715 unpack;
#X obj 194 1185 r \$0-noteoff;
#X floatatom 82 154 5 1 8 1 number-of-octaves #0-to-num-octaves #0-from-num-octaves
, f 5;
#N canvas 595 175 769 463 scalemaker 0;
#X obj 296 28 inlet;
#X obj 223 695 outlet;
#X msg 335 318 0 2 3 5 7 8 10;
#X obj 366 203 bng 15 250 50 0 empty empty empty 17 7 0 10 #fcfcfc
#000000 #000000;
#X msg 593 546 set;
#X floatatom 427 340 5 0 0 0 - - -, f 5;
#X obj 469 330 + 12;
#X obj 469 354 prepend set;
#X obj 366 260 t b b;
#X obj 410 532 + 0;
#X obj 409 563 prepend add2;
#X msg 427 258 set 0;
#X obj 604 202 bng 15 250 50 0 empty empty empty 17 7 0 10 #fcfcfc
#000000 #000000;
#X obj 365 154 uzi;
#X text 109 319 scale as semi-tone steps >;
#X msg 282 658 0 2 3 5 7 8 10;
#X obj 296 86 t b i b, f 52;
#N canvas 76 58 496 733 scales 0;
#X obj 65 27 t b s, f 8;
#X obj 65 119 outlet;
#X obj -22 132 outlet;
#N canvas 75 167 1085 398 scales 0;
#X obj 182 59 inlet;
#X obj 812 556 outlet;
#X msg 182 138 0 2 4 7 9;
#X msg 267 138 0 3 5 7 10;
#X msg 352 138 0 3 5 6 7 10;
#X obj 470 138 sel ionian dorian phrygian lydian mixolydian aeolian
locrain, f 61;
#X obj 182 100 sel major-pentatonic minor-pentatonic blues;
#X msg 470 186 0 2 4 5 7 9 11;
#X msg 521 216 0 2 3 5 7 9 10;
#X msg 573 246 0 1 3 5 7 8 10;
#X msg 625 275 0 2 4 6 7 9 11;
#X msg 677 305 0 2 4 5 7 9 10;
#X msg 729 335 0 2 3 5 7 8 10;
#X msg 781 365 0 1 3 5 6 8 10;
#X obj 890 209 sel lydian-dominant diminished whole-tone altered;
#X msg 890 243 0 2 4 6 7 9 10;
#X msg 962 276 0 2 3 5 6 8 9 11;
#X msg 1035 310 0 2 4 6 8 10;
#X msg 1108 339 0 1 3 4 6 8 10;
#X connect 0 0 6 0;
#X connect 2 0 1 0;
#X connect 3 0 1 0;
#X connect 4 0 1 0;
#X connect 5 0 7 0;
#X connect 5 1 8 0;
#X connect 5 2 9 0;
#X connect 5 3 10 0;
#X connect 5 4 11 0;
#X connect 5 5 12 0;
#X connect 5 6 13 0;
#X connect 5 7 14 0;
#X connect 6 0 2 0;
#X connect 6 1 3 0;
#X connect 6 2 4 0;
#X connect 6 3 5 0;
#X connect 7 0 1 0;
#X connect 8 0 1 0;
#X connect 9 0 1 0;
#X connect 10 0 1 0;
#X connect 11 0 1 0;
#X connect 12 0 1 0;
#X connect 13 0 1 0;
#X connect 14 0 15 0;
#X connect 14 1 16 0;
#X connect 14 2 17 0;
#X connect 14 3 18 0;
#X connect 15 0 1 0;
#X connect 16 0 1 0;
#X connect 17 0 1 0;
#X connect 18 0 1 0;
#X restore -22 93 pd scales;
#X text -82 -54 comment;
#X obj 65 -5 r \$0scalename;
#X connect 0 0 1 0;
#X connect 0 1 3 0;
#X connect 3 0 2 0;
#X connect 5 0 0 0;
#X restore 129 28 pd scales;
#X floatatom 296 60 5 0 0 0 - - -, f 5;
#X obj 129 62 prepend set, f 12;
#X obj 340 457 cyclone/zl iter 1;
#X obj 365 119 t b f;
#X connect 0 0 18 0;
#X connect 2 0 20 0;
#X connect 3 0 8 0;
#X connect 4 0 15 0;
#X connect 5 0 6 0;
#X connect 5 0 9 1;
#X connect 6 0 7 0;
#X connect 7 0 5 0;
#X connect 8 0 2 0;
#X connect 8 1 5 0;
#X connect 9 0 10 0;
#X connect 10 0 15 0;
#X connect 11 0 5 0;
#X connect 12 0 4 0;
#X connect 12 0 11 0;
#X connect 13 0 3 0;
#X connect 15 0 1 0;
#X connect 16 0 15 0;
#X connect 16 1 21 0;
#X connect 16 2 12 0;
#X connect 17 0 19 0;
#X connect 17 1 18 0;
#X connect 18 0 16 0;
#X connect 19 0 2 0;
#X connect 20 0 9 0;
#X connect 21 0 13 0;
#X connect 21 1 13 1;
#X restore -18 479 pd scalemaker;
#X obj 0 590 prepend set;
#X obj 20 540 zl len;
#X text -243 -3 comment;
#X obj 20 564 s \$0-numnotes;
#X obj 228 329 r \$0-numnotes;
#X text -188 646 scale as semi-tone steps >;
#X msg 464 78 names major-pentatonic minor-pentatonic blues ionian
dorian phygian lydian mixolydian aeolian locrian lydian-dominant diminished
whole-tone altered;
#X obj 574 135 route names;
#X obj 574 281 s \$0scalename;
#X obj 673 197 t b i;
#X obj 673 163 + 1, f 4;
#X floatatom 237 136 4 0 0 0 - #0-to-scale-index #0-from-scale-index
, f 4;
#X obj 713 164 prepend set;
#X floatatom -18 428 5 0 0 0 - - -, f 5;
#X obj 467 33 t b b b;
#X obj 83 175 tgl 15 0 \$0-from-reverse \$0-to-reverse reverse 17 7
0 10 #e8e8e8 #808080 #000000 1 1;
#X msg -155 780 mode reg;
#X msg -95 780 mode rev;
#X obj -155 739 sel 0 1;
#X obj -182 715 t b f;
#X obj 138 395 maxlib/scale 0 1 0 5;
#X obj 132 869 cyclone/zl nth;
#X obj 574 252 cyclone/zl nth;
#X obj -20 830 cyclone/zl;
#X obj 92 261 hsl 128 15 0 1 0 0 empty empty empty -2 -8 0 10 #fcfcfc
#000000 #000000 0 1;
#X obj 133 924 t f f b, f 21;
#X obj 139 423 t f f;
#X text 655 706 👈needed?;
#X obj 863 130 r \$0-from-scale-dropdown;
#X obj 536 48 s \$0-to-scale-index;
#X obj 673 134 r \$0-from-scale-index;
#X obj 863 198 s \$0-to-scale-index;
#X text 667 280 👈 sends to [pd scalemaker];
#X obj 460 150 s \$0-to-scale-dropdown;
#X obj -200 680 r \$0-from-reverse;
#X obj 714 199 s \$0-to-scale-dropdown;
#X obj 330 80 s \$0-to-num-octaves;
#X obj -18 386 r \$0-from-num-octaves;
#X obj -182 842 s \$0-to-num-octaves;
#X obj 50 300 route getscale;
#X obj 60 740 s \$0-scalelist;
#X obj 720 810 r \$0-scalelist;
#X obj 720 860 outlet;
#X obj 40 360 s \$0-getscale;
#X obj 40 330 bng 15 250 50 0 empty empty empty 17 7 0 10 #fcfcfc #000000
#000000;
#X obj 80 610 r \$0-getscale;
#X obj -18 507 t b l l;
#X obj 2452 252 lvn.sbus~ sym fx1 flt 1.24409 flt 0 flt 0 flt 0;
#X obj 1502 92 lvn.sbus~ sym fx1 flt 0.543307 flt 0 flt 0 flt 0;
#X obj 4102 362 lvn.sbus~ sym fx1 flt 0.724409 flt 0 flt 0 flt 0;
#X obj 1097 407 savestate, f 11;
#X text 1187 407 👈 bangs when parent is saved;
#X obj 1160 440 s \$0-save-state;
#X obj 1100 270 r \$0-save-state;
#X obj 1097 327 f;
#X obj 1100 550 s \$0-to-scale-index;
#X obj 1130 530 s \$0-to-reverse;
#X obj 1170 510 s \$0-to-num-octaves;
#X obj 1140 320 r \$0-from-reverse;
#X obj 1130 300 r \$0-from-scale-index;
#X obj 1160 340 r \$0-from-num-octaves;
#X obj 1097 367 pack f f f;
#X obj 1098 472 unpack f f f;
#X connect 1 0 79 0;
#X connect 3 0 54 0;
#X connect 4 0 13 0;
#X connect 5 0 4 0;
#X connect 8 0 60 4;
#X connect 9 0 10 0;
#X connect 10 0 18 0;
#X connect 10 0 24 0;
#X connect 12 0 63 0;
#X connect 12 0 80 0;
#X connect 13 0 12 0;
#X connect 13 1 61 1;
#X connect 14 0 20 0;
#X connect 15 0 16 0;
#X connect 16 0 22 0;
#X connect 18 0 19 0;
#X connect 19 0 14 1;
#X connect 20 0 30 0;
#X connect 20 1 16 0;
#X connect 21 0 31 0;
#X connect 22 0 21 0;
#X connect 22 1 21 1;
#X connect 23 0 27 0;
#X connect 24 0 23 0;
#X connect 26 0 65 0;
#X connect 32 0 29 0;
#X connect 33 0 36 0;
#X connect 36 0 34 0;
#X connect 36 1 35 0;
#X connect 37 0 16 0;
#X connect 39 0 86 0;
#X connect 40 0 12 0;
#X connect 41 0 43 0;
#X connect 44 0 8 0;
#X connect 46 0 47 0;
#X connect 46 0 73 0;
#X connect 47 0 62 0;
#X connect 49 0 62 0;
#X connect 49 1 62 1;
#X connect 50 0 49 0;
#X connect 52 0 75 0;
#X connect 53 0 39 0;
#X connect 54 0 76 0;
#X connect 54 1 46 0;
#X connect 54 2 69 0;
#X connect 56 0 63 0;
#X connect 57 0 63 0;
#X connect 58 0 56 0;
#X connect 58 1 57 0;
#X connect 59 0 78 0;
#X connect 59 1 58 0;
#X connect 60 0 66 0;
#X connect 61 0 26 0;
#X connect 62 0 48 0;
#X connect 63 0 61 0;
#X connect 64 0 79 0;
#X connect 65 0 15 0;
#X connect 65 1 14 0;
#X connect 65 2 19 0;
#X connect 66 0 5 0;
#X connect 66 1 9 0;
#X connect 68 0 71 0;
#X connect 70 0 50 0;
#X connect 70 0 52 0;
#X connect 74 0 59 0;
#X connect 77 0 53 0;
#X connect 79 0 84 0;
#X connect 79 1 60 0;
#X connect 81 0 82 0;
#X connect 84 0 83 0;
#X connect 85 0 12 0;
#X connect 86 0 12 0;
#X connect 86 1 40 0;
#X connect 86 2 41 0;
#X connect 90 0 102 0;
#X connect 90 1 92 0;
#X connect 93 0 94 0;
#X connect 94 0 101 0;
#X connect 98 0 101 1;
#X connect 99 0 94 1;
#X connect 100 0 101 2;
#X connect 101 0 90 0;
#X connect 102 0 95 0;
#X connect 102 1 96 0;
#X connect 102 2 97 0;
#X coords 0 -1 1 1 152 111 2 77 102;
