#N canvas 0 0 1334 668 10;
#X declare -path subpatches;
#X obj 18 -2 cnv 15 180 264 empty empty PST-MULTITOUCH 5 5 0 14 -2689
-262144 0;
#X obj 507 945 outlet;
#X obj 704 3 inlet;
#X obj 159 8 bng 15 250 50 0 \$0-reset \$0-to-reset rst 15 5 0 10 -262144
-1 -1;
#X obj 750 11 loadbang;
#X obj 750 38 delay 500;
#X obj 971 -10 netreceive -u -b;
#X msg 971 -37 listen 8000;
#X obj 971 -64 loadbang;
#X obj 500 272 oscparse;
#X obj 500 299 route list;
#X obj 500 383 route touches;
#X obj 971 23 s pst-osc-in;
#X obj 381 58 r pst-osc-in;
#X obj 704 79 s \$0-to-reset;
#X obj 23 61 hsl 166 10 0 1 0 0 empty \$0-scaled-value0 empty -2 -8
0 10 -1 -262144 -1 97 1;
#X obj 23 45 hsl 166 14 0 1 0 1 \$0ceilings \$0ceilingr ceiling 3 5
0 9 -262144 -4033 -133153 11100 1;
#N canvas 0 0 1350 707 numbercruncher 0;
#X obj 87 10 inlet;
#X obj 425 249 loadbang;
#X obj 134 465 outlet;
#X text 429 89 Sends creation argument list to the GOP;
#X text 710 191 Receives GOP values and sends them on again to the
saver;
#X msg 22 326 symbol flt;
#X obj 43 226 t b f;
#X obj 149 227 t b f;
#X msg 444 323 symbol flt;
#X obj 135 139 s \$0curver;
#X obj 149 196 r \$0curves;
#X obj 241 138 s \$0macr;
#X obj 245 196 r \$0macs;
#X msg 519 327 symbol sym;
#X obj 245 225 t b s;
#X obj 43 140 s \$0floorr;
#X obj 43 197 r \$0floors;
#X msg 600 328 symbol flt;
#X obj 329 220 t b f;
#X obj 329 134 s \$0ceilingr;
#X obj 329 191 r \$0ceilings;
#X obj 87 44 unpack s f s f s s s f s f;
#X obj 431 135 s \$0usbr;
#X obj 424 218 t b f;
#X obj 424 189 r \$0usbs;
#X obj 134 427 pack s f s f s s s f s f;
#X msg 686 329 symbol flt;
#X obj 425 274 t b b b b b;
#X connect 0 0 21 0;
#X connect 1 0 27 0;
#X connect 5 0 25 0;
#X connect 6 0 5 0;
#X connect 6 1 25 1;
#X connect 7 0 5 0;
#X connect 7 1 25 3;
#X connect 8 0 25 2;
#X connect 10 0 7 0;
#X connect 12 0 14 0;
#X connect 13 0 25 4;
#X connect 14 0 5 0;
#X connect 14 1 25 5;
#X connect 16 0 6 0;
#X connect 17 0 25 6;
#X connect 18 0 5 0;
#X connect 18 1 25 7;
#X connect 20 0 18 0;
#X connect 21 1 15 0;
#X connect 21 3 9 0;
#X connect 21 5 11 0;
#X connect 21 7 19 0;
#X connect 21 9 22 0;
#X connect 23 0 5 0;
#X connect 23 1 25 9;
#X connect 24 0 23 0;
#X connect 25 0 2 0;
#X connect 26 0 25 8;
#X connect 27 0 5 0;
#X connect 27 1 8 0;
#X connect 27 2 13 0;
#X connect 27 3 17 0;
#X connect 27 4 26 0;
#X restore 1273 255 pd numbercruncher;
#X obj 1273 376 iemguts/canvasargs;
#X obj 1273 176 iemguts/canvasargs;
#X obj 1180 86 loadbang;
#X obj 1273 224 list trim;
#X obj 1273 201 list;
#X obj 1180 130 t b b, f 16;
#X msg 1180 213 1;
#X obj 1273 331 spigot;
#X text 1273 401 v1.3 \, 2015 Liam Goodacre \, liam.goodacre@gmail.com
;
#X text 1314 324 This spigot is necessary because if one [canvasargs]
object feeds the creation argument straight into another it will cause
PD to crash.;
#X obj 23 228 hsl 166 14 0 1 0 1 \$0curves \$0curver sensitivity 3
5 0 9 -262144 -4033 -133153 8037 1;
#X symbolatom 39 25 19 0 0 0 ID #0macr #0macs, f 19;
#X obj 527 331 r \$0macs;
#X obj 500 356 route;
#X obj 23 205 hsl 166 14 0 1 0 1 \$0floors \$0floorr floor 3 5 0 9
-262144 -4033 -133153 2034 1;
#X obj 1179 43 declare -path subpatches;
#X floatatom 524 594 5 0 0 0 - - -, f 5;
#X obj 519 758 s \$0-scaled-value0;
#X obj 554 849 s \$0-clipped-value0;
#X obj 23 73 hsl 166 10 0 1 0 0 empty \$0-scaled-value1 empty -2 -8
0 10 -1 -262144 -1 55 1;
#X obj 23 85 hsl 166 10 0 1 0 0 empty \$0-scaled-value2 empty -2 -8
0 10 -1 -262144 -1 14 1;
#X obj 23 97 hsl 166 10 0 1 0 0 empty \$0-scaled-value3 empty -2 -8
0 10 -1 -262144 -1 76 1;
#X obj 23 109 hsl 166 10 0 1 0 0 empty \$0-scaled-value4 empty -2 -8
0 10 -1 -262144 -1 93 1;
#X obj 23 121 hsl 166 10 0 1 0 0 empty \$0-scaled-value5 empty -2 -8
0 10 -1 -262144 -1 31 1;
#X obj 23 133 hsl 166 10 0 1 0 0 empty \$0-scaled-value6 empty -2 -8
0 10 -1 -262144 -1 28 1;
#X obj 23 145 hsl 166 10 0 1 0 0 empty \$0-scaled-value7 empty -2 -8
0 10 -1 -262144 -1 101 1;
#X obj 23 157 hsl 166 10 0 1 0 0 empty \$0-scaled-value8 empty -2 -8
0 10 -1 -262144 -1 106 1;
#X obj 23 169 hsl 166 10 0 1 0 0 empty \$0-scaled-value9 empty -2 -8
0 10 -1 -262144 -1 48 1;
#X obj 23 181 hsl 166 10 0 1 0 0 empty \$0-scaled-value10 empty -2
-8 0 10 -1 -262144 -1 188 1;
#X obj 23 193 hsl 166 10 0 1 0 0 empty \$0-scaled-value11 empty -2
-8 0 10 -1 -262144 -1 88 1;
#X obj 708 959 outlet;
#X floatatom 721 595 5 0 0 0 - - -, f 5;
#X obj 756 807 s \$0-scaled-value1;
#X obj 761 930 s \$0-clipped-value1;
#X obj 500 440 unpack 0 0 0 0 0 0 0 0 0 0 0 0, f 375;
#X obj 930 960 outlet;
#X floatatom 943 596 5 0 0 0 - - -, f 5;
#X obj 1127 961 outlet;
#X floatatom 1140 597 5 0 0 0 - - -, f 5;
#X obj 978 834 s \$0-scaled-value2;
#X obj 983 931 s \$0-clipped-value2;
#X obj 1168 839 s \$0-scaled-value3;
#X obj 1180 932 s \$0-clipped-value3;
#X obj 1357 951 outlet;
#X floatatom 1370 587 5 0 0 0 - - -, f 5;
#X obj 1554 952 outlet;
#X floatatom 1567 588 5 0 0 0 - - -, f 5;
#X obj 1766 953 outlet;
#X floatatom 1789 589 5 0 0 0 - - -, f 5;
#X obj 1963 954 outlet;
#X floatatom 1986 590 5 0 0 0 - - -, f 5;
#X obj 1389 821 s \$0-scaled-value4;
#X obj 1410 922 s \$0-clipped-value4;
#X obj 1601 816 s \$0-scaled-value5;
#X obj 1607 923 s \$0-clipped-value5;
#X obj 1814 828 s \$0-scaled-value6;
#X obj 1819 924 s \$0-clipped-value6;
#X obj 2015 820 s \$0-scaled-value7;
#X obj 2016 925 s \$0-clipped-value7;
#X obj 2197 969 outlet;
#X floatatom 2220 605 5 0 0 0 - - -, f 5;
#X obj 2394 970 outlet;
#X floatatom 2417 606 5 0 0 0 - - -, f 5;
#X obj 2616 971 outlet;
#X floatatom 2639 607 5 0 0 0 - - -, f 5;
#X obj 2813 972 outlet;
#X floatatom 2836 608 5 0 0 0 - - -, f 5;
#X obj 2236 841 s \$0-scaled-value8;
#X obj 2250 940 s \$0-clipped-value8;
#X obj 2445 845 s \$0-scaled-value9;
#X obj 2447 941 s \$0-clipped-value9;
#X obj 2641 804 s \$0-scaled-value10;
#X obj 2669 942 s \$0-clipped-value10;
#X obj 2850 842 s \$0-scaled-value11;
#X obj 2866 943 s \$0-clipped-value11;
#X obj 501 787 touch-clip \$0;
#X obj 501 634 touch-scale \$0;
#X obj 503 673 t 1 f;
#X obj 492 718 -;
#X obj 708 733 t 1 f;
#X obj 697 778 -;
#X obj 942 751 t 1 f;
#X obj 931 796 -;
#X obj 1146 762 t 1 f;
#X obj 1135 807 -;
#X obj 1347 749 t 1 f;
#X obj 1336 794 -;
#X obj 1563 730 t 1 f;
#X obj 1552 775 -;
#X obj 1778 744 t 1 f;
#X obj 1767 789 -;
#X obj 1985 750 t 1 f;
#X obj 1974 795 -;
#X obj 2193 758 t 1 f;
#X obj 2182 803 -;
#X obj 2402 752 t 1 f;
#X obj 2391 797 -;
#X obj 2633 732 t 1 f;
#X obj 2622 777 -;
#X obj 2822 768 t 1 f;
#X obj 2811 813 -;
#X obj 698 635 touch-scale \$0;
#X obj 920 636 touch-scale \$0;
#X obj 1117 637 touch-scale \$0;
#X obj 1347 627 touch-scale \$0;
#X obj 1544 628 touch-scale \$0;
#X obj 1766 629 touch-scale \$0;
#X obj 1963 630 touch-scale \$0;
#X obj 2197 645 touch-scale \$0;
#X obj 2394 646 touch-scale \$0;
#X obj 2616 647 touch-scale \$0;
#X obj 2813 648 touch-scale \$0;
#X obj 708 868 touch-clip \$0;
#X obj 930 869 touch-clip \$0;
#X obj 1127 870 touch-clip \$0;
#X obj 1357 860 touch-clip \$0;
#X obj 1554 861 touch-clip \$0;
#X obj 1766 862 touch-clip \$0;
#X obj 1963 863 touch-clip \$0;
#X obj 2197 878 touch-clip \$0;
#X obj 2394 879 touch-clip \$0;
#X obj 2616 880 touch-clip \$0;
#X obj 2813 881 touch-clip \$0;
#X obj 497 61 mrpeach/slipdec 65536;
#X msg 544 -11 close;
#X obj 159 26 tgl 15 0 \$0usbs \$0usbr usb 17 7 0 10 -262144 -1 -1
1 1;
#X obj 490 -73 sel 1 0;
#X obj 499 24 comport 1 115200;
#X floatatom 490 -37 5 0 0 0 - - -, f 5;
#X obj 399 -106 inlet;
#X msg 490 -11 open \$1;
#X floatatom 437 -105 5 0 0 0 - - -, f 5;
#X obj 399 -75 prepend set;
#X text 271 -104 set custom comport >;
#N canvas 776 188 450 323 os_check 0;
#X obj 70 54 operating_system;
#X obj 70 21 loadbang;
#X symbolatom 70 86 10 0 0 0 - - -, f 10;
#X obj 70 110 select linux windows macos;
#X msg 121 140 10;
#X msg 172 141 1;
#X msg 70 142 1;
#X obj 70 214 outlet;
#X connect 0 0 2 0;
#X connect 1 0 0 0;
#X connect 2 0 3 0;
#X connect 3 0 6 0;
#X connect 3 1 4 0;
#X connect 3 2 5 0;
#X connect 4 0 7 0;
#X connect 5 0 7 0;
#X connect 6 0 7 0;
#X restore 438 -140 pd os_check;
#X text 515 -139 < set default port for current operating system;
#X obj 464 231 switch;
#X obj 324 123 + 1;
#X obj 324 95 r \$0usbs;
#X obj 491 -100 r \$0usbs;
#X text 15 246 1;
#X text 30 246 2;
#X text 46 246 3;
#X text 62 246 4;
#X text 78 246 5;
#X text 94 246 6;
#X text 110 246 7;
#X text 126 246 8;
#X text 143 246 9;
#X text 156 246 10;
#X text 172 246 11;
#X text 188 246 12;
#X obj 136 916 r \$0macs;
#X obj 122 945 s;
#X obj 102 835 pack 0 0 0 0 0 0 0 0 0 0 0 0;
#X obj 127 513 r \$0-clipped-value0;
#X obj 143 539 r \$0-clipped-value1;
#X obj 171 564 r \$0-clipped-value2;
#X obj 187 590 r \$0-clipped-value3;
#X obj 218 616 r \$0-clipped-value4;
#X obj 234 642 r \$0-clipped-value5;
#X obj 262 667 r \$0-clipped-value6;
#X obj 278 693 r \$0-clipped-value7;
#X obj 295 721 r \$0-clipped-value8;
#X obj 311 747 r \$0-clipped-value9;
#X obj 339 772 r \$0-clipped-value10;
#X obj 355 798 r \$0-clipped-value11;
#X obj 452 412 t b l;
#X obj 387 495 s \$0listbang;
#X obj 39 745 r \$0listbang;
#X text 134 883 <how to detect change in list?;
#X obj 196 763 funnel;
#X connect 2 0 14 0;
#X connect 4 0 5 0;
#X connect 5 0 14 0;
#X connect 6 0 12 0;
#X connect 7 0 6 0;
#X connect 8 0 7 0;
#X connect 9 0 10 0;
#X connect 10 0 31 0;
#X connect 11 0 185 0;
#X connect 13 0 154 1;
#X connect 17 0 25 0;
#X connect 19 0 22 0;
#X connect 20 0 23 0;
#X connect 21 0 17 0;
#X connect 22 0 21 0;
#X connect 23 0 24 0;
#X connect 23 1 19 0;
#X connect 24 0 25 1;
#X connect 25 0 18 0;
#X connect 30 0 31 1;
#X connect 31 0 11 0;
#X connect 34 0 94 0;
#X connect 49 0 119 0;
#X connect 52 0 94 0;
#X connect 52 1 119 0;
#X connect 52 2 120 0;
#X connect 52 3 121 0;
#X connect 52 4 122 0;
#X connect 52 5 123 0;
#X connect 52 6 124 0;
#X connect 52 7 125 0;
#X connect 52 8 126 0;
#X connect 52 9 127 0;
#X connect 52 10 128 0;
#X connect 52 11 129 0;
#X connect 54 0 120 0;
#X connect 56 0 121 0;
#X connect 62 0 122 0;
#X connect 64 0 123 0;
#X connect 66 0 124 0;
#X connect 68 0 125 0;
#X connect 78 0 126 0;
#X connect 80 0 127 0;
#X connect 82 0 128 0;
#X connect 84 0 129 0;
#X connect 93 0 1 0;
#X connect 93 0 36 0;
#X connect 94 0 95 0;
#X connect 95 0 96 0;
#X connect 95 1 96 1;
#X connect 96 0 35 0;
#X connect 96 0 93 0;
#X connect 97 0 98 0;
#X connect 97 1 98 1;
#X connect 98 0 50 0;
#X connect 98 0 130 0;
#X connect 99 0 100 0;
#X connect 99 1 100 1;
#X connect 100 0 57 0;
#X connect 100 0 131 0;
#X connect 101 0 102 0;
#X connect 101 1 102 1;
#X connect 102 0 59 0;
#X connect 102 0 132 0;
#X connect 103 0 104 0;
#X connect 103 1 104 1;
#X connect 104 0 69 0;
#X connect 104 0 133 0;
#X connect 105 0 106 0;
#X connect 105 1 106 1;
#X connect 106 0 71 0;
#X connect 106 0 134 0;
#X connect 107 0 108 0;
#X connect 107 1 108 1;
#X connect 108 0 73 0;
#X connect 108 0 135 0;
#X connect 109 0 110 0;
#X connect 109 1 110 1;
#X connect 110 0 75 0;
#X connect 110 0 136 0;
#X connect 111 0 112 0;
#X connect 111 1 112 1;
#X connect 112 0 85 0;
#X connect 112 0 137 0;
#X connect 113 0 114 0;
#X connect 113 1 114 1;
#X connect 114 0 87 0;
#X connect 114 0 138 0;
#X connect 115 0 116 0;
#X connect 115 1 116 1;
#X connect 116 0 89 0;
#X connect 116 0 139 0;
#X connect 117 0 118 0;
#X connect 117 1 118 1;
#X connect 118 0 91 0;
#X connect 118 0 140 0;
#X connect 119 0 97 0;
#X connect 120 0 99 0;
#X connect 121 0 101 0;
#X connect 122 0 103 0;
#X connect 123 0 105 0;
#X connect 124 0 107 0;
#X connect 125 0 109 0;
#X connect 126 0 111 0;
#X connect 127 0 113 0;
#X connect 128 0 115 0;
#X connect 129 0 117 0;
#X connect 130 0 48 0;
#X connect 130 0 51 0;
#X connect 131 0 53 0;
#X connect 131 0 58 0;
#X connect 132 0 55 0;
#X connect 132 0 60 0;
#X connect 133 0 61 0;
#X connect 133 0 70 0;
#X connect 134 0 63 0;
#X connect 134 0 72 0;
#X connect 135 0 65 0;
#X connect 135 0 74 0;
#X connect 136 0 67 0;
#X connect 136 0 76 0;
#X connect 137 0 77 0;
#X connect 137 0 86 0;
#X connect 138 0 79 0;
#X connect 138 0 88 0;
#X connect 139 0 81 0;
#X connect 139 0 90 0;
#X connect 140 0 83 0;
#X connect 140 0 92 0;
#X connect 141 0 154 2;
#X connect 142 0 145 0;
#X connect 144 0 146 0;
#X connect 144 1 142 0;
#X connect 145 0 141 0;
#X connect 146 0 148 0;
#X connect 147 0 150 0;
#X connect 148 0 145 0;
#X connect 149 0 150 0;
#X connect 150 0 146 0;
#X connect 152 0 149 0;
#X connect 154 0 9 0;
#X connect 155 0 154 0;
#X connect 156 0 155 0;
#X connect 157 0 144 0;
#X connect 170 0 171 1;
#X connect 185 0 186 0;
#X connect 185 1 52 0;
#X coords 0 -1 1 1 186 270 2 15 -5;
