#N canvas 334 0 665 668 10;
#X obj 266 729 outlet;
#X obj 348 283 prepend set;
#X obj 308 95 inlet;
#X obj 383 95 inlet;
#X floatatom 53 235 11 0 0 0 - #0-scaled-value -, f 11;
#X obj 269 666 s \$0-scaled-value;
#X obj 308 191 s \$0-inlet2;
#X obj 383 191 s \$0-inlet3;
#X obj 232 191 s \$0-inlet1;
#X obj 230 229 r \$0-inlet1;
#X obj 53 213 hsl 80 9 0 1 0 0 empty \$0-scaled-value empty -2 -8 0
10 -1 -262144 -1 0 1;
#X obj 487 231 r \$0-scaled-value;
#X obj 266 697 r \$0-scaled-value;
#X obj 382 728 outlet;
#X obj 123 236 tgl 15 0 empty \$0-trigger-out empty 17 7 0 10 -262144
-1 -1 0 1;
#X obj 487 260 hysteresis 0.05;
#X obj 487 349 > 0.5;
#X obj 487 378 s \$0-trigger-out;
#X obj 53 218 hsl 80 15 0 1 0 1 \$0-threshold \$0-inlet3 threshold
3 5 0 9 -262144 -2112 -1 3900 1;
#X floatatom 514 317 5 0 0 0 - - -, f 5;
#X obj 514 291 r \$0-threshold;
#X floatatom 63 323 3 0 1 1 curve - #0-exponent, f 3;
#X obj 320 598 r \$0-exponent;
#N canvas 196 104 450 499 (subpatch) 0;
#X obj 183 22 inlet;
#X obj 175 152 -;
#X obj 175 187 abs;
#X obj 173 275 bng 15 250 50 0 empty empty empty 17 7 0 10 -262144
-1 -1;
#X obj 221 331 float;
#X obj 183 60 t f f b f, f 11;
#X obj 220 387 outlet;
#X obj 194 115 float;
#X obj 176 226 < 5;
#X connect 0 0 5 0;
#X connect 1 0 2 0;
#X connect 2 0 8 0;
#X connect 3 0 4 0;
#X connect 4 0 6 0;
#X connect 5 0 7 1;
#X connect 5 1 1 0;
#X connect 5 2 7 0;
#X connect 5 3 4 1;
#X connect 7 0 1 1;
#X connect 8 0 3 0;
#X restore 232 127 pd;
#X obj 232 159 mavg 20;
#X obj 230 595 moses 0;
#X obj 269 638 pow 0.8, f 9;
#X obj 275 441 min;
#X floatatom 306 442 5 0 0 0 - - -, f 5;
#X obj 275 409 t f b;
#X floatatom 396 443 5 0 0 0 - - -, f 5;
#X obj 365 410 t f b;
#X obj 365 442 max;
#X obj 53 177 bng 15 250 50 0 \$0-reset \$0-inlet2 reset 16 5 0 10
-262144 -1 -1;
#X obj 403 309 r \$0-reset;
#X obj 396 465 change;
#X obj 306 464 change;
#X obj 230 541 * -1;
#X obj 230 568 + 1;
#X obj 319 133 loadbang;
#X msg 404 344 100;
#X obj 319 160 delay 500;
#X obj 382 698 r \$0-trigger-out;
#X obj 230 508 maxlib/scale 0 1024 0 1 0, f 64;
#X obj 231 50 unpack 0 0 0 0 0 0 0 0, f 52;
#X obj 231 -85 netreceive -u -b;
#X msg 231 -112 listen 8000;
#X obj 231 -139 loadbang;
#X obj 231 -58 oscparse;
#X obj 231 -31 route list;
#X obj 231 -4 route \$1;
#X obj 231 23 route touches;
#X obj 351 -62 s pst-osc-in;
#X obj 351 -40 r pst-osc-in;
#X connect 1 0 40 0;
#X connect 2 0 6 0;
#X connect 3 0 7 0;
#X connect 9 0 1 0;
#X connect 9 0 29 0;
#X connect 9 0 31 0;
#X connect 9 0 43 0;
#X connect 11 0 15 0;
#X connect 12 0 0 0;
#X connect 15 0 16 0;
#X connect 16 0 17 0;
#X connect 19 0 16 1;
#X connect 20 0 19 0;
#X connect 22 0 26 1;
#X connect 23 0 24 0;
#X connect 24 0 8 0;
#X connect 25 1 26 0;
#X connect 26 0 5 0;
#X connect 27 0 28 0;
#X connect 28 0 27 1;
#X connect 28 0 36 0;
#X connect 29 0 27 0;
#X connect 29 1 28 0;
#X connect 30 0 32 1;
#X connect 30 0 35 0;
#X connect 31 0 32 0;
#X connect 31 1 30 0;
#X connect 32 0 30 0;
#X connect 34 0 40 0;
#X connect 35 0 43 2;
#X connect 36 0 43 1;
#X connect 37 0 38 0;
#X connect 38 0 25 0;
#X connect 39 0 41 0;
#X connect 40 0 28 0;
#X connect 40 0 30 0;
#X connect 41 0 6 0;
#X connect 42 0 13 0;
#X connect 43 0 37 0;
#X connect 44 0 23 0;
#X connect 45 0 52 0;
#X connect 46 0 45 0;
#X connect 47 0 46 0;
#X connect 48 0 49 0;
#X connect 49 0 50 0;
#X connect 50 0 51 0;
#X connect 51 0 44 0;
#X connect 53 0 48 0;
#X coords 0 -1 1 1 98 108 1 48 153;
