#N canvas -8 -8 1350 684 10;
#X obj 297 250 inlet;
#X obj 366 602 sendOSC;
#X msg 423 567 connect 255.255.255.255 9000;
#X obj 423 540 loadbang;
#X obj 287 189 tgl 15 0 \$0throttles \$0throttler throttle 17 5 0 10
-262144 -1 -1 0 1;
#X obj 299 288 prepend send /pst/\$1;
#X obj 420 483 maxlib/speedlim;
#X obj 383 435 gate 2, f 24;
#X obj 383 404 + 1;
#N canvas 678 128 645 439 numbercruncher 0;
#X obj 87 10 inlet;
#X obj 325 249 loadbang;
#X obj 134 415 outlet;
#X text 227 82 Sends creation argument list to the GOP;
#X text 292 214 Receives GOP values and sends them on again to the
saver;
#X obj 325 274 t b b b;
#X obj 245 225 t b f;
#X obj 149 227 t b f;
#X msg 344 323 symbol flt;
#X obj 149 192 r \$0scaleindexs;
#X obj 135 139 s \$0scaleindexr;
#X msg 364 300 symbol flt;
#X obj 241 138 s \$0octaver;
#X obj 245 192 r \$0octaves;
#X obj 134 377 pack s s s f s f;
#X obj 26 107 s \$0throttler;
#X obj 87 44 unpack s f s f s f;
#X msg 43 321 symbol flt;
#X obj 43 226 t b f;
#X obj 43 197 r \$0throttles;
#X connect 0 0 16 0;
#X connect 1 0 5 0;
#X connect 5 0 17 0;
#X connect 5 1 8 0;
#X connect 5 2 11 0;
#X connect 6 0 17 0;
#X connect 6 1 14 5;
#X connect 7 0 17 0;
#X connect 7 1 14 3;
#X connect 8 0 14 2;
#X connect 9 0 7 0;
#X connect 11 0 14 4;
#X connect 13 0 6 0;
#X connect 14 0 2 0;
#X connect 16 1 15 0;
#X connect 16 3 10 0;
#X connect 16 5 12 0;
#X connect 17 0 14 0;
#X connect 18 0 17 0;
#X connect 18 1 14 1;
#X connect 19 0 18 0;
#X restore 825 337 pd numbercruncher;
#X obj 825 458 iemguts/canvasargs;
#X obj 825 258 iemguts/canvasargs;
#X obj 732 168 loadbang;
#X obj 825 306 list trim;
#X obj 825 283 list;
#X obj 732 212 t b b, f 16;
#X msg 732 295 1;
#X obj 825 413 spigot;
#X text 825 483 v1.3 \, 2015 Liam Goodacre \, liam.goodacre@gmail.com
;
#X text 866 406 This spigot is necessary because if one [canvasargs]
object feeds the creation argument straight into another it will cause
PD to crash.;
#X obj 805 168 bng 15 250 50 0 empty empty empty 17 7 0 10 -262144
-1 -1;
#X obj 383 368 r \$0throttles;
#X connect 0 0 5 0;
#X connect 2 0 1 0;
#X connect 3 0 2 0;
#X connect 5 0 1 0;
#X connect 5 0 7 1;
#X connect 6 0 1 0;
#X connect 7 0 1 0;
#X connect 7 1 6 0;
#X connect 8 0 7 0;
#X connect 9 0 17 0;
#X connect 11 0 14 0;
#X connect 12 0 15 0;
#X connect 13 0 9 0;
#X connect 14 0 13 0;
#X connect 15 0 16 0;
#X connect 15 1 11 0;
#X connect 16 0 17 1;
#X connect 17 0 10 0;
#X connect 20 0 15 0;
#X connect 21 0 8 0;
#X coords 0 -1 1 1 118 40 1 285 167;
