#N canvas 309 66 665 631 10;
#X declare -path subpatches;
#X obj 18 -2 cnv 15 180 264 empty empty PST-MULTITOUCH 5 5 0 14 -2689
-262144 0;
#X obj 444 861 outlet;
#X obj 647 -14 inlet;
#X floatatom 666 1115 10 0 0 0 - #0-clipped-value -, f 10;
#X obj 181 1 bng 15 250 50 0 \$0-reset \$0-to-reset rst -20 5 0 10
-262144 -1 -1;
#X obj 693 -6 loadbang;
#X obj 693 21 delay 500;
#X obj 914 -27 netreceive -u -b;
#X msg 914 -54 listen 8000;
#X obj 914 -81 loadbang;
#X obj 443 255 oscparse;
#X obj 443 282 route list;
#X obj 443 366 route touches;
#X obj 914 6 s pst-osc-in;
#X obj 324 41 r pst-osc-in;
#X obj 647 62 s \$0-to-reset;
#X obj 23 61 hsl 127 10 0 1 0 0 empty \$0-scaled-value0 empty -2 -8
0 10 -1 -262144 -1 1050 1;
#X obj 23 45 hsl 127 14 0 1 0 1 \$0ceilings \$0ceilingr ceiling 3 5
0 9 -262144 -4033 -133153 3000 1;
#N canvas 0 0 1350 707 numbercruncher 0;
#X obj 87 10 inlet;
#X obj 425 249 loadbang;
#X obj 134 465 outlet;
#X text 429 89 Sends creation argument list to the GOP;
#X text 710 191 Receives GOP values and sends them on again to the
saver;
#X msg 22 326 symbol flt;
#X obj 43 226 t b f;
#X obj 149 227 t b f;
#X msg 444 323 symbol flt;
#X obj 135 139 s \$0curver;
#X obj 149 196 r \$0curves;
#X obj 241 138 s \$0macr;
#X obj 245 196 r \$0macs;
#X msg 519 327 symbol sym;
#X obj 245 225 t b s;
#X obj 43 140 s \$0floorr;
#X obj 43 197 r \$0floors;
#X msg 600 328 symbol flt;
#X obj 329 220 t b f;
#X obj 329 134 s \$0ceilingr;
#X obj 329 191 r \$0ceilings;
#X obj 87 44 unpack s f s f s s s f s f;
#X obj 431 135 s \$0usbr;
#X obj 424 218 t b f;
#X obj 424 189 r \$0usbs;
#X obj 134 427 pack s f s f s s s f s f;
#X msg 686 329 symbol flt;
#X obj 425 274 t b b b b b;
#X connect 0 0 21 0;
#X connect 1 0 27 0;
#X connect 5 0 25 0;
#X connect 6 0 5 0;
#X connect 6 1 25 1;
#X connect 7 0 5 0;
#X connect 7 1 25 3;
#X connect 8 0 25 2;
#X connect 10 0 7 0;
#X connect 12 0 14 0;
#X connect 13 0 25 4;
#X connect 14 0 5 0;
#X connect 14 1 25 5;
#X connect 16 0 6 0;
#X connect 17 0 25 6;
#X connect 18 0 5 0;
#X connect 18 1 25 7;
#X connect 20 0 18 0;
#X connect 21 1 15 0;
#X connect 21 3 9 0;
#X connect 21 5 11 0;
#X connect 21 7 19 0;
#X connect 21 9 22 0;
#X connect 23 0 5 0;
#X connect 23 1 25 9;
#X connect 24 0 23 0;
#X connect 25 0 2 0;
#X connect 26 0 25 8;
#X connect 27 0 5 0;
#X connect 27 1 8 0;
#X connect 27 2 13 0;
#X connect 27 3 17 0;
#X connect 27 4 26 0;
#X restore 1216 238 pd numbercruncher;
#X obj 1216 359 iemguts/canvasargs;
#X obj 1216 159 iemguts/canvasargs;
#X obj 1123 69 loadbang;
#X obj 1216 207 list trim;
#X obj 1216 184 list;
#X obj 1123 113 t b b, f 16;
#X msg 1123 196 1;
#X obj 1216 314 spigot;
#X text 1216 384 v1.3 \, 2015 Liam Goodacre \, liam.goodacre@gmail.com
;
#X text 1257 307 This spigot is necessary because if one [canvasargs]
object feeds the creation argument straight into another it will cause
PD to crash.;
#X obj 23 228 hsl 127 14 0 1 0 1 \$0curves \$0curver sensitivity 3
5 0 9 -262144 -4033 -133153 5550 1;
#X symbolatom 39 25 19 0 0 0 ID #0macr #0macs, f 19;
#X obj 470 314 r \$0macs;
#X obj 443 339 route;
#X obj 23 205 hsl 127 14 0 1 0 1 \$0floors \$0floorr floor 3 5 0 9
-262144 -4033 -133153 1050 1;
#X obj 1122 26 declare -path subpatches;
#X floatatom 467 577 5 0 0 0 - - -, f 5;
#X obj 462 741 s \$0-scaled-value0;
#X obj 497 832 s \$0-clipped-value0;
#X obj 23 73 hsl 127 10 0 1 0 0 empty \$0-scaled-value1 empty -2 -8
0 10 -1 -262144 -1 109 1;
#X obj 23 85 hsl 127 10 0 1 0 0 empty \$0-scaled-value2 empty -2 -8
0 10 -1 -262144 -1 178 1;
#X obj 23 97 hsl 127 10 0 1 0 0 empty \$0-scaled-value3 empty -2 -8
0 10 -1 -262144 -1 417 1;
#X obj 23 109 hsl 127 10 0 1 0 0 empty \$0-scaled-value4 empty -2 -8
0 10 -1 -262144 -1 340 1;
#X obj 23 121 hsl 127 10 0 1 0 0 empty \$0-scaled-value5 empty -2 -8
0 10 -1 -262144 -1 353 1;
#X obj 23 133 hsl 127 10 0 1 0 0 empty \$0-scaled-value6 empty -2 -8
0 10 -1 -262144 -1 126 1;
#X obj 23 145 hsl 127 10 0 1 0 0 empty \$0-scaled-value7 empty -2 -8
0 10 -1 -262144 -1 0 1;
#X obj 23 157 hsl 127 10 0 1 0 0 empty \$0-scaled-value8 empty -2 -8
0 10 -1 -262144 -1 720 1;
#X obj 23 169 hsl 127 10 0 1 0 0 empty \$0-scaled-value9 empty -2 -8
0 10 -1 -262144 -1 131 1;
#X obj 23 181 hsl 127 10 0 1 0 0 empty \$0-scaled-value10 empty -2
-8 0 10 -1 -262144 -1 752 1;
#X obj 23 193 hsl 127 10 0 1 0 0 empty \$0-scaled-value11 empty -2
-8 0 10 -1 -262144 -1 552 1;
#X obj 651 942 outlet;
#X floatatom 664 578 5 0 0 0 - - -, f 5;
#X obj 699 790 s \$0-scaled-value1;
#X obj 704 913 s \$0-clipped-value1;
#X obj 443 423 unpack 0 0 0 0 0 0 0 0 0 0 0 0, f 375;
#X obj 873 943 outlet;
#X floatatom 886 579 5 0 0 0 - - -, f 5;
#X obj 1070 944 outlet;
#X floatatom 1083 580 5 0 0 0 - - -, f 5;
#X obj 921 817 s \$0-scaled-value2;
#X obj 926 914 s \$0-clipped-value2;
#X obj 1111 822 s \$0-scaled-value3;
#X obj 1123 915 s \$0-clipped-value3;
#X obj 1300 934 outlet;
#X floatatom 1313 570 5 0 0 0 - - -, f 5;
#X obj 1497 935 outlet;
#X floatatom 1510 571 5 0 0 0 - - -, f 5;
#X obj 1709 936 outlet;
#X floatatom 1732 572 5 0 0 0 - - -, f 5;
#X obj 1906 937 outlet;
#X floatatom 1929 573 5 0 0 0 - - -, f 5;
#X obj 1332 804 s \$0-scaled-value4;
#X obj 1353 905 s \$0-clipped-value4;
#X obj 1544 799 s \$0-scaled-value5;
#X obj 1550 906 s \$0-clipped-value5;
#X obj 1757 811 s \$0-scaled-value6;
#X obj 1762 907 s \$0-clipped-value6;
#X obj 1958 803 s \$0-scaled-value7;
#X obj 1959 908 s \$0-clipped-value7;
#X obj 2140 952 outlet;
#X floatatom 2163 588 5 0 0 0 - - -, f 5;
#X obj 2337 953 outlet;
#X floatatom 2360 589 5 0 0 0 - - -, f 5;
#X obj 2559 954 outlet;
#X floatatom 2582 590 5 0 0 0 - - -, f 5;
#X obj 2756 955 outlet;
#X floatatom 2779 591 5 0 0 0 - - -, f 5;
#X obj 2179 824 s \$0-scaled-value8;
#X obj 2193 923 s \$0-clipped-value8;
#X obj 2388 828 s \$0-scaled-value9;
#X obj 2390 924 s \$0-clipped-value9;
#X obj 2584 787 s \$0-scaled-value10;
#X obj 2612 925 s \$0-clipped-value10;
#X obj 2793 825 s \$0-scaled-value11;
#X obj 2809 926 s \$0-clipped-value11;
#X obj 444 770 touch-clip \$0;
#X obj 444 617 touch-scale \$0;
#X obj 446 656 t 1 f;
#X obj 435 701 -;
#X obj 651 716 t 1 f;
#X obj 640 761 -;
#X obj 885 734 t 1 f;
#X obj 874 779 -;
#X obj 1089 745 t 1 f;
#X obj 1078 790 -;
#X obj 1290 732 t 1 f;
#X obj 1279 777 -;
#X obj 1506 713 t 1 f;
#X obj 1495 758 -;
#X obj 1721 727 t 1 f;
#X obj 1710 772 -;
#X obj 1928 733 t 1 f;
#X obj 1917 778 -;
#X obj 2136 741 t 1 f;
#X obj 2125 786 -;
#X obj 2345 735 t 1 f;
#X obj 2334 780 -;
#X obj 2576 715 t 1 f;
#X obj 2565 760 -;
#X obj 2765 751 t 1 f;
#X obj 2754 796 -;
#X obj 641 618 touch-scale \$0;
#X obj 863 619 touch-scale \$0;
#X obj 1060 620 touch-scale \$0;
#X obj 1290 610 touch-scale \$0;
#X obj 1487 611 touch-scale \$0;
#X obj 1709 612 touch-scale \$0;
#X obj 1906 613 touch-scale \$0;
#X obj 2140 628 touch-scale \$0;
#X obj 2337 629 touch-scale \$0;
#X obj 2559 630 touch-scale \$0;
#X obj 2756 631 touch-scale \$0;
#X obj 651 851 touch-clip \$0;
#X obj 873 852 touch-clip \$0;
#X obj 1070 853 touch-clip \$0;
#X obj 1300 843 touch-clip \$0;
#X obj 1497 844 touch-clip \$0;
#X obj 1709 845 touch-clip \$0;
#X obj 1906 846 touch-clip \$0;
#X obj 2140 861 touch-clip \$0;
#X obj 2337 862 touch-clip \$0;
#X obj 2559 863 touch-clip \$0;
#X obj 2756 864 touch-clip \$0;
#X obj 440 44 mrpeach/slipdec 65536;
#X msg 487 -28 close;
#X obj 159 26 tgl 15 0 \$0usbs \$0usbr usb 17 7 0 10 -262144 -1 -1
0 1;
#X obj 433 -90 sel 1 0;
#X obj 442 7 comport 1 115200;
#X floatatom 433 -54 5 0 0 0 - - -, f 5;
#X obj 342 -123 inlet;
#X msg 433 -28 open \$1;
#X floatatom 380 -122 5 0 0 0 - - -, f 5;
#X obj 342 -92 prepend set;
#X text 214 -121 set custom comport >;
#N canvas 776 188 450 323 os_check 0;
#X obj 70 54 operating_system;
#X obj 70 21 loadbang;
#X symbolatom 70 86 10 0 0 0 - - -, f 10;
#X obj 70 110 select linux windows macos;
#X msg 121 140 10;
#X msg 172 141 1;
#X msg 70 142 1;
#X obj 70 214 outlet;
#X connect 0 0 2 0;
#X connect 1 0 0 0;
#X connect 2 0 3 0;
#X connect 3 0 6 0;
#X connect 3 1 4 0;
#X connect 3 2 5 0;
#X connect 4 0 7 0;
#X connect 5 0 7 0;
#X connect 6 0 7 0;
#X restore 381 -157 pd os_check;
#X text 458 -156 < set default port for current operating system;
#X obj 407 214 switch;
#X obj 267 106 + 1;
#X obj 267 78 r \$0usbs;
#X obj 434 -117 r \$0usbs;
#X text 15 246 1;
#X text 30 246 2;
#X text 46 246 3;
#X text 62 246 4;
#X text 78 246 5;
#X text 94 246 6;
#X text 110 246 7;
#X text 126 246 8;
#X text 143 246 9;
#X text 156 246 10;
#X text 172 246 11;
#X text 188 246 12;
#X connect 2 0 15 0;
#X connect 5 0 6 0;
#X connect 6 0 15 0;
#X connect 7 0 13 0;
#X connect 8 0 7 0;
#X connect 9 0 8 0;
#X connect 10 0 11 0;
#X connect 11 0 32 0;
#X connect 12 0 53 0;
#X connect 14 0 155 1;
#X connect 18 0 26 0;
#X connect 20 0 23 0;
#X connect 21 0 24 0;
#X connect 22 0 18 0;
#X connect 23 0 22 0;
#X connect 24 0 25 0;
#X connect 24 1 20 0;
#X connect 25 0 26 1;
#X connect 26 0 19 0;
#X connect 31 0 32 1;
#X connect 32 0 12 0;
#X connect 35 0 95 0;
#X connect 50 0 120 0;
#X connect 53 0 95 0;
#X connect 53 1 120 0;
#X connect 53 2 121 0;
#X connect 53 3 122 0;
#X connect 53 4 123 0;
#X connect 53 5 124 0;
#X connect 53 6 125 0;
#X connect 53 7 126 0;
#X connect 53 8 127 0;
#X connect 53 9 128 0;
#X connect 53 10 129 0;
#X connect 53 11 130 0;
#X connect 55 0 121 0;
#X connect 57 0 122 0;
#X connect 63 0 123 0;
#X connect 65 0 124 0;
#X connect 67 0 125 0;
#X connect 69 0 126 0;
#X connect 79 0 127 0;
#X connect 81 0 128 0;
#X connect 83 0 129 0;
#X connect 85 0 130 0;
#X connect 94 0 1 0;
#X connect 94 0 37 0;
#X connect 95 0 96 0;
#X connect 96 0 97 0;
#X connect 96 1 97 1;
#X connect 97 0 36 0;
#X connect 97 0 94 0;
#X connect 98 0 99 0;
#X connect 98 1 99 1;
#X connect 99 0 51 0;
#X connect 99 0 131 0;
#X connect 100 0 101 0;
#X connect 100 1 101 1;
#X connect 101 0 58 0;
#X connect 101 0 132 0;
#X connect 102 0 103 0;
#X connect 102 1 103 1;
#X connect 103 0 60 0;
#X connect 103 0 133 0;
#X connect 104 0 105 0;
#X connect 104 1 105 1;
#X connect 105 0 70 0;
#X connect 105 0 134 0;
#X connect 106 0 107 0;
#X connect 106 1 107 1;
#X connect 107 0 72 0;
#X connect 107 0 135 0;
#X connect 108 0 109 0;
#X connect 108 1 109 1;
#X connect 109 0 74 0;
#X connect 109 0 136 0;
#X connect 110 0 111 0;
#X connect 110 1 111 1;
#X connect 111 0 76 0;
#X connect 111 0 137 0;
#X connect 112 0 113 0;
#X connect 112 1 113 1;
#X connect 113 0 86 0;
#X connect 113 0 138 0;
#X connect 114 0 115 0;
#X connect 114 1 115 1;
#X connect 115 0 88 0;
#X connect 115 0 139 0;
#X connect 116 0 117 0;
#X connect 116 1 117 1;
#X connect 117 0 90 0;
#X connect 117 0 140 0;
#X connect 118 0 119 0;
#X connect 118 1 119 1;
#X connect 119 0 92 0;
#X connect 119 0 141 0;
#X connect 120 0 98 0;
#X connect 121 0 100 0;
#X connect 122 0 102 0;
#X connect 123 0 104 0;
#X connect 124 0 106 0;
#X connect 125 0 108 0;
#X connect 126 0 110 0;
#X connect 127 0 112 0;
#X connect 128 0 114 0;
#X connect 129 0 116 0;
#X connect 130 0 118 0;
#X connect 131 0 49 0;
#X connect 131 0 52 0;
#X connect 132 0 54 0;
#X connect 132 0 59 0;
#X connect 133 0 56 0;
#X connect 133 0 61 0;
#X connect 134 0 62 0;
#X connect 134 0 71 0;
#X connect 135 0 64 0;
#X connect 135 0 73 0;
#X connect 136 0 66 0;
#X connect 136 0 75 0;
#X connect 137 0 68 0;
#X connect 137 0 77 0;
#X connect 138 0 78 0;
#X connect 138 0 87 0;
#X connect 139 0 80 0;
#X connect 139 0 89 0;
#X connect 140 0 82 0;
#X connect 140 0 91 0;
#X connect 141 0 84 0;
#X connect 141 0 93 0;
#X connect 142 0 155 2;
#X connect 143 0 146 0;
#X connect 145 0 147 0;
#X connect 145 1 143 0;
#X connect 146 0 142 0;
#X connect 147 0 149 0;
#X connect 148 0 151 0;
#X connect 149 0 146 0;
#X connect 150 0 151 0;
#X connect 151 0 147 0;
#X connect 153 0 150 0;
#X connect 155 0 10 0;
#X connect 156 0 155 0;
#X connect 157 0 156 0;
#X connect 158 0 145 0;
#X coords 0 -1 1 1 186 270 2 15 -5;
