#N canvas -7 0 768 778 10;
#X declare -path subpatches;
#X obj 18 -2 cnv 15 180 220 empty empty PST-MULTITOUCH-USB 5 5 0 14
#00a800 #fcfcfc 0;
#X obj 507 945 outlet;
#X obj 704 3 inlet;
#X obj 160 20 bng 15 250 50 0 \$0-reset \$0-to-reset rst 15 5 0 10
#fcfcfc #000000 #000000;
#X obj 750 11 loadbang;
#X obj 750 38 delay 500;
#X obj 500 272 oscparse;
#X obj 500 299 route list;
#X obj 500 383 route touches;
#X obj 704 79 s \$0-to-reset;
#X obj 23 61 hsl 166 10 0 1 0 0 empty \$0-scaled-value0 empty -2 -8
0 10 #000000 #fcfcfc #000000 0 1;
#X obj 23 45 hsl 166 14 0 1 0 1 \$0ceilings \$0ceilingr ceiling 3 5
0 9 #fcfcfc #00fc00 #808080 12133 1;
#X obj 23 181 hsl 166 14 0 1 0 1 \$0curves \$0curver sensitivity 3
5 0 9 #fcfcfc #00fc00 #808080 14451 1;
#X obj 23 158 hsl 166 14 0 1 0 1 \$0floors \$0floorr floor 3 5 0 9
#fcfcfc #00fc00 #808080 3200 1;
#X obj 1179 43 declare -path subpatches;
#X floatatom 524 594 5 0 0 0 - - -, f 5;
#X obj 519 758 s \$0-scaled-value0;
#X obj 554 849 s \$0-clipped-value0;
#X obj 23 73 hsl 166 10 0 1 0 0 empty \$0-scaled-value1 empty -2 -8
0 10 #000000 #fcfcfc #000000 0 1;
#X obj 23 85 hsl 166 10 0 1 0 0 empty \$0-scaled-value2 empty -2 -8
0 10 #000000 #fcfcfc #000000 0 1;
#X obj 23 97 hsl 166 10 0 1 0 0 empty \$0-scaled-value3 empty -2 -8
0 10 #000000 #fcfcfc #000000 0 1;
#X obj 23 109 hsl 166 10 0 1 0 0 empty \$0-scaled-value4 empty -2 -8
0 10 #000000 #fcfcfc #000000 0 1;
#X obj 23 121 hsl 166 10 0 1 0 0 empty \$0-scaled-value5 empty -2 -8
0 10 #000000 #fcfcfc #000000 0 1;
#X obj 23 133 hsl 166 10 0 1 0 0 empty \$0-scaled-value6 empty -2 -8
0 10 #000000 #fcfcfc #000000 0 1;
#X obj 23 145 hsl 166 10 0 1 0 0 empty \$0-scaled-value7 empty -2 -8
0 10 #000000 #fcfcfc #000000 0 1;
#X obj 708 959 outlet;
#X floatatom 721 595 5 0 0 0 - - -, f 5;
#X obj 756 807 s \$0-scaled-value1;
#X obj 761 930 s \$0-clipped-value1;
#X obj 930 960 outlet;
#X floatatom 943 596 5 0 0 0 - - -, f 5;
#X obj 1127 961 outlet;
#X floatatom 1140 597 5 0 0 0 - - -, f 5;
#X obj 978 834 s \$0-scaled-value2;
#X obj 983 931 s \$0-clipped-value2;
#X obj 1168 839 s \$0-scaled-value3;
#X obj 1180 932 s \$0-clipped-value3;
#X obj 1357 951 outlet;
#X floatatom 1370 587 5 0 0 0 - - -, f 5;
#X obj 1554 952 outlet;
#X floatatom 1567 588 5 0 0 0 - - -, f 5;
#X obj 1766 953 outlet;
#X floatatom 1789 589 5 0 0 0 - - -, f 5;
#X obj 1963 954 outlet;
#X floatatom 1986 590 5 0 0 0 - - -, f 5;
#X obj 1389 821 s \$0-scaled-value4;
#X obj 1410 922 s \$0-clipped-value4;
#X obj 1601 816 s \$0-scaled-value5;
#X obj 1607 923 s \$0-clipped-value5;
#X obj 1814 828 s \$0-scaled-value6;
#X obj 1819 924 s \$0-clipped-value6;
#X obj 2015 820 s \$0-scaled-value7;
#X obj 2016 925 s \$0-clipped-value7;
#X obj 501 787 touch-clip \$0;
#X obj 501 634 touch-scale \$0;
#X obj 503 673 t 1 f;
#X obj 492 718 -;
#X obj 708 733 t 1 f;
#X obj 697 778 -;
#X obj 942 751 t 1 f;
#X obj 931 796 -;
#X obj 1146 762 t 1 f;
#X obj 1135 807 -;
#X obj 1347 749 t 1 f;
#X obj 1336 794 -;
#X obj 1563 730 t 1 f;
#X obj 1552 775 -;
#X obj 1778 744 t 1 f;
#X obj 1767 789 -;
#X obj 1985 750 t 1 f;
#X obj 1974 795 -;
#X obj 698 635 touch-scale \$0;
#X obj 920 636 touch-scale \$0;
#X obj 1117 637 touch-scale \$0;
#X obj 1347 627 touch-scale \$0;
#X obj 1544 628 touch-scale \$0;
#X obj 1766 629 touch-scale \$0;
#X obj 1963 630 touch-scale \$0;
#X obj 708 868 touch-clip \$0;
#X obj 930 869 touch-clip \$0;
#X obj 1127 870 touch-clip \$0;
#X obj 1357 860 touch-clip \$0;
#X obj 1554 861 touch-clip \$0;
#X obj 1766 862 touch-clip \$0;
#X obj 1963 863 touch-clip \$0;
#X obj 500 220 mrpeach/slipdec 65536;
#X msg 554 120 close;
#X obj 500 180 comport 1 115200;
#X floatatom 30 20 5 0 0 1 port #0-to-port #0-from-port, f 5;
#X msg 500 120 open \$1;
#X text 20 200 1;
#X text 40 200 2;
#X text 65 200 3;
#X text 90 200 4;
#X text 115 200 5;
#X text 140 200 6;
#X text 166 200 7;
#X text 190 200 8;
#X obj 136 916 r \$0macs;
#X obj 122 945 s;
#X obj 102 835 pack 0 0 0 0 0 0 0 0 0 0 0 0;
#X obj 127 513 r \$0-clipped-value0;
#X obj 143 539 r \$0-clipped-value1;
#X obj 171 564 r \$0-clipped-value2;
#X obj 187 590 r \$0-clipped-value3;
#X obj 218 616 r \$0-clipped-value4;
#X obj 234 642 r \$0-clipped-value5;
#X obj 262 667 r \$0-clipped-value6;
#X obj 278 693 r \$0-clipped-value7;
#X obj 295 721 r \$0-clipped-value8;
#X obj 311 747 r \$0-clipped-value9;
#X obj 339 772 r \$0-clipped-value10;
#X obj 355 798 r \$0-clipped-value11;
#X obj 452 412 t b l;
#X obj 387 495 s \$0listbang;
#X obj 39 745 r \$0listbang;
#X text 134 883 <how to detect change in list?;
#X obj 196 763 funnel;
#X obj 1740 380 s \$0curver;
#X obj 1760 40 r \$0curves;
#X obj 1820 320 s \$0macr;
#X obj 1810 120 r \$0macs;
#X obj 1760 360 s \$0floorr;
#X obj 1770 70 r \$0floors;
#X obj 1790 340 s \$0ceilingr;
#X obj 1790 100 r \$0ceilings;
#X obj 1740 210 savestate, f 11;
#X text 1837 207 👈 bangs when parent is saved;
#X obj 1810 240 s \$0-save-state;
#X obj 1740 10 r \$0-save-state;
#X obj 1740 110 f;
#X obj 1740 170 pack f f f s f;
#X obj 1740 270 unpack f f f s f;
#X obj 380 30 r \$0-to-reset;
#X obj 580 20 inlet;
#X obj 500 340 zl slice 1;
#X obj 500 440 unpack 0 0 0 0 0 0 0 0, f 244;
#X obj 2750 750 cnv 15 100 60 empty empty empty 20 12 0 14 #e0e0e0
#404040 0;
#X obj 700 50 t b b;
#X obj 500 70 r \$0-from-port;
#X floatatom 450 100 5 0 0 0 - - -, f 5;
#X obj 1962 112 r \$0-from-port;
#X obj 1860 280 s \$0-to-port;
#X connect 2 0 138 0;
#X connect 4 0 5 0;
#X connect 5 0 138 0;
#X connect 6 0 7 0;
#X connect 7 0 135 0;
#X connect 8 0 113 0;
#X connect 15 0 54 0;
#X connect 26 0 71 0;
#X connect 30 0 72 0;
#X connect 32 0 73 0;
#X connect 38 0 74 0;
#X connect 40 0 75 0;
#X connect 42 0 76 0;
#X connect 44 0 77 0;
#X connect 53 0 1 0;
#X connect 53 0 17 0;
#X connect 54 0 55 0;
#X connect 55 0 56 0;
#X connect 55 1 56 1;
#X connect 56 0 16 0;
#X connect 56 0 53 0;
#X connect 57 0 58 0;
#X connect 57 1 58 1;
#X connect 58 0 27 0;
#X connect 58 0 78 0;
#X connect 59 0 60 0;
#X connect 59 1 60 1;
#X connect 60 0 33 0;
#X connect 60 0 79 0;
#X connect 61 0 62 0;
#X connect 61 1 62 1;
#X connect 62 0 35 0;
#X connect 62 0 80 0;
#X connect 63 0 64 0;
#X connect 63 1 64 1;
#X connect 64 0 45 0;
#X connect 64 0 81 0;
#X connect 65 0 66 0;
#X connect 65 1 66 1;
#X connect 66 0 47 0;
#X connect 66 0 82 0;
#X connect 67 0 68 0;
#X connect 67 1 68 1;
#X connect 68 0 49 0;
#X connect 68 0 83 0;
#X connect 69 0 70 0;
#X connect 69 1 70 1;
#X connect 70 0 51 0;
#X connect 70 0 84 0;
#X connect 71 0 57 0;
#X connect 72 0 59 0;
#X connect 73 0 61 0;
#X connect 74 0 63 0;
#X connect 75 0 65 0;
#X connect 76 0 67 0;
#X connect 77 0 69 0;
#X connect 78 0 25 0;
#X connect 78 0 28 0;
#X connect 79 0 29 0;
#X connect 79 0 34 0;
#X connect 80 0 31 0;
#X connect 80 0 36 0;
#X connect 81 0 37 0;
#X connect 81 0 46 0;
#X connect 82 0 39 0;
#X connect 82 0 48 0;
#X connect 83 0 41 0;
#X connect 83 0 50 0;
#X connect 84 0 43 0;
#X connect 84 0 52 0;
#X connect 85 0 6 0;
#X connect 86 0 87 0;
#X connect 87 0 85 0;
#X connect 89 0 87 0;
#X connect 98 0 99 1;
#X connect 113 0 114 0;
#X connect 113 1 136 0;
#X connect 119 0 130 1;
#X connect 121 0 131 3;
#X connect 123 0 131 1;
#X connect 125 0 131 2;
#X connect 126 0 132 0;
#X connect 126 1 128 0;
#X connect 129 0 130 0;
#X connect 130 0 131 0;
#X connect 131 0 126 0;
#X connect 132 0 118 0;
#X connect 132 1 122 0;
#X connect 132 2 124 0;
#X connect 132 3 120 0;
#X connect 132 4 142 0;
#X connect 133 0 140 0;
#X connect 134 0 140 0;
#X connect 135 1 8 0;
#X connect 136 0 54 0;
#X connect 136 1 71 0;
#X connect 136 2 72 0;
#X connect 136 3 73 0;
#X connect 136 4 74 0;
#X connect 136 5 75 0;
#X connect 136 6 76 0;
#X connect 136 7 77 0;
#X connect 138 0 9 0;
#X connect 138 1 86 0;
#X connect 139 0 140 0;
#X connect 140 0 89 0;
#X connect 141 0 131 4;
#X coords 0 -1 1 1 186 227 2 15 -6;
