#N canvas 56 66 665 631 10;
#X obj 79 104 cnv 15 147 106 empty empty PST-SOUND 5 5 0 14 -2689 -262144
0;
#X obj -159 6 inlet;
#X text -243 -3 comment;
#N canvas 678 128 645 439 numbercruncher 0;
#X obj 87 10 inlet;
#X obj 325 249 loadbang;
#X obj 134 415 outlet;
#X text 227 82 Sends creation argument list to the GOP;
#X text 292 214 Receives GOP values and sends them on again to the
saver;
#X obj 325 274 t b b b;
#X obj 245 225 t b f;
#X obj 149 227 t b f;
#X msg 344 323 symbol flt;
#X obj 149 196 r \$0scaleindexs;
#X obj 135 139 s \$0scaleindexr;
#X msg 364 300 symbol flt;
#X obj 241 138 s \$0octaver;
#X obj 245 196 r \$0octaves;
#X obj 87 44 unpack s s s f s f;
#X obj 26 107 s \$0directoryr;
#X obj 43 197 r \$0directorys;
#X obj 43 226 t b s;
#X obj 134 377 pack s s s f s f;
#X msg 43 321 symbol sym;
#X connect 0 0 14 0;
#X connect 1 0 5 0;
#X connect 5 0 19 0;
#X connect 5 1 8 0;
#X connect 5 2 11 0;
#X connect 6 0 19 0;
#X connect 6 1 18 5;
#X connect 7 0 19 0;
#X connect 7 1 18 3;
#X connect 8 0 18 2;
#X connect 9 0 7 0;
#X connect 11 0 18 4;
#X connect 13 0 6 0;
#X connect 14 1 15 0;
#X connect 14 3 10 0;
#X connect 14 5 12 0;
#X connect 16 0 17 0;
#X connect 17 0 19 0;
#X connect 17 1 18 1;
#X connect 18 0 2 0;
#X connect 19 0 18 0;
#X restore 902 594 pd numbercruncher;
#X obj 902 715 iemguts/canvasargs;
#X obj 902 515 iemguts/canvasargs;
#X obj 809 425 loadbang;
#X obj 902 563 list trim;
#X obj 902 540 list;
#X obj 809 469 t b b, f 16;
#X msg 809 552 1;
#X obj 902 670 spigot;
#X text 902 740 v1.3 \, 2015 Liam Goodacre \, liam.goodacre@gmail.com
;
#X text 943 663 This spigot is necessary because if one [canvasargs]
object feeds the creation argument straight into another it will cause
PD to crash.;
#X obj -159 31 s \$0inlet1;
#X symbolatom 85 138 20 0 0 2 directory #0directoryr #0directorys,
f 20;
#X obj 882 425 bng 15 250 50 0 empty empty empty 17 7 0 10 -262144
-1 -1;
#X obj 352 345 folder_list;
#X obj 776 274 print;
#X obj 608 625 coll;
#C restore;
#X obj 418 519 list append;
#X obj 352 462 counter, f 11;
#X obj 352 384 t b s;
#X floatatom 284 588 5 0 0 0 - - -, f 5;
#X msg 352 537 set \$1;
#X obj 284 612 s \$0-numsamples;
#X obj 284 637 r \$0-numsamples;
#X floatatom 284 662 5 0 0 0 - - -, f 5;
#X obj 278 98 r \$0directorys;
#X obj 398 256 tosymbol;
#X obj 778 211 r \$0-numsamples;
#X obj 776 245 sprintf %i samples found;
#X floatatom 85 158 5 0 0 1 num-samples #0-numsamples -, f 5;
#X obj -193 110 sel 0;
#X obj -192 68 r \$0inlet1;
#X obj -139 183 %;
#X obj -105 149 r \$0-numsamples;
#X obj -197 313 s \$0-playindex;
#X msg -193 157 0;
#X obj -138 145 - 1;
#X obj -130 219 + 1;
#X text -200 337 stop sample at value 0 else play sample \, wrapping
around index;
#X obj -31 29 inlet;
#X obj -14 59 s \$0inlet2;
#X obj -105 125 s \$0directoryr;
#X text -122 0 left inlet selects sample;
#X text 37 35 right inlet selects directory;
#X obj 432 747 r \$0-playindex;
#X obj 431 1029 readsf~;
#X msg 575 938 open ///home/pi/Desktop/cubbytown/./Playable-Streets-Toolkit/pure-data/../../samples/005.wav
\, start;
#X msg 684 843 addcomma;
#X msg 611 843 add2 start;
#X obj 745 843 sprintf set open %s;
#X obj 431 820 moses 1;
#X obj 398 198 sprintf %s/*.wav;
#X obj 431 1069 outlet~;
#X obj 944 871 strippath;
#X obj 575 715 t b b b s s;
#X obj 973 897 s \$0-nowplaying;
#X obj 973 922 r \$0-nowplaying;
#X symbolatom 86 188 20 0 0 2 - #0-nowplaying #0-blank, f 20;
#X obj 318 931 s \$0-nowplaying;
#X floatatom 459 780 5 0 0 0 - - -, f 5;
#X msg 318 897 symbol stopped;
#X obj -108 94 tosymbol;
#X obj 278 137 t b b b s 1 clear, f 50;
#X obj 264 273 s \$0-to-coll;
#X obj 607 588 r \$0-to-coll;
#X obj 575 185 s \$0-to-coll;
#X obj 420 555 s \$0-to-coll;
#X obj 472 908 s \$0-to-coll;
#X obj 292 806 s \$0-to-coll;
#X msg 327 759 sort -1 3;
#X text 193 316 todo: sorting is currently not working properly...
, f 19;
#X msg 538 185 0;
#X obj -159 580 bng 15 250 50 0 \$0-opendialogs empty empty 17 7 0
10 -262144 -133153 -133153;
#X obj -135 734 s \$0-opendialog;
#X obj -168 678 r \$0-opendialog;
#X obj -147 710 s \$0directoryr;
#X obj -120 633 print;
#X obj -117 574 r \$0-opendialogs;
#X obj -119 604 tof/folderpanel;
#X text -158 522 todo: open dialog box, f 19;
#X msg 269 226 sort -1 2;
#N canvas 785 211 450 323 printdump 0;
#X obj 143 50 inlet;
#X obj 380 66 inlet;
#X obj 290 268 outlet;
#X obj 291 200 gate 2;
#X msg 357 154 1;
#X obj 322 236 print;
#X msg 218 182 dump;
#X obj 155 104 t b 2;
#X obj 193 221 s \$0-to-coll;
#X obj 317 50 inlet;
#X obj 398 105 loadbang;
#X connect 0 0 7 0;
#X connect 1 0 4 0;
#X connect 3 0 2 0;
#X connect 3 1 5 0;
#X connect 4 0 3 0;
#X connect 6 0 8 0;
#X connect 7 0 6 0;
#X connect 7 1 3 0;
#X connect 9 0 3 1;
#X connect 10 0 4 0;
#X restore 575 663 pd printdump;
#X obj 576 623 bng 15 250 50 0 empty empty empty 17 7 0 10 -262144
-1 -1;
#X connect 1 0 14 0;
#X connect 3 0 11 0;
#X connect 5 0 8 0;
#X connect 6 0 9 0;
#X connect 7 0 3 0;
#X connect 8 0 7 0;
#X connect 9 0 10 0;
#X connect 9 1 5 0;
#X connect 10 0 11 1;
#X connect 11 0 4 0;
#X connect 16 0 9 0;
#X connect 17 0 22 0;
#X connect 19 0 84 1;
#X connect 19 3 84 2;
#X connect 20 0 69 0;
#X connect 21 0 20 0;
#X connect 21 0 24 0;
#X connect 22 0 21 0;
#X connect 22 1 20 1;
#X connect 23 0 25 0;
#X connect 24 0 23 0;
#X connect 26 0 27 0;
#X connect 28 0 65 0;
#X connect 29 0 17 1;
#X connect 30 0 31 0;
#X connect 31 0 18 0;
#X connect 33 0 38 0;
#X connect 33 1 39 0;
#X connect 34 0 33 0;
#X connect 35 0 40 0;
#X connect 36 0 35 1;
#X connect 38 0 37 0;
#X connect 39 0 35 0;
#X connect 40 0 37 0;
#X connect 42 0 43 0;
#X connect 42 0 64 0;
#X connect 47 0 53 0;
#X connect 48 0 55 0;
#X connect 49 0 48 0;
#X connect 50 0 49 0;
#X connect 51 0 49 0;
#X connect 52 0 49 0;
#X connect 53 0 48 0;
#X connect 53 0 63 0;
#X connect 53 1 70 0;
#X connect 54 0 29 0;
#X connect 56 0 58 0;
#X connect 57 0 49 0;
#X connect 57 1 51 0;
#X connect 57 2 50 0;
#X connect 57 3 52 0;
#X connect 57 4 56 0;
#X connect 62 0 53 0;
#X connect 63 0 61 0;
#X connect 64 0 44 0;
#X connect 65 0 83 0;
#X connect 65 1 23 0;
#X connect 65 2 17 0;
#X connect 65 3 54 0;
#X connect 65 4 21 2;
#X connect 65 5 68 0;
#X connect 65 5 74 0;
#X connect 67 0 19 0;
#X connect 72 0 71 0;
#X connect 74 0 23 0;
#X connect 80 0 81 0;
#X connect 81 0 79 0;
#X connect 83 0 66 0;
#X connect 84 0 57 0;
#X connect 85 0 84 0;
#X coords 0 -1 1 1 152 111 2 77 102;
