#N canvas 0 0 1334 668 10;
#X declare -path subpatches;
#X obj 33 788 cnv 15 180 250 empty empty PST-MULTITOUCH 5 5 0 14 -4033
-262144 0;
#X obj 232 788 outlet;
#X obj 435 -87 inlet;
#X floatatom 454 1042 10 0 0 0 - #0-clipped-value -, f 10;
#X obj 196 791 bng 15 250 50 0 \$0-reset \$0-to-reset rst -20 5 0 10
-262144 -1 -1;
#X obj 481 -79 loadbang;
#X obj 481 -52 delay 500;
#X obj 702 -100 netreceive -u -b;
#X msg 702 -127 listen 8000;
#X obj 702 -154 loadbang;
#X obj 231 182 oscparse;
#X obj 231 209 route list;
#X obj 231 293 route touches;
#X obj 702 -67 s pst-osc-in;
#X obj 112 -32 r pst-osc-in;
#X obj 435 -11 s \$0-to-reset;
#X obj 38 851 hsl 127 10 0 1 0 0 empty \$0-scaled-value0 empty -2 -8
0 10 -1 -262144 -1 106 1;
#X obj 38 835 hsl 127 14 0 1 0 1 \$0ceilings \$0ceilingr ceiling 3
5 0 9 -262144 -4033 -133153 5600 1;
#N canvas 0 0 1350 707 numbercruncher 0;
#X obj 87 10 inlet;
#X obj 425 249 loadbang;
#X obj 134 465 outlet;
#X text 429 89 Sends creation argument list to the GOP;
#X text 710 191 Receives GOP values and sends them on again to the
saver;
#X msg 22 326 symbol flt;
#X obj 43 226 t b f;
#X obj 149 227 t b f;
#X msg 444 323 symbol flt;
#X obj 135 139 s \$0curver;
#X obj 149 196 r \$0curves;
#X obj 241 138 s \$0macr;
#X obj 245 196 r \$0macs;
#X msg 519 327 symbol sym;
#X obj 245 225 t b s;
#X obj 43 140 s \$0floorr;
#X obj 43 197 r \$0floors;
#X msg 600 328 symbol flt;
#X obj 329 220 t b f;
#X obj 329 134 s \$0ceilingr;
#X obj 329 191 r \$0ceilings;
#X obj 87 44 unpack s f s f s s s f s f;
#X obj 431 135 s \$0usbr;
#X obj 424 218 t b f;
#X obj 424 189 r \$0usbs;
#X obj 134 427 pack s f s f s s s f s f;
#X msg 686 329 symbol flt;
#X obj 425 274 t b b b b b;
#X connect 0 0 21 0;
#X connect 1 0 27 0;
#X connect 5 0 25 0;
#X connect 6 0 5 0;
#X connect 6 1 25 1;
#X connect 7 0 5 0;
#X connect 7 1 25 3;
#X connect 8 0 25 2;
#X connect 10 0 7 0;
#X connect 12 0 14 0;
#X connect 13 0 25 4;
#X connect 14 0 5 0;
#X connect 14 1 25 5;
#X connect 16 0 6 0;
#X connect 17 0 25 6;
#X connect 18 0 5 0;
#X connect 18 1 25 7;
#X connect 20 0 18 0;
#X connect 21 1 15 0;
#X connect 21 3 9 0;
#X connect 21 5 11 0;
#X connect 21 7 19 0;
#X connect 21 9 22 0;
#X connect 23 0 5 0;
#X connect 23 1 25 9;
#X connect 24 0 23 0;
#X connect 25 0 2 0;
#X connect 26 0 25 8;
#X connect 27 0 5 0;
#X connect 27 1 8 0;
#X connect 27 2 13 0;
#X connect 27 3 17 0;
#X connect 27 4 26 0;
#X restore 1004 165 pd numbercruncher;
#X obj 1004 286 iemguts/canvasargs;
#X obj 1004 86 iemguts/canvasargs;
#X obj 911 -4 loadbang;
#X obj 1004 134 list trim;
#X obj 1004 111 list;
#X obj 911 40 t b b, f 16;
#X msg 911 123 1;
#X obj 1004 241 spigot;
#X text 1004 311 v1.3 \, 2015 Liam Goodacre \, liam.goodacre@gmail.com
;
#X text 1045 234 This spigot is necessary because if one [canvasargs]
object feeds the creation argument straight into another it will cause
PD to crash.;
#X obj 38 1018 hsl 127 14 0 1 0 1 \$0curves \$0curver sensitivity 3
5 0 9 -262144 -4033 -133153 9050 1;
#X symbolatom 54 815 19 0 0 0 ID #0macr #0macs, f 19;
#X obj 258 241 r \$0macs;
#X obj 231 266 route;
#X obj 38 995 hsl 127 14 0 1 0 1 \$0floors \$0floorr floor 3 5 0 9
-262144 -4033 -133153 950 1;
#X obj 910 -47 declare -path subpatches;
#X floatatom 255 504 5 0 0 0 - - -, f 5;
#X obj 250 668 s \$0-scaled-value0;
#X obj 285 759 s \$0-clipped-value0;
#X obj 38 863 hsl 127 10 0 1 0 0 empty \$0-scaled-value1 empty -2 -8
0 10 -1 -262144 -1 0 1;
#X obj 38 875 hsl 127 10 0 1 0 0 empty \$0-scaled-value2 empty -2 -8
0 10 -1 -262144 -1 2 1;
#X obj 38 887 hsl 127 10 0 1 0 0 empty \$0-scaled-value3 empty -2 -8
0 10 -1 -262144 -1 19 1;
#X obj 38 899 hsl 127 10 0 1 0 0 empty \$0-scaled-value4 empty -2 -8
0 10 -1 -262144 -1 7 1;
#X obj 38 911 hsl 127 10 0 1 0 0 empty \$0-scaled-value5 empty -2 -8
0 10 -1 -262144 -1 0 1;
#X obj 38 923 hsl 127 10 0 1 0 0 empty \$0-scaled-value6 empty -2 -8
0 10 -1 -262144 -1 0 1;
#X obj 38 935 hsl 127 10 0 1 0 0 empty \$0-scaled-value7 empty -2 -8
0 10 -1 -262144 -1 0 1;
#X obj 38 947 hsl 127 10 0 1 0 0 empty \$0-scaled-value8 empty -2 -8
0 10 -1 -262144 -1 17 1;
#X obj 38 959 hsl 127 10 0 1 0 0 empty \$0-scaled-value9 empty -2 -8
0 10 -1 -262144 -1 0 1;
#X obj 38 971 hsl 127 10 0 1 0 0 empty \$0-scaled-value10 empty -2
-8 0 10 -1 -262144 -1 10 1;
#X obj 38 983 hsl 127 10 0 1 0 0 empty \$0-scaled-value11 empty -2
-8 0 10 -1 -262144 -1 16 1;
#X obj 439 869 outlet;
#X floatatom 452 505 5 0 0 0 - - -, f 5;
#X obj 487 717 s \$0-scaled-value1;
#X obj 492 840 s \$0-clipped-value1;
#X obj 231 350 unpack 0 0 0 0 0 0 0 0 0 0 0 0, f 375;
#X obj 661 870 outlet;
#X floatatom 674 506 5 0 0 0 - - -, f 5;
#X obj 858 871 outlet;
#X floatatom 871 507 5 0 0 0 - - -, f 5;
#X obj 709 744 s \$0-scaled-value2;
#X obj 714 841 s \$0-clipped-value2;
#X obj 899 749 s \$0-scaled-value3;
#X obj 911 842 s \$0-clipped-value3;
#X obj 1088 861 outlet;
#X floatatom 1101 497 5 0 0 0 - - -, f 5;
#X obj 1285 862 outlet;
#X floatatom 1298 498 5 0 0 0 - - -, f 5;
#X obj 1497 863 outlet;
#X floatatom 1520 499 5 0 0 0 - - -, f 5;
#X obj 1694 864 outlet;
#X floatatom 1717 500 5 0 0 0 - - -, f 5;
#X obj 1120 731 s \$0-scaled-value4;
#X obj 1141 832 s \$0-clipped-value4;
#X obj 1332 726 s \$0-scaled-value5;
#X obj 1338 833 s \$0-clipped-value5;
#X obj 1545 738 s \$0-scaled-value6;
#X obj 1550 834 s \$0-clipped-value6;
#X obj 1746 730 s \$0-scaled-value7;
#X obj 1747 835 s \$0-clipped-value7;
#X obj 1928 879 outlet;
#X floatatom 1951 515 5 0 0 0 - - -, f 5;
#X obj 2125 880 outlet;
#X floatatom 2148 516 5 0 0 0 - - -, f 5;
#X obj 2347 881 outlet;
#X floatatom 2370 517 5 0 0 0 - - -, f 5;
#X obj 2544 882 outlet;
#X floatatom 2567 518 5 0 0 0 - - -, f 5;
#X obj 1967 751 s \$0-scaled-value8;
#X obj 1981 850 s \$0-clipped-value8;
#X obj 2176 755 s \$0-scaled-value9;
#X obj 2178 851 s \$0-clipped-value9;
#X obj 2372 714 s \$0-scaled-value10;
#X obj 2400 852 s \$0-clipped-value10;
#X obj 2581 752 s \$0-scaled-value11;
#X obj 2597 853 s \$0-clipped-value11;
#X obj 232 697 touch-clip \$0;
#X obj 232 544 touch-scale \$0;
#X obj 234 583 t 1 f;
#X obj 223 628 -;
#X obj 439 643 t 1 f;
#X obj 428 688 -;
#X obj 673 661 t 1 f;
#X obj 662 706 -;
#X obj 877 672 t 1 f;
#X obj 866 717 -;
#X obj 1078 659 t 1 f;
#X obj 1067 704 -;
#X obj 1294 640 t 1 f;
#X obj 1283 685 -;
#X obj 1509 654 t 1 f;
#X obj 1498 699 -;
#X obj 1716 660 t 1 f;
#X obj 1705 705 -;
#X obj 1924 668 t 1 f;
#X obj 1913 713 -;
#X obj 2133 662 t 1 f;
#X obj 2122 707 -;
#X obj 2364 642 t 1 f;
#X obj 2353 687 -;
#X obj 2553 678 t 1 f;
#X obj 2542 723 -;
#X obj 429 545 touch-scale \$0;
#X obj 651 546 touch-scale \$0;
#X obj 848 547 touch-scale \$0;
#X obj 1078 537 touch-scale \$0;
#X obj 1275 538 touch-scale \$0;
#X obj 1497 539 touch-scale \$0;
#X obj 1694 540 touch-scale \$0;
#X obj 1928 555 touch-scale \$0;
#X obj 2125 556 touch-scale \$0;
#X obj 2347 557 touch-scale \$0;
#X obj 2544 558 touch-scale \$0;
#X obj 439 778 touch-clip \$0;
#X obj 661 779 touch-clip \$0;
#X obj 858 780 touch-clip \$0;
#X obj 1088 770 touch-clip \$0;
#X obj 1285 771 touch-clip \$0;
#X obj 1497 772 touch-clip \$0;
#X obj 1694 773 touch-clip \$0;
#X obj 1928 788 touch-clip \$0;
#X obj 2125 789 touch-clip \$0;
#X obj 2347 790 touch-clip \$0;
#X obj 2544 791 touch-clip \$0;
#X obj 228 -29 mrpeach/slipdec 65536;
#X msg 275 -101 close;
#X obj 174 816 tgl 15 0 \$0usbs \$0usbr usb 17 7 0 10 -262144 -1 -1
1 1;
#X obj 221 -163 sel 1 0;
#X obj 230 -66 comport 1 115200;
#X floatatom 221 -127 5 0 0 0 - - -, f 5;
#X obj 130 -196 inlet;
#X msg 221 -101 open \$1;
#X floatatom 168 -195 5 0 0 0 - - -, f 5;
#X obj 130 -165 prepend set;
#X text 2 -194 set custom comport >;
#N canvas 776 188 450 323 os_check 0;
#X obj 70 54 operating_system;
#X obj 70 21 loadbang;
#X symbolatom 70 86 10 0 0 0 - - -, f 10;
#X obj 70 110 select linux windows macos;
#X msg 121 140 10;
#X msg 172 141 1;
#X msg 70 142 1;
#X obj 70 214 outlet;
#X connect 0 0 2 0;
#X connect 1 0 0 0;
#X connect 2 0 3 0;
#X connect 3 0 6 0;
#X connect 3 1 4 0;
#X connect 3 2 5 0;
#X connect 4 0 7 0;
#X connect 5 0 7 0;
#X connect 6 0 7 0;
#X restore 169 -230 pd os_check;
#X text 246 -229 < set default port for current operating system;
#X obj 195 141 switch;
#X obj 55 33 + 1;
#X obj 55 5 r \$0usbs;
#X obj 222 -190 r \$0usbs;
#X connect 2 0 15 0;
#X connect 5 0 6 0;
#X connect 6 0 15 0;
#X connect 7 0 13 0;
#X connect 8 0 7 0;
#X connect 9 0 8 0;
#X connect 10 0 11 0;
#X connect 11 0 32 0;
#X connect 12 0 53 0;
#X connect 14 0 155 1;
#X connect 18 0 26 0;
#X connect 20 0 23 0;
#X connect 21 0 24 0;
#X connect 22 0 18 0;
#X connect 23 0 22 0;
#X connect 24 0 25 0;
#X connect 24 1 20 0;
#X connect 25 0 26 1;
#X connect 26 0 19 0;
#X connect 31 0 32 1;
#X connect 32 0 12 0;
#X connect 35 0 95 0;
#X connect 50 0 120 0;
#X connect 53 0 95 0;
#X connect 53 1 120 0;
#X connect 53 2 121 0;
#X connect 53 3 122 0;
#X connect 53 4 123 0;
#X connect 53 5 124 0;
#X connect 53 6 125 0;
#X connect 53 7 126 0;
#X connect 53 8 127 0;
#X connect 53 9 128 0;
#X connect 53 10 129 0;
#X connect 53 11 130 0;
#X connect 55 0 121 0;
#X connect 57 0 122 0;
#X connect 63 0 123 0;
#X connect 65 0 124 0;
#X connect 67 0 125 0;
#X connect 69 0 126 0;
#X connect 79 0 127 0;
#X connect 81 0 128 0;
#X connect 83 0 129 0;
#X connect 85 0 130 0;
#X connect 94 0 1 0;
#X connect 94 0 37 0;
#X connect 95 0 96 0;
#X connect 96 0 97 0;
#X connect 96 1 97 1;
#X connect 97 0 36 0;
#X connect 97 0 94 0;
#X connect 98 0 99 0;
#X connect 98 1 99 1;
#X connect 99 0 51 0;
#X connect 99 0 131 0;
#X connect 100 0 101 0;
#X connect 100 1 101 1;
#X connect 101 0 58 0;
#X connect 101 0 132 0;
#X connect 102 0 103 0;
#X connect 102 1 103 1;
#X connect 103 0 60 0;
#X connect 103 0 133 0;
#X connect 104 0 105 0;
#X connect 104 1 105 1;
#X connect 105 0 70 0;
#X connect 105 0 134 0;
#X connect 106 0 107 0;
#X connect 106 1 107 1;
#X connect 107 0 72 0;
#X connect 107 0 135 0;
#X connect 108 0 109 0;
#X connect 108 1 109 1;
#X connect 109 0 74 0;
#X connect 109 0 136 0;
#X connect 110 0 111 0;
#X connect 110 1 111 1;
#X connect 111 0 76 0;
#X connect 111 0 137 0;
#X connect 112 0 113 0;
#X connect 112 1 113 1;
#X connect 113 0 86 0;
#X connect 113 0 138 0;
#X connect 114 0 115 0;
#X connect 114 1 115 1;
#X connect 115 0 88 0;
#X connect 115 0 139 0;
#X connect 116 0 117 0;
#X connect 116 1 117 1;
#X connect 117 0 90 0;
#X connect 117 0 140 0;
#X connect 118 0 119 0;
#X connect 118 1 119 1;
#X connect 119 0 92 0;
#X connect 119 0 141 0;
#X connect 120 0 98 0;
#X connect 121 0 100 0;
#X connect 122 0 102 0;
#X connect 123 0 104 0;
#X connect 124 0 106 0;
#X connect 125 0 108 0;
#X connect 126 0 110 0;
#X connect 127 0 112 0;
#X connect 128 0 114 0;
#X connect 129 0 116 0;
#X connect 130 0 118 0;
#X connect 131 0 49 0;
#X connect 131 0 52 0;
#X connect 132 0 54 0;
#X connect 132 0 59 0;
#X connect 133 0 56 0;
#X connect 133 0 61 0;
#X connect 134 0 62 0;
#X connect 134 0 71 0;
#X connect 135 0 64 0;
#X connect 135 0 73 0;
#X connect 136 0 66 0;
#X connect 136 0 75 0;
#X connect 137 0 68 0;
#X connect 137 0 77 0;
#X connect 138 0 78 0;
#X connect 138 0 87 0;
#X connect 139 0 80 0;
#X connect 139 0 89 0;
#X connect 140 0 82 0;
#X connect 140 0 91 0;
#X connect 141 0 84 0;
#X connect 141 0 93 0;
#X connect 142 0 155 2;
#X connect 143 0 146 0;
#X connect 145 0 147 0;
#X connect 145 1 143 0;
#X connect 146 0 142 0;
#X connect 147 0 149 0;
#X connect 148 0 151 0;
#X connect 149 0 146 0;
#X connect 150 0 151 0;
#X connect 151 0 147 0;
#X connect 153 0 150 0;
#X connect 155 0 10 0;
#X connect 156 0 155 0;
#X connect 157 0 156 0;
#X connect 158 0 145 0;
#X coords 0 -1 1 1 185 255 2 30 786;
