#N canvas 0 0 1334 668 10;
#X obj 297 250 inlet;
#X obj 366 602 sendOSC;
#X msg 423 567 connect 255.255.255.255 9000;
#X obj 423 540 loadbang;
#X obj 287 189 tgl 15 0 \$0throttles \$0throttler throttle 17 5 0 10
-262144 -1 -1 0 1;
#X obj 299 288 prepend send /pst/\$1;
#X obj 420 483 maxlib/speedlim;
#X obj 383 435 gate 2, f 24;
#X obj 383 404 + 1;
#X obj 383 368 r \$0throttles;
#X obj 565 283 inlet;
#X obj 568 321 s \$0throttler;
#X connect 0 0 5 0;
#X connect 2 0 1 0;
#X connect 3 0 2 0;
#X connect 5 0 1 0;
#X connect 5 0 7 1;
#X connect 6 0 1 0;
#X connect 7 0 1 0;
#X connect 7 1 6 0;
#X connect 8 0 7 0;
#X connect 9 0 8 0;
#X connect 10 0 11 0;
#X coords 0 -1 1 1 121 40 1 285 167;
