#N canvas 231 0 872 668 10;
#X obj 46 62 inlet;
#X dropdown 98 106 17 1 0 0 - #0-toscaledropdown #0-fromscaledropdown
, f 17;
#X obj 449 165 s \$0-toscaledropdown;
#X obj 449 195 r \$0-fromscaledropdown;
#X obj 449 98 loadbang;
#X obj 80 106 vsl 17 75 0 1 0 0 empty empty empty 0 -9 0 10 -262144
-1 -1 0 1;
#X floatatom 79 435 5 0 0 0 - - -, f 5;
#X obj 79 520 change;
#X obj 79 463 int;
#X floatatom 79 491 5 0 0 0 - - -, f 5;
#X floatatom 105 334 5 0 0 0 - - -, f 5;
#X floatatom 98 127 5 0 1 1 low-threshold #0-tolowthreshold #0-fromlowthreshold
, f 5;
#X obj 105 303 r \$0-fromlowthreshold;
#X obj 105 283 s \$0-tolowthreshold;
#X obj 105 258 loadbang;
#X text 210 357 < number of notes in scale;
#X text 117 491 < current note, f 10;
#X floatatom 169 361 5 0 0 0 - - -, f 5;
#X obj 319 449 > 0;
#X obj 318 482 * 127;
#X text 359 482 < current velocity;
#X msg -68 596 0 2 4 7 9;
#X obj 72 639 zl nth;
#X obj 79 555 t b f;
#X obj 222 803 pack, f 5;
#X obj 55 874 prepend set;
#X msg 251 921 64;
#X text 280 917 < store last note to send note off on next note, f
18;
#X obj 318 602 prepend set;
#X msg 318 742 0;
#X obj 73 694 t f b;
#X obj 223 838 t l b;
#X obj 251 986 pack;
#X obj 251 957 t f 0;
#X obj 410 570 sel 0;
#X obj 410 539 change;
#X text 458 566 < send note off when under thresh, f 18;
#X obj 73 667 + 64;
#X obj 410 601 s \$0-noteoff;
#X text 110 667 < scale offset;
#X obj 466 767 outlet;
#X text 100 175 outputs note pairs;
#X obj 141 872 s \$0-notepairout;
#X obj 250 1015 s \$0-notepairout;
#X obj 466 726 r \$0-notepairout;
#X obj 440 246 r \$0-notepairout;
#X floatatom 172 196 5 0 0 0 - #0-velocityout -, f 5;
#X obj 437 366 s \$0-noteout;
#X obj 471 341 s \$0-velocityout;
#X floatatom 103 196 5 0 0 0 - #0-noteout -, f 5;
#X obj 438 309 unpack;
#X obj 270 885 r \$0-noteoff;
#X floatatom -68 399 5 0 0 0 - #0-numoctaves -, f 5;
#X floatatom 98 146 5 1 99 1 number-of-octaves #0-to-numoctaves #0-numoctaves
, f 5;
#X text 248 89 todo: add multiple scales add gui for offset add velocity
control, f 30;
#N canvas 177 195 782 662 scalemaker 0;
#X obj 296 28 inlet;
#X obj 223 695 outlet;
#X msg 335 318 0 2 4 7 9;
#X obj 366 203 bng 15 250 50 0 empty empty empty 17 7 0 10 -262144
-1 -1;
#X msg 593 546 set;
#X floatatom 427 340 5 0 0 0 - - -, f 5;
#X obj 469 330 + 12;
#X obj 469 354 prepend set;
#X obj 366 260 t b b;
#X obj 410 532 + 0;
#X obj 340 457 zl iter 1;
#X obj 409 563 prepend add2;
#X msg 427 258 set 0;
#X obj 604 202 bng 15 250 50 0 empty empty empty 17 7 0 10 -262144
-1 -1;
#X obj 365 154 uzi;
#X obj 365 119 t b i;
#X text 109 319 scale as semi-tone steps >;
#X msg 282 658 0 2 4 7 9;
#X obj 296 86 t b i b, f 52;
#N canvas 889 139 450 323 scales 0;
#X obj 65 -5 r \$0-fromscaledropdown;
#X obj 65 27 t b s, f 8;
#X obj 65 119 outlet;
#X obj -18 120 outlet;
#N canvas 75 167 1085 398 scales 0;
#X obj 182 59 inlet;
#X obj 812 556 outlet;
#X msg 182 138 0 2 4 7 9;
#X msg 267 138 0 3 5 7 10;
#X msg 352 138 0 3 5 6 7 10;
#X obj 470 138 sel ionian dorian phrygian lydian mixolydian aeolian
locrain, f 61;
#X obj 182 100 sel major-pentatonic minor-pentatonic blues;
#X msg 470 186 0 2 4 5 7 9 11;
#X msg 521 216 0 2 3 5 7 9 10;
#X msg 573 246 0 1 3 5 7 8 10;
#X msg 625 275 0 2 4 6 7 9 11;
#X msg 677 305 0 2 4 5 7 9 10;
#X msg 729 335 0 2 3 5 7 8 10;
#X msg 781 365 0 1 3 5 6 8 10;
#X obj 890 209 sel lydian-dominant diminished whole-tone altered;
#X msg 890 243 0 2 4 6 7 9 10;
#X msg 962 276 0 2 3 5 6 8 9 11;
#X msg 1035 310 0 2 4 6 8 10;
#X msg 1108 339 0 1 3 4 6 8 10;
#X connect 0 0 6 0;
#X connect 2 0 1 0;
#X connect 3 0 1 0;
#X connect 4 0 1 0;
#X connect 5 0 7 0;
#X connect 5 1 8 0;
#X connect 5 2 9 0;
#X connect 5 3 10 0;
#X connect 5 4 11 0;
#X connect 5 5 12 0;
#X connect 5 6 13 0;
#X connect 5 7 14 0;
#X connect 6 0 2 0;
#X connect 6 1 3 0;
#X connect 6 2 4 0;
#X connect 6 3 5 0;
#X connect 7 0 1 0;
#X connect 8 0 1 0;
#X connect 9 0 1 0;
#X connect 10 0 1 0;
#X connect 11 0 1 0;
#X connect 12 0 1 0;
#X connect 13 0 1 0;
#X connect 14 0 15 0;
#X connect 14 1 16 0;
#X connect 14 2 17 0;
#X connect 14 3 18 0;
#X connect 15 0 1 0;
#X connect 16 0 1 0;
#X connect 17 0 1 0;
#X connect 18 0 1 0;
#X restore -18 81 pd scales;
#X text -82 -54 comment;
#X connect 0 0 1 0;
#X connect 1 0 2 0;
#X connect 1 1 4 0;
#X connect 4 0 3 0;
#X restore 129 28 pd scales;
#X floatatom 296 60 5 0 0 0 - - -, f 5;
#X obj 129 62 prepend set, f 12;
#X connect 0 0 20 0;
#X connect 2 0 10 0;
#X connect 3 0 8 0;
#X connect 4 0 17 0;
#X connect 5 0 6 0;
#X connect 5 0 9 1;
#X connect 6 0 7 0;
#X connect 7 0 5 0;
#X connect 8 0 2 0;
#X connect 8 1 5 0;
#X connect 9 0 11 0;
#X connect 10 0 9 0;
#X connect 11 0 17 0;
#X connect 12 0 5 0;
#X connect 13 0 4 0;
#X connect 13 0 12 0;
#X connect 14 0 3 0;
#X connect 15 0 14 0;
#X connect 15 1 14 1;
#X connect 17 0 1 0;
#X connect 18 0 17 0;
#X connect 18 1 15 0;
#X connect 18 2 13 0;
#X connect 19 0 21 0;
#X connect 19 1 20 0;
#X connect 20 0 18 0;
#X connect 21 0 2 0;
#X restore -68 429 pd scalemaker;
#X obj -68 541 prepend set;
#X obj -68 457 t l l;
#X obj -41 489 zl len;
#X text -243 -3 comment;
#X obj -41 513 s \$0-numnotes;
#X obj 168 329 r \$0-numnotes;
#X text -238 596 scale as semi-tone steps >;
#X obj -73 284 loadbang;
#X obj -73 311 s \$0-to-numoctaves;
#X obj 78 395 maxlib/scale 0.2 1 0 5;
#X msg 590 121 names major-pentatonic minor-pentatonic blues ionian
dorian phygian lydian mixolydian aeolian locrian lydian-dominant diminished
whole-tone altered;
#X connect 0 0 5 0;
#X connect 4 0 66 0;
#X connect 5 0 65 0;
#X connect 6 0 8 0;
#X connect 7 0 23 0;
#X connect 8 0 9 0;
#X connect 9 0 7 0;
#X connect 10 0 65 1;
#X connect 12 0 10 0;
#X connect 14 0 13 0;
#X connect 17 0 65 4;
#X connect 18 0 19 0;
#X connect 19 0 28 0;
#X connect 19 0 35 0;
#X connect 21 0 22 0;
#X connect 22 0 37 0;
#X connect 23 0 21 0;
#X connect 23 1 22 1;
#X connect 24 0 31 0;
#X connect 25 0 26 0;
#X connect 26 0 33 0;
#X connect 28 0 29 0;
#X connect 29 0 24 1;
#X connect 30 0 24 0;
#X connect 30 0 25 0;
#X connect 30 1 29 0;
#X connect 31 0 42 0;
#X connect 31 1 26 0;
#X connect 32 0 43 0;
#X connect 33 0 32 0;
#X connect 33 1 32 1;
#X connect 34 0 38 0;
#X connect 35 0 34 0;
#X connect 37 0 30 0;
#X connect 44 0 40 0;
#X connect 45 0 50 0;
#X connect 50 0 47 0;
#X connect 50 1 48 0;
#X connect 51 0 26 0;
#X connect 52 0 55 0;
#X connect 55 0 57 0;
#X connect 56 0 21 0;
#X connect 57 0 56 0;
#X connect 57 1 58 0;
#X connect 58 0 60 0;
#X connect 61 0 17 0;
#X connect 63 0 64 0;
#X connect 65 0 6 0;
#X connect 65 0 18 0;
#X connect 66 0 2 0;
#X coords 0 -1 1 1 163 116 2 77 102;
