#N canvas -8 -8 1538 787 10;
#X declare -path subpatches;
#X obj 33 308 cnv 15 142 140 empty empty PST-TOUCH 5 5 0 14 #00a800
#fcfcfc 0;
#X obj 232 428 outlet;
#X obj 598 -77 inlet;
#X floatatom 39 427 10 0 0 0 - #0-clipped-value -, f 10;
#X obj 156 313 bng 15 250 50 0 \$0-reset \$0-to-reset rst -20 5 0 10
#fcfcfc #000000 #000000;
#X obj 644 -69 loadbang;
#X obj 644 -42 delay 500;
#X obj 231 50 unpack 0 0 0 0 0 0 0 0, f 52;
#X obj 231 -115 netreceive -u -b;
#X msg 231 -142 listen 8000;
#X obj 231 -169 loadbang;
#X obj 231 -88 oscparse;
#X obj 231 -61 route list;
#X obj 231 23 route touches;
#X obj 351 -92 s pst-osc-in;
#X obj 351 -70 r pst-osc-in;
#X obj 598 -1 s \$0-to-reset;
#X obj 39 370 hsl 127 19 0 1 0 0 empty \$0-scaled-value empty -2 -8
0 10 #000000 #fcfcfc #000000 0 1;
#X obj 39 360 hsl 127 14 0 1 0 1 \$0ceilings \$0ceilingr ceiling 3
5 0 9 #fcfcfc #00fc00 #808080 10200 1;
#X obj 39 405 hsl 127 14 0 1 0 1 \$0curves \$0curver sensitivity 3
5 0 9 #fcfcfc #00fc00 #808080 4400 1;
#X symbolatom 54 335 19 0 0 0 ID #0macr #0macs, f 19;
#X obj 258 -29 r \$0macs;
#X obj 231 -4 route;
#X obj 39 385 hsl 127 14 0 1 0 1 \$0floors \$0floorr floor 3 5 0 9
#fcfcfc #00fc00 #808080 1950 1;
#X obj 285 399 s \$0-clipped-value;
#X obj 464 -151 declare -path subpatches;
#X floatatom 314 200 5 0 0 0 - - -, f 5;
#X obj 232 337 touch-clip;
#X obj 252 294 s \$0-scaled-value;
#X obj 232 244 touch-scale \$0;
#X obj 600 440 s \$0curver;
#X obj 620 130 r \$0curves;
#X obj 680 380 s \$0macr;
#X obj 670 210 r \$0macs;
#X obj 620 420 s \$0floorr;
#X obj 630 160 r \$0floors;
#X obj 650 400 s \$0ceilingr;
#X obj 650 190 r \$0ceilings;
#X obj 600 280 savestate, f 11;
#X text 697 277 👈 bangs when parent is saved;
#X obj 670 310 s \$0-save-state;
#X obj 600 100 r \$0-save-state;
#X obj 600 200 f;
#X obj 600 240 pack f f f s;
#X obj 600 340 unpack f f f s;
#X connect 2 0 16 0;
#X connect 5 0 6 0;
#X connect 6 0 16 0;
#X connect 7 0 29 0;
#X connect 8 0 14 0;
#X connect 9 0 8 0;
#X connect 10 0 9 0;
#X connect 11 0 12 0;
#X connect 12 0 22 0;
#X connect 13 0 7 0;
#X connect 15 0 11 0;
#X connect 21 0 22 1;
#X connect 22 0 13 0;
#X connect 26 0 29 0;
#X connect 27 0 24 0;
#X connect 27 0 1 0;
#X connect 29 0 28 0;
#X connect 29 0 27 0;
#X connect 31 0 42 1;
#X connect 33 0 43 3;
#X connect 35 0 43 1;
#X connect 37 0 43 2;
#X connect 38 0 44 0;
#X connect 38 1 40 0;
#X connect 41 0 42 0;
#X connect 42 0 43 0;
#X connect 43 0 38 0;
#X connect 44 0 30 0;
#X connect 44 1 34 0;
#X connect 44 2 36 0;
#X connect 44 3 32 0;
#X coords 0 -1 1 1 148 149 2 30 304;
