#N canvas 0 0 1334 668 10;
#X obj 266 789 outlet;
#X obj 348 283 prepend set;
#X obj 308 95 inlet;
#X obj 383 95 inlet;
#X floatatom 53 215 21 0 0 0 - #0-scaled-value -, f 21;
#X obj 269 726 s \$0-scaled-value;
#X obj 231 191 s \$0-inlet1;
#X obj 230 229 r \$0-inlet1;
#X obj 53 193 hsl 142 19 0 1 0 0 empty \$0-scaled-value empty -2 -8
0 10 -1 -262144 -1 3542 1;
#X obj 487 231 r \$0-scaled-value;
#X obj 266 757 r \$0-scaled-value;
#X obj 382 788 outlet;
#X obj 185 216 tgl 15 0 empty \$0-trigger-out empty 17 7 0 10 -262144
-1 -1 0 1;
#X obj 487 260 hysteresis 0.05;
#X obj 487 349 > 0.5;
#X obj 487 378 s \$0-trigger-out;
#X obj 53 198 hsl 142 14 0 1 0 1 \$0-threshold \$0-to-threshold threshold
3 5 0 9 -262144 -2112 -1 5700 1;
#X floatatom 514 317 5 0 0 0 - - -, f 5;
#X obj 514 291 r \$0-threshold;
#X floatatom 53 175 9 0 1 1 curve #0-to-curve #0-exponent, f 9;
#X obj 320 576 r \$0-exponent;
#N canvas 778 75 450 522 (subpatch) 0;
#X obj 183 22 inlet;
#X obj 175 152 -;
#X obj 175 187 abs;
#X obj 173 275 bng 15 250 50 0 empty empty empty 17 7 0 10 -262144
-1 -1;
#X obj 221 331 float;
#X obj 183 60 t f f b f, f 11;
#X obj 220 387 outlet;
#X obj 194 115 float;
#X obj 176 226 < 5;
#X connect 0 0 5 0;
#X connect 1 0 2 0;
#X connect 2 0 8 0;
#X connect 3 0 4 0;
#X connect 4 0 6 0;
#X connect 5 0 7 1;
#X connect 5 1 1 0;
#X connect 5 2 7 0;
#X connect 5 3 4 1;
#X connect 7 0 1 1;
#X connect 8 0 3 0;
#X restore 231 86 pd;
#X obj 230 595 moses 0;
#X obj 269 638 pow 0.8, f 9;
#X obj 275 441 min;
#X floatatom 306 442 5 0 0 0 - - -, f 5;
#X obj 275 409 t f b;
#X floatatom 396 443 5 0 0 0 - - -, f 5;
#X obj 365 410 t f b;
#X obj 365 442 max;
#X obj 185 176 bng 15 250 50 0 \$0-reset \$0-to-reset reset -33 5 0
10 -262144 -1 -1;
#X obj 403 309 r \$0-reset;
#X obj 396 465 change;
#X obj 306 464 change;
#X obj 230 541 * -1;
#X obj 230 568 + 1;
#X obj 429 103 loadbang;
#X msg 404 344 -2728;
#X obj 429 130 delay 500;
#X obj 382 758 r \$0-trigger-out;
#X obj 231 50 unpack 0 0 0 0 0 0 0 0, f 52;
#X obj 231 -85 netreceive -u -b;
#X msg 231 -112 listen 8000;
#X obj 231 -139 loadbang;
#X obj 231 -58 oscparse;
#X obj 231 -31 route list;
#X obj 231 -4 route \$1;
#X obj 231 23 route touches;
#X obj 351 -62 s pst-osc-in;
#X obj 351 -40 r pst-osc-in;
#X obj 231 118 mavg 10;
#X obj 230 508 maxlib/scale 0 1024 0 1 0, f 64;
#X obj 231 158 * -1;
#X obj 308 211 s \$0-to-threshold;
#X obj 383 171 s \$0-to-reset;
#X obj 574 707 s \$0-to-curve;
#X obj 641 604 loadbang;
#X obj 641 630 delay 500;
#X obj 440 661 print;
#X msg 575 636 set \$1;
#X floatatom 576 671 5 0 0 0 - - -, f 5;
#X obj 573 156 print;
#X connect 1 0 37 0;
#X connect 2 0 53 0;
#X connect 3 0 54 0;
#X connect 3 0 61 0;
#X connect 7 0 1 0;
#X connect 7 0 26 0;
#X connect 7 0 28 0;
#X connect 7 0 51 0;
#X connect 9 0 13 0;
#X connect 10 0 0 0;
#X connect 13 0 14 0;
#X connect 14 0 15 0;
#X connect 17 0 14 1;
#X connect 18 0 17 0;
#X connect 20 0 23 1;
#X connect 20 0 59 0;
#X connect 21 0 50 0;
#X connect 22 1 23 0;
#X connect 23 0 5 0;
#X connect 24 0 25 0;
#X connect 25 0 24 1;
#X connect 25 0 33 0;
#X connect 26 0 24 0;
#X connect 26 1 25 0;
#X connect 27 0 29 1;
#X connect 27 0 32 0;
#X connect 28 0 29 0;
#X connect 28 1 27 0;
#X connect 29 0 27 0;
#X connect 31 0 37 0;
#X connect 32 0 51 2;
#X connect 33 0 51 1;
#X connect 34 0 35 0;
#X connect 35 0 22 0;
#X connect 36 0 38 0;
#X connect 37 0 25 0;
#X connect 37 0 27 0;
#X connect 38 0 54 0;
#X connect 39 0 11 0;
#X connect 40 0 21 0;
#X connect 41 0 48 0;
#X connect 42 0 41 0;
#X connect 43 0 42 0;
#X connect 44 0 45 0;
#X connect 45 0 46 0;
#X connect 46 0 47 0;
#X connect 47 0 40 0;
#X connect 49 0 44 0;
#X connect 50 0 52 0;
#X connect 51 0 34 0;
#X connect 52 0 6 0;
#X connect 56 0 57 0;
#X connect 57 0 60 0;
#X connect 59 0 60 0;
#X connect 60 0 55 0;
#X coords 0 -1 1 1 166 82 1 48 153;
