#N canvas 0 0 1522 772 10;
#X obj 79 104 cnv 15 132 122 empty empty PST-SOUND 5 5 0 14 #00a800
#fcfcfc 0;
#X text -243 -3 comment;
#X symbolatom 85 138 20 0 0 2 directory #0directoryr #0directorys,
f 20;
#X obj 352 345 folder_list;
#X obj 473 416 print;
#X obj 608 625 coll;
#C restore;
#X obj 418 519 list append;
#X obj 352 462 counter, f 11;
#X obj 352 384 t b s;
#X floatatom 284 588 5 0 0 0 - - -, f 5;
#X msg 352 537 set \$1;
#X obj 284 612 s \$0-numsamples;
#X obj 284 637 r \$0-numsamples;
#X floatatom 284 662 5 0 0 0 - - -, f 5;
#X obj 278 98 r \$0directorys;
#X obj 398 256 tosymbol;
#X obj 475 353 r \$0-numsamples;
#X obj 473 387 sprintf %i samples found;
#X floatatom 1 387 5 0 0 1 num-samples #0-numsamples -, f 5;
#X obj 1228 106 sel 0;
#X obj 1229 64 r \$0inlet1;
#X obj 1282 179 %;
#X obj 1315 144 r \$0-numsamples;
#X msg 1228 153 0;
#X obj 1283 141 - 1;
#X obj 1291 215 + 1;
#X text 1221 333 stop sample at value 0 else play sample \, wrapping
around index;
#X obj 1544 90 inlet;
#X obj 1561 114 s \$0inlet2;
#X obj 1497 158 s \$0directoryr;
#X text 1448 15 right inlet selects directory;
#X obj 431 1029 readsf~;
#X msg 575 938 open ///home/pi/Desktop/cubbytown/Playable-Streets-Toolkit/pure-data/../../samples/008.wav
\, start;
#X msg 684 843 addcomma;
#X msg 611 843 add2 start;
#X obj 745 843 sprintf set open %s;
#X obj 431 820 moses 1;
#X obj 398 198 sprintf %s/*.wav;
#X obj 431 1069 outlet~;
#X obj 969 822 strippath;
#X obj 575 715 t b b b s s;
#X obj 973 897 s \$0-nowplaying;
#X obj 973 922 r \$0-nowplaying;
#X obj 312 973 s \$0-nowplaying;
#X floatatom 459 780 5 0 0 0 - - -, f 5;
#X obj 1494 127 tosymbol;
#X obj 278 137 t b b b s 1 clear, f 50;
#X obj 264 273 s \$0-to-coll;
#X obj 607 588 r \$0-to-coll;
#X obj 575 185 s \$0-to-coll;
#X obj 420 555 s \$0-to-coll;
#X obj 472 908 s \$0-to-coll;
#X msg 538 185 0;
#X obj -159 580 bng 15 250 50 0 \$0-opendialogs empty empty 17 7 0
10 #fcfcfc #808080 #808080;
#X obj -135 734 s \$0-opendialog;
#X obj -168 678 r \$0-opendialog;
#X obj -147 710 s \$0directoryr;
#X obj -120 633 print;
#X obj -117 574 r \$0-opendialogs;
#X obj -119 604 tof/folderpanel;
#X text -158 522 todo: open dialog box, f 19;
#X msg 269 226 sort -1 2;
#N canvas 785 211 450 323 printdump 0;
#X obj 143 50 inlet;
#X obj 380 66 inlet;
#X obj 290 268 outlet;
#X obj 291 200 gate 2;
#X msg 357 154 1;
#X obj 322 236 print;
#X msg 218 182 dump;
#X obj 155 104 t b 2;
#X obj 193 221 s \$0-to-coll;
#X obj 317 50 inlet;
#X obj 398 105 loadbang;
#X connect 0 0 7 0;
#X connect 1 0 4 0;
#X connect 3 0 2 0;
#X connect 3 1 5 0;
#X connect 4 0 3 0;
#X connect 6 0 8 0;
#X connect 7 0 6 0;
#X connect 7 1 3 0;
#X connect 9 0 3 1;
#X connect 10 0 4 0;
#X restore 575 663 pd printdump;
#X obj 576 623 bng 15 250 50 0 empty empty empty 17 7 0 10 #fcfcfc
#000000 #000000;
#X floatatom 85 176 5 0 0 2 play-sample #0-playindexr #0-playindexs
, f 5;
#X obj 116 176 cnv 15 81 17 empty \$0canvas of-0 5 6 0 10 #00a800 #000000
0;
#X floatatom 1 412 5 0 0 0 - - -, f 5;
#X obj 1 505 s \$0canvas;
#X obj 2 470 prepend label;
#X obj 1 442 sprintf of-%i;
#X obj 312 935 prepend label;
#X obj 81 208 cnv 15 81 17 empty \$0-nowplaying --- 5 6 0 10 #00a800
#000000 0;
#X obj 968 863 prepend label;
#X msg 318 897 symbol ---;
#X obj 1224 309 s \$0-playindexr;
#X obj 432 747 r \$0-playindexs;
#X text 1445 40 middle inlet selects sample;
#X obj 1374 21 inlet;
#X obj 900 30 inlet;
#X obj 1375 104 s \$0-playindexr;
#X floatatom 1322 30 5 0 0 0 - - -, f 5;
#X obj 1375 75 prepend set;
#X obj 904 63 > 0;
#X obj 905 90 change;
#X obj 721 257 s \$0-playindexr;
#X obj 721 223 bng 15 250 50 0 empty empty empty 17 7 0 10 #fcfcfc
#000000 #000000;
#X obj 927 179 s \$0-playindexs;
#X obj 910 130 sel 1;
#X text 410 60 non-zero in left inlet triggers sample >;
#X obj 863 400 counter;
#X obj 915 344 r \$0-numsamples;
#X floatatom 863 458 5 0 0 0 - - -, f 5;
#X obj 917 371 - 1;
#X obj 863 429 + 1;
#X obj 167 177 tgl 15 0 \$0autos \$0autor auto 17 7 0 10 #fcfcfc #5c5c5c
#000000 0 1;
#X obj 860 272 gate;
#X obj 854 184 t b b;
#X obj 686 284 r \$0-playindexs;
#X obj 863 515 s \$0-playindexr;
#X obj 863 486 prepend set;
#X obj 950 17 tgl 15 0 empty empty empty 17 7 0 10 #fcfcfc #000000
#000000 0 1;
#X obj 1060 47 r \$0-playindexr;
#X floatatom 1065 170 6 0 0 0 - - -, f 6;
#X obj 1062 74 sel 0;
#X obj 1065 130 prepend set;
#X obj 686 312 sel 0;
#X msg 850 352 inc;
#X obj 713 341 prepend set;
#X obj 816 226 r \$0autos;
#X obj 167 196 tgl 15 0 \$0loops \$0loopr loop 17 7 0 10 #fcfcfc #5c5c5c
#000000 0 1;
#X obj 516 1074 gate;
#X obj 516 1044 r \$0loops;
#X obj 1200 680 savestate, f 11;
#X text 1297 677 👈 bangs when parent is saved;
#X obj 1270 710 s \$0-save-state;
#X obj 1200 500 r \$0-save-state;
#X obj 1200 600 f;
#X obj 1220 840 s \$0octaver;
#X obj 1230 540 r \$0octaves;
#X obj 1280 780 s \$0directoryr;
#X obj 1270 600 r \$0directorys;
#X obj 1240 820 s \$0autor;
#X obj 1240 560 r \$0autos;
#X obj 1250 580 r \$0loops;
#X obj 1260 800 s \$0loopr;
#X obj 1200 860 s \$0-playindexr;
#X obj 1220 520 r \$0-playindexr;
#X obj 1200 640 pack f f f f s;
#X obj 1200 740 unpack f f f f s;
#X connect 3 0 8 0;
#X connect 5 0 62 1;
#X connect 5 3 62 2;
#X connect 6 0 50 0;
#X connect 7 0 6 0;
#X connect 7 0 10 0;
#X connect 8 0 7 0;
#X connect 8 1 6 1;
#X connect 9 0 11 0;
#X connect 10 0 9 0;
#X connect 12 0 13 0;
#X connect 14 0 46 0;
#X connect 15 0 3 1;
#X connect 16 0 17 0;
#X connect 17 0 4 0;
#X connect 18 0 66 0;
#X connect 19 0 23 0;
#X connect 19 1 24 0;
#X connect 20 0 19 0;
#X connect 21 0 25 0;
#X connect 22 0 21 1;
#X connect 23 0 74 0;
#X connect 24 0 21 0;
#X connect 25 0 74 0;
#X connect 27 0 28 0;
#X connect 27 0 45 0;
#X connect 31 0 38 0;
#X connect 31 1 110 1;
#X connect 32 0 31 0;
#X connect 33 0 32 0;
#X connect 34 0 32 0;
#X connect 35 0 32 0;
#X connect 36 0 31 0;
#X connect 36 0 73 0;
#X connect 36 1 51 0;
#X connect 37 0 15 0;
#X connect 39 0 72 0;
#X connect 40 0 32 0;
#X connect 40 1 34 0;
#X connect 40 2 33 0;
#X connect 40 3 35 0;
#X connect 40 4 39 0;
#X connect 44 0 36 0;
#X connect 45 0 29 0;
#X connect 46 0 61 0;
#X connect 46 1 9 0;
#X connect 46 2 3 0;
#X connect 46 3 37 0;
#X connect 46 4 7 2;
#X connect 46 5 49 0;
#X connect 46 5 52 0;
#X connect 48 0 5 0;
#X connect 52 0 9 0;
#X connect 58 0 59 0;
#X connect 59 0 57 0;
#X connect 61 0 47 0;
#X connect 62 0 40 0;
#X connect 63 0 62 0;
#X connect 66 0 69 0;
#X connect 68 0 67 0;
#X connect 69 0 68 0;
#X connect 70 0 43 0;
#X connect 72 0 41 0;
#X connect 73 0 70 0;
#X connect 75 0 36 0;
#X connect 77 0 81 0;
#X connect 78 0 82 0;
#X connect 80 0 81 0;
#X connect 81 0 79 0;
#X connect 82 0 83 0;
#X connect 83 0 87 0;
#X connect 85 0 84 0;
#X connect 87 0 96 0;
#X connect 87 1 86 0;
#X connect 89 0 93 0;
#X connect 90 0 92 0;
#X connect 91 0 99 0;
#X connect 92 0 89 4;
#X connect 93 0 91 0;
#X connect 95 0 106 0;
#X connect 96 0 85 0;
#X connect 96 1 95 1;
#X connect 97 0 105 0;
#X connect 99 0 98 0;
#X connect 100 0 82 0;
#X connect 101 0 103 0;
#X connect 103 1 104 0;
#X connect 104 0 102 0;
#X connect 105 1 107 0;
#X connect 106 0 89 0;
#X connect 107 0 89 0;
#X connect 108 0 95 0;
#X connect 110 0 32 0;
#X connect 111 0 110 0;
#X connect 112 0 128 0;
#X connect 112 1 114 0;
#X connect 115 0 116 0;
#X connect 116 0 127 0;
#X connect 118 0 127 1;
#X connect 120 0 127 4;
#X connect 122 0 127 2;
#X connect 123 0 127 3;
#X connect 126 0 116 1;
#X connect 127 0 112 0;
#X connect 128 0 125 0;
#X connect 128 1 117 0;
#X connect 128 2 121 0;
#X connect 128 3 124 0;
#X connect 128 4 119 0;
#X coords 0 -1 1 1 137 127 2 77 102;
