#N canvas -7 0 665 675 10;
#X obj 79 104 cnv 15 147 106 empty empty PST-SOUND 5 5 0 14 -4033 -262144
0;
#X obj -159 6 inlet;
#X text -243 -3 comment;
#N canvas 678 128 645 439 numbercruncher 0;
#X obj 87 10 inlet;
#X obj 325 249 loadbang;
#X obj 134 415 outlet;
#X text 227 82 Sends creation argument list to the GOP;
#X text 292 214 Receives GOP values and sends them on again to the
saver;
#X obj 325 274 t b b b;
#X obj 245 225 t b f;
#X obj 149 227 t b f;
#X msg 344 323 symbol flt;
#X obj 149 196 r \$0scaleindexs;
#X obj 135 139 s \$0scaleindexr;
#X msg 364 300 symbol flt;
#X obj 241 138 s \$0octaver;
#X obj 245 196 r \$0octaves;
#X obj 87 44 unpack s s s f s f;
#X obj 26 107 s \$0directoryr;
#X obj 43 197 r \$0directorys;
#X obj 43 226 t b s;
#X obj 134 377 pack s s s f s f;
#X msg 43 321 symbol sym;
#X connect 0 0 14 0;
#X connect 1 0 5 0;
#X connect 5 0 19 0;
#X connect 5 1 8 0;
#X connect 5 2 11 0;
#X connect 6 0 19 0;
#X connect 6 1 18 5;
#X connect 7 0 19 0;
#X connect 7 1 18 3;
#X connect 8 0 18 2;
#X connect 9 0 7 0;
#X connect 11 0 18 4;
#X connect 13 0 6 0;
#X connect 14 1 15 0;
#X connect 14 3 10 0;
#X connect 14 5 12 0;
#X connect 16 0 17 0;
#X connect 17 0 19 0;
#X connect 17 1 18 1;
#X connect 18 0 2 0;
#X connect 19 0 18 0;
#X restore 902 594 pd numbercruncher;
#X obj 902 715 iemguts/canvasargs;
#X obj 902 515 iemguts/canvasargs;
#X obj 809 425 loadbang;
#X obj 902 563 list trim;
#X obj 902 540 list;
#X obj 809 469 t b b, f 16;
#X msg 809 552 1;
#X obj 902 670 spigot;
#X text 902 740 v1.3 \, 2015 Liam Goodacre \, liam.goodacre@gmail.com
;
#X text 943 663 This spigot is necessary because if one [canvasargs]
object feeds the creation argument straight into another it will cause
PD to crash.;
#X obj -159 31 s \$0inlet1;
#X symbolatom 85 138 20 0 0 2 directory #0directoryr #0directorys,
f 20;
#X obj 882 425 bng 15 250 50 0 empty empty empty 17 7 0 10 -262144
-1 -1;
#X obj 352 345 folder_list;
#X obj 776 274 print;
#X obj 575 603 coll;
#C restore;
#X obj 418 519 list append;
#X obj 352 462 counter, f 11;
#X obj 352 384 t b s;
#X floatatom 278 588 5 0 0 0 - - -, f 5;
#X msg 352 537 set \$1;
#X obj 278 612 s \$0-numsamples;
#X obj 278 637 r \$0-numsamples;
#X floatatom 278 662 5 0 0 0 - - -, f 5;
#X obj 278 98 r \$0directorys;
#X obj 368 256 tosymbol;
#X obj 778 211 r \$0-numsamples;
#X obj 776 245 sprintf %i samples found;
#X floatatom 85 158 5 0 0 1 num-samples #0-numsamples -, f 5;
#X obj -193 110 sel 0;
#X obj -192 68 r \$0inlet1;
#X obj -139 183 %;
#X obj -105 149 r \$0-numsamples;
#X obj -197 263 s \$0-playindex;
#X msg -193 157 0;
#X obj -138 145 - 1;
#X obj -130 219 + 1;
#X text -200 287 stop sample at value 0 else play sample \, wrapping
around index;
#X obj -31 29 inlet;
#X obj -14 59 s \$0inlet2;
#X obj -33 90 s \$0directoryr;
#X text -122 0 left inlet selects sample;
#X text 37 35 right inlet selects directory;
#X obj 278 137 t b b s 1 clear, f 50;
#X obj 432 587 r \$0-playindex;
#X obj 431 1029 readsf~;
#X msg 575 938 open E:/dev/Playable-Streets-Toolkit/pure-data/samples/005.wav
\, start;
#X msg 684 843 addcomma;
#X msg 611 843 add2 start;
#X obj 745 843 sprintf set open %s;
#X obj 431 660 moses 1;
#X obj 368 198 sprintf %s/*.wav;
#X obj 431 1069 outlet~;
#X obj 944 871 strippath;
#X obj 575 685 t b b b s s;
#X obj 973 897 s \$0-nowplaying;
#X obj 973 922 r \$0-nowplaying;
#X symbolatom 86 188 20 0 0 2 - #0-nowplaying #0-blank, f 20;
#X obj 318 771 s \$0-nowplaying;
#X floatatom 459 620 5 0 0 0 - - -, f 5;
#X msg 318 737 symbol stopped;
#X connect 1 0 14 0;
#X connect 3 0 11 0;
#X connect 5 0 8 0;
#X connect 6 0 9 0;
#X connect 7 0 3 0;
#X connect 8 0 7 0;
#X connect 9 0 10 0;
#X connect 9 1 5 0;
#X connect 10 0 11 1;
#X connect 11 0 4 0;
#X connect 16 0 9 0;
#X connect 17 0 22 0;
#X connect 19 0 58 0;
#X connect 20 0 19 0;
#X connect 21 0 20 0;
#X connect 21 0 24 0;
#X connect 22 0 21 0;
#X connect 22 1 20 1;
#X connect 23 0 25 0;
#X connect 24 0 23 0;
#X connect 26 0 27 0;
#X connect 28 0 47 0;
#X connect 29 0 17 1;
#X connect 30 0 31 0;
#X connect 31 0 18 0;
#X connect 33 0 38 0;
#X connect 33 1 39 0;
#X connect 34 0 33 0;
#X connect 35 0 40 0;
#X connect 36 0 35 1;
#X connect 38 0 37 0;
#X connect 39 0 35 0;
#X connect 40 0 37 0;
#X connect 42 0 43 0;
#X connect 42 0 44 0;
#X connect 47 0 23 0;
#X connect 47 1 17 0;
#X connect 47 2 55 0;
#X connect 47 3 21 2;
#X connect 47 4 19 0;
#X connect 48 0 54 0;
#X connect 49 0 56 0;
#X connect 50 0 49 0;
#X connect 51 0 50 0;
#X connect 52 0 50 0;
#X connect 53 0 50 0;
#X connect 54 0 49 0;
#X connect 54 0 64 0;
#X connect 54 1 19 0;
#X connect 55 0 29 0;
#X connect 57 0 59 0;
#X connect 58 0 50 0;
#X connect 58 1 52 0;
#X connect 58 2 51 0;
#X connect 58 3 53 0;
#X connect 58 4 57 0;
#X connect 63 0 54 0;
#X connect 64 0 62 0;
#X coords 0 -1 1 1 152 111 2 77 102;
