#N canvas 0 0 1522 772 10;
#X obj 79 104 cnv 15 147 106 empty empty PST-SCALE 5 5 0 14 #00a800
#fcfcfc 0;
#X obj 89 347 inlet;
#X dropdown 82 134 21 0 0 0 - #0-to-scale-dropdown #0-from-scale-dropdown
, f 21;
#X obj 407 3 loadbang;
#X obj 79 520 change;
#X obj 79 463 int;
#X text 210 357 < number of notes in scale;
#X text 117 491 < current note, f 10;
#X floatatom 169 361 5 0 0 0 - - -, f 5;
#X obj 229 499 > 0;
#X obj 228 532 * 127;
#X text 269 532 < current velocity;
#X msg -78 646 0 2 4 6 7 9 10, f 25;
#X obj 79 555 t b f, f 13;
#X obj 134 1029 pack, f 5;
#X obj 70 1145 prepend set;
#X msg 69 1220 150;
#X text 98 1216 < store last note to send note off on next note, f
18;
#X obj 228 942 prepend set;
#X msg 228 982 0;
#X obj 134 1067 t l b, f 29;
#X obj 69 1285 pack;
#X obj 69 1256 t f 0;
#X obj 260 620 sel 0;
#X obj 260 589 change;
#X text 308 616 < send note off when under thresh, f 18;
#X obj 73 897 + 64;
#X obj 260 651 s \$0-noteoff;
#X text 110 897 < scale offset;
#X obj 483 852 outlet;
#X obj 136 1094 s \$0-notepairout;
#X obj 68 1314 s \$0-notepairout;
#X obj 483 811 r \$0-notepairout;
#X obj 482 682 r \$0-notepairout;
#X obj 481 772 s \$0-noteout;
#X obj 515 747 s \$0-velocityout;
#X obj 482 715 unpack;
#X obj 134 1185 r \$0-noteoff;
#X floatatom 82 154 5 1 8 1 number-of-octaves #0-to-num-octaves #0-from-num-octaves
, f 5;
#N canvas 595 175 769 463 scalemaker 0;
#X obj 296 28 inlet;
#X obj 223 695 outlet;
#X msg 335 318 0 2 4 6 7 9 10;
#X obj 366 203 bng 15 250 50 0 empty empty empty 17 7 0 10 #fcfcfc
#000000 #000000;
#X msg 593 546 set;
#X floatatom 427 340 5 0 0 0 - - -, f 5;
#X obj 469 330 + 12;
#X obj 469 354 prepend set;
#X obj 366 260 t b b;
#X obj 410 532 + 0;
#X obj 409 563 prepend add2;
#X msg 427 258 set 0;
#X obj 604 202 bng 15 250 50 0 empty empty empty 17 7 0 10 #fcfcfc
#000000 #000000;
#X obj 365 154 uzi;
#X obj 365 119 t b i;
#X text 109 319 scale as semi-tone steps >;
#X msg 282 658 0 2 4 6 7 9 10;
#X obj 296 86 t b i b, f 52;
#N canvas 76 58 496 733 scales 0;
#X obj 65 27 t b s, f 8;
#X obj 65 119 outlet;
#X obj -22 132 outlet;
#N canvas 75 167 1085 398 scales 0;
#X obj 182 59 inlet;
#X obj 812 556 outlet;
#X msg 182 138 0 2 4 7 9;
#X msg 267 138 0 3 5 7 10;
#X msg 352 138 0 3 5 6 7 10;
#X obj 470 138 sel ionian dorian phrygian lydian mixolydian aeolian
locrain, f 61;
#X obj 182 100 sel major-pentatonic minor-pentatonic blues;
#X msg 470 186 0 2 4 5 7 9 11;
#X msg 521 216 0 2 3 5 7 9 10;
#X msg 573 246 0 1 3 5 7 8 10;
#X msg 625 275 0 2 4 6 7 9 11;
#X msg 677 305 0 2 4 5 7 9 10;
#X msg 729 335 0 2 3 5 7 8 10;
#X msg 781 365 0 1 3 5 6 8 10;
#X obj 890 209 sel lydian-dominant diminished whole-tone altered;
#X msg 890 243 0 2 4 6 7 9 10;
#X msg 962 276 0 2 3 5 6 8 9 11;
#X msg 1035 310 0 2 4 6 8 10;
#X msg 1108 339 0 1 3 4 6 8 10;
#X connect 0 0 6 0;
#X connect 2 0 1 0;
#X connect 3 0 1 0;
#X connect 4 0 1 0;
#X connect 5 0 7 0;
#X connect 5 1 8 0;
#X connect 5 2 9 0;
#X connect 5 3 10 0;
#X connect 5 4 11 0;
#X connect 5 5 12 0;
#X connect 5 6 13 0;
#X connect 5 7 14 0;
#X connect 6 0 2 0;
#X connect 6 1 3 0;
#X connect 6 2 4 0;
#X connect 6 3 5 0;
#X connect 7 0 1 0;
#X connect 8 0 1 0;
#X connect 9 0 1 0;
#X connect 10 0 1 0;
#X connect 11 0 1 0;
#X connect 12 0 1 0;
#X connect 13 0 1 0;
#X connect 14 0 15 0;
#X connect 14 1 16 0;
#X connect 14 2 17 0;
#X connect 14 3 18 0;
#X connect 15 0 1 0;
#X connect 16 0 1 0;
#X connect 17 0 1 0;
#X connect 18 0 1 0;
#X restore -22 93 pd scales;
#X text -82 -54 comment;
#X obj 65 -5 r \$0scalename;
#X connect 0 0 1 0;
#X connect 0 1 3 0;
#X connect 3 0 2 0;
#X connect 5 0 0 0;
#X restore 129 28 pd scales;
#X floatatom 296 60 5 0 0 0 - - -, f 5;
#X obj 129 62 prepend set, f 12;
#X obj 340 457 cyclone/zl iter 1;
#X connect 0 0 19 0;
#X connect 2 0 21 0;
#X connect 3 0 8 0;
#X connect 4 0 16 0;
#X connect 5 0 6 0;
#X connect 5 0 9 1;
#X connect 6 0 7 0;
#X connect 7 0 5 0;
#X connect 8 0 2 0;
#X connect 8 1 5 0;
#X connect 9 0 10 0;
#X connect 10 0 16 0;
#X connect 11 0 5 0;
#X connect 12 0 4 0;
#X connect 12 0 11 0;
#X connect 13 0 3 0;
#X connect 14 0 13 0;
#X connect 14 1 13 1;
#X connect 16 0 1 0;
#X connect 17 0 16 0;
#X connect 17 1 14 0;
#X connect 17 2 12 0;
#X connect 18 0 20 0;
#X connect 18 1 19 0;
#X connect 19 0 17 0;
#X connect 20 0 2 0;
#X connect 21 0 9 0;
#X restore -78 479 pd scalemaker;
#X obj -78 591 prepend set;
#X obj -78 507 t l l;
#X obj -51 539 zl len;
#X text -243 -3 comment;
#X obj -51 563 s \$0-numnotes;
#X obj 168 329 r \$0-numnotes;
#X text -248 646 scale as semi-tone steps >;
#X msg 404 78 names major-pentatonic minor-pentatonic blues ionian
dorian phygian lydian mixolydian aeolian locrian lydian-dominant diminished
whole-tone altered;
#N canvas 676 128 650 442 numbercruncher 0;
#X obj 87 10 inlet;
#X obj 325 249 loadbang;
#X obj 134 415 outlet;
#X text 227 82 Sends creation argument list to the GOP;
#X text 292 214 Receives GOP values and sends them on again to the
saver;
#X msg 43 321 symbol flt;
#X obj 325 274 t b b b;
#X obj 43 226 t b f;
#X obj 245 225 t b f;
#X obj 149 227 t b f;
#X msg 344 323 symbol flt;
#X obj 134 377 pack s f s f s f;
#X obj 87 44 unpack s f s f s f;
#X msg 364 300 symbol flt;
#X obj 135 139 s \$0-to-scale-index;
#X obj 40 110 s \$0-to-reverse;
#X obj 30 200 r \$0-from-reverse;
#X obj 149 166 r \$0-from-scale-index;
#X obj 240 110 s \$0-to-num-octaves;
#X obj 245 196 r \$0-from-num-octaves;
#X connect 0 0 12 0;
#X connect 1 0 6 0;
#X connect 5 0 11 0;
#X connect 6 0 5 0;
#X connect 6 1 10 0;
#X connect 6 2 13 0;
#X connect 7 0 5 0;
#X connect 7 1 11 1;
#X connect 8 0 5 0;
#X connect 8 1 11 5;
#X connect 9 0 5 0;
#X connect 9 1 11 3;
#X connect 10 0 11 2;
#X connect 11 0 2 0;
#X connect 12 1 15 0;
#X connect 12 3 14 0;
#X connect 12 5 18 0;
#X connect 13 0 11 4;
#X connect 16 0 7 0;
#X connect 17 0 9 0;
#X connect 19 0 8 0;
#X restore 782 544 pd numbercruncher;
#X obj 782 665 iemguts/canvasargs;
#X obj 782 465 iemguts/canvasargs;
#X obj 689 375 loadbang;
#X obj 782 513 list trim;
#X obj 782 490 list;
#X obj 689 419 t b b, f 16;
#X msg 689 502 1;
#X obj 782 620 spigot;
#X text 782 690 v1.3 \, 2015 Liam Goodacre \, liam.goodacre@gmail.com
;
#X text 823 613 This spigot is necessary because if one [canvasargs]
object feeds the creation argument straight into another it will cause
PD to crash.;
#X obj 514 135 route names;
#X obj 514 281 s \$0scalename;
#X obj 613 197 t b i;
#X obj 613 163 + 1, f 4;
#X floatatom 237 136 4 0 0 0 - #0-to-scale-index #0-from-scale-index
, f 4;
#X obj 653 164 prepend set;
#X floatatom -78 428 5 0 0 0 - - -, f 5;
#X obj 407 33 t b b b;
#X obj 83 175 tgl 15 0 \$0-from-reverse \$0-to-reverse reverse 17 7
0 10 #e8e8e8 #808080 #000000 1 1;
#X msg -155 780 mode reg;
#X msg -95 780 mode rev;
#X obj -155 739 sel 0 1;
#X obj -182 715 t b f;
#X obj 78 395 maxlib/scale 0 1 0 5;
#X obj 72 869 cyclone/zl nth;
#X obj 514 252 cyclone/zl nth;
#X obj -75 831 cyclone/zl;
#X obj 42 291 hsl 128 15 0 1 0 0 empty empty empty -2 -8 0 10 #fcfcfc
#000000 #000000 0 1;
#X obj 73 924 t f f b, f 21;
#X obj 79 423 t f f;
#X text 595 706 👈needed?;
#X obj 803 130 r \$0-from-scale-dropdown;
#X obj 476 48 s \$0-to-scale-index;
#X obj 613 134 r \$0-from-scale-index;
#X obj 803 198 s \$0-to-scale-index;
#X text 607 280 👈 sends to [pd scalemaker];
#X obj 352 193 s \$0-to-scale-dropdown;
#X obj -182 687 r \$0-from-reverse;
#X obj 654 199 s \$0-to-scale-dropdown;
#X obj 270 80 s \$0-to-num-octaves;
#X obj -78 386 r \$0-from-num-octaves;
#X obj -182 862 s \$0-to-num-octaves;
#X connect 1 0 72 0;
#X connect 3 0 66 0;
#X connect 4 0 13 0;
#X connect 5 0 4 0;
#X connect 8 0 72 4;
#X connect 9 0 10 0;
#X connect 10 0 18 0;
#X connect 10 0 24 0;
#X connect 12 0 75 0;
#X connect 13 0 12 0;
#X connect 13 1 73 1;
#X connect 14 0 20 0;
#X connect 15 0 16 0;
#X connect 16 0 22 0;
#X connect 18 0 19 0;
#X connect 19 0 14 1;
#X connect 20 0 30 0;
#X connect 20 1 16 0;
#X connect 21 0 31 0;
#X connect 22 0 21 0;
#X connect 22 1 21 1;
#X connect 23 0 27 0;
#X connect 24 0 23 0;
#X connect 26 0 77 0;
#X connect 32 0 29 0;
#X connect 33 0 36 0;
#X connect 36 0 34 0;
#X connect 36 1 35 0;
#X connect 37 0 16 0;
#X connect 39 0 41 0;
#X connect 40 0 12 0;
#X connect 41 0 40 0;
#X connect 41 1 42 0;
#X connect 42 0 44 0;
#X connect 45 0 8 0;
#X connect 47 0 59 0;
#X connect 47 0 85 0;
#X connect 48 0 56 0;
#X connect 50 0 53 0;
#X connect 51 0 54 0;
#X connect 52 0 48 0;
#X connect 53 0 52 0;
#X connect 54 0 55 0;
#X connect 54 1 50 0;
#X connect 55 0 56 1;
#X connect 56 0 49 0;
#X connect 59 0 74 0;
#X connect 61 0 74 0;
#X connect 61 1 74 1;
#X connect 62 0 61 0;
#X connect 64 0 87 0;
#X connect 65 0 39 0;
#X connect 66 0 88 0;
#X connect 66 1 47 0;
#X connect 66 2 81 0;
#X connect 68 0 75 0;
#X connect 69 0 75 0;
#X connect 70 0 68 0;
#X connect 70 1 69 0;
#X connect 71 0 90 0;
#X connect 71 1 70 0;
#X connect 72 0 78 0;
#X connect 73 0 26 0;
#X connect 74 0 60 0;
#X connect 75 0 73 0;
#X connect 76 0 72 0;
#X connect 77 0 15 0;
#X connect 77 1 14 0;
#X connect 77 2 19 0;
#X connect 78 0 5 0;
#X connect 78 1 9 0;
#X connect 80 0 83 0;
#X connect 82 0 62 0;
#X connect 82 0 64 0;
#X connect 86 0 71 0;
#X connect 89 0 65 0;
#X coords 0 -1 1 1 152 111 2 77 102;
