#N canvas 0 0 1334 668 10;
#X obj 79 104 cnv 15 132 122 empty empty PST-SOUND 5 5 0 14 -2689 -262144
0;
#X text -243 -3 comment;
#N canvas 81 131 645 439 numbercruncher 0;
#X obj 87 10 inlet;
#X obj 437 259 loadbang;
#X obj 134 495 outlet;
#X text 490 54 Sends creation argument list to the GOP;
#X text 643 187 Receives GOP values and sends them on again to the
saver;
#X obj 245 225 t b f;
#X obj 149 227 t b f;
#X msg 456 333 symbol flt;
#X msg 476 310 symbol flt;
#X obj 241 138 s \$0octaver;
#X obj 245 196 r \$0octaves;
#X obj 26 107 s \$0directoryr;
#X obj 43 197 r \$0directorys;
#X obj 43 226 t b s;
#X msg 43 411 symbol sym;
#X obj 328 139 s \$0autor;
#X msg 557 323 symbol flt;
#X obj 330 219 t b f;
#X obj 330 190 r \$0autos;
#X obj 437 284 t b b b b b;
#X msg 653 325 symbol flt;
#X obj 134 457 pack s s s f s f s f s f;
#X obj 401 221 t b f;
#X obj 401 192 r \$0loops;
#X obj 87 44 unpack s s s f s f s f s f;
#X obj 396 139 s \$0loopr;
#X obj 135 139 s \$0-playindexr;
#X obj 149 196 r \$0-playindexr;
#X connect 0 0 24 0;
#X connect 1 0 19 0;
#X connect 5 0 14 0;
#X connect 5 1 21 5;
#X connect 6 0 14 0;
#X connect 6 1 21 3;
#X connect 7 0 21 2;
#X connect 8 0 21 4;
#X connect 10 0 5 0;
#X connect 12 0 13 0;
#X connect 13 0 14 0;
#X connect 13 1 21 1;
#X connect 14 0 21 0;
#X connect 16 0 21 6;
#X connect 17 0 14 0;
#X connect 17 1 21 7;
#X connect 18 0 17 0;
#X connect 19 0 14 0;
#X connect 19 1 7 0;
#X connect 19 2 8 0;
#X connect 19 3 16 0;
#X connect 19 4 20 0;
#X connect 20 0 21 8;
#X connect 21 0 2 0;
#X connect 22 0 14 0;
#X connect 22 1 21 9;
#X connect 23 0 22 0;
#X connect 24 1 11 0;
#X connect 24 3 26 0;
#X connect 24 5 9 0;
#X connect 24 7 15 0;
#X connect 24 9 25 0;
#X connect 27 0 6 0;
#X restore 1162 634 pd numbercruncher;
#X obj 1162 755 iemguts/canvasargs;
#X obj 1162 555 iemguts/canvasargs;
#X obj 1069 465 loadbang;
#X obj 1162 603 list trim;
#X obj 1162 580 list;
#X obj 1069 509 t b b, f 16;
#X msg 1069 592 1;
#X obj 1162 710 spigot;
#X text 1162 780 v1.3 \, 2015 Liam Goodacre \, liam.goodacre@gmail.com
;
#X text 1203 703 This spigot is necessary because if one [canvasargs]
object feeds the creation argument straight into another it will cause
PD to crash.;
#X symbolatom 85 138 20 0 0 2 directory #0directoryr #0directorys,
f 20;
#X obj 1142 465 bng 15 250 50 0 empty empty empty 17 7 0 10 -262144
-1 -1;
#X obj 352 345 folder_list;
#X obj 473 416 print;
#X obj 608 625 coll;
#C restore;
#X obj 418 519 list append;
#X obj 352 462 counter, f 11;
#X obj 352 384 t b s;
#X floatatom 284 588 5 0 0 0 - - -, f 5;
#X msg 352 537 set \$1;
#X obj 284 612 s \$0-numsamples;
#X obj 284 637 r \$0-numsamples;
#X floatatom 284 662 5 0 0 0 - - -, f 5;
#X obj 278 98 r \$0directorys;
#X obj 398 256 tosymbol;
#X obj 475 353 r \$0-numsamples;
#X obj 473 387 sprintf %i samples found;
#X floatatom 1 387 5 0 0 1 num-samples #0-numsamples -, f 5;
#X obj 1228 106 sel 0;
#X obj 1229 64 r \$0inlet1;
#X obj 1282 179 %;
#X obj 1315 144 r \$0-numsamples;
#X msg 1228 153 0;
#X obj 1283 141 - 1;
#X obj 1291 215 + 1;
#X text 1221 333 stop sample at value 0 else play sample \, wrapping
around index;
#X obj 1544 90 inlet;
#X obj 1561 114 s \$0inlet2;
#X obj 1497 158 s \$0directoryr;
#X text 1448 15 right inlet selects directory;
#X obj 431 1029 readsf~;
#X msg 575 938 open ///home/pi/Desktop/cubbytown/Playable-Streets-Toolkit/pure-data/../../samples/008.wav
\, start;
#X msg 684 843 addcomma;
#X msg 611 843 add2 start;
#X obj 745 843 sprintf set open %s;
#X obj 431 820 moses 1;
#X obj 398 198 sprintf %s/*.wav;
#X obj 431 1069 outlet~;
#X obj 969 822 strippath;
#X obj 575 715 t b b b s s;
#X obj 973 897 s \$0-nowplaying;
#X obj 973 922 r \$0-nowplaying;
#X obj 312 973 s \$0-nowplaying;
#X floatatom 459 780 5 0 0 0 - - -, f 5;
#X obj 1494 127 tosymbol;
#X obj 278 137 t b b b s 1 clear, f 50;
#X obj 264 273 s \$0-to-coll;
#X obj 607 588 r \$0-to-coll;
#X obj 575 185 s \$0-to-coll;
#X obj 420 555 s \$0-to-coll;
#X obj 472 908 s \$0-to-coll;
#X msg 538 185 0;
#X obj -159 580 bng 15 250 50 0 \$0-opendialogs empty empty 17 7 0
10 -262144 -133153 -133153;
#X obj -135 734 s \$0-opendialog;
#X obj -168 678 r \$0-opendialog;
#X obj -147 710 s \$0directoryr;
#X obj -120 633 print;
#X obj -117 574 r \$0-opendialogs;
#X obj -119 604 tof/folderpanel;
#X text -158 522 todo: open dialog box, f 19;
#X msg 269 226 sort -1 2;
#N canvas 785 211 450 323 printdump 0;
#X obj 143 50 inlet;
#X obj 380 66 inlet;
#X obj 290 268 outlet;
#X obj 291 200 gate 2;
#X msg 357 154 1;
#X obj 322 236 print;
#X msg 218 182 dump;
#X obj 155 104 t b 2;
#X obj 193 221 s \$0-to-coll;
#X obj 317 50 inlet;
#X obj 398 105 loadbang;
#X connect 0 0 7 0;
#X connect 1 0 4 0;
#X connect 3 0 2 0;
#X connect 3 1 5 0;
#X connect 4 0 3 0;
#X connect 6 0 8 0;
#X connect 7 0 6 0;
#X connect 7 1 3 0;
#X connect 9 0 3 1;
#X connect 10 0 4 0;
#X restore 575 663 pd printdump;
#X obj 576 623 bng 15 250 50 0 empty empty empty 17 7 0 10 -262144
-1 -1;
#X floatatom 85 176 5 0 0 2 play-sample #0-playindexr #0-playindexs
, f 5;
#X obj 116 176 cnv 15 81 17 empty \$0canvas of-12 5 6 0 10 -2689 -1
0;
#X floatatom 1 412 5 0 0 0 - - -, f 5;
#X obj 1 505 s \$0canvas;
#X obj 2 470 prepend label;
#X obj 1 442 sprintf of-%i;
#X obj 312 935 prepend label;
#X obj 81 208 cnv 15 81 17 empty \$0-nowplaying --- 5 6 0 10 -2689
-1 0;
#X obj 968 863 prepend label;
#X msg 318 897 symbol ---;
#X obj 1224 309 s \$0-playindexr;
#X obj 432 747 r \$0-playindexs;
#X text 1445 40 middle inlet selects sample;
#X obj 1374 21 inlet;
#X obj 900 30 inlet;
#X obj 1375 104 s \$0-playindexr;
#X floatatom 1322 30 5 0 0 0 - - -, f 5;
#X obj 1375 75 prepend set;
#X obj 904 63 > 0;
#X obj 905 90 change;
#X obj 721 257 s \$0-playindexr;
#X obj 721 223 bng 15 250 50 0 empty empty empty 17 7 0 10 -262144
-1 -1;
#X obj 927 179 s \$0-playindexs;
#X obj 910 130 sel 1;
#X text 410 60 non-zero in left inlet triggers sample >;
#X obj 863 400 counter;
#X obj 915 344 r \$0-numsamples;
#X floatatom 863 458 5 0 0 0 - - -, f 5;
#X obj 917 371 - 1;
#X obj 863 429 + 1;
#X obj 167 177 tgl 15 0 \$0autos \$0autor auto 17 7 0 10 -262144 -95704
-1 0 1;
#X obj 860 272 gate;
#X obj 854 184 t b b;
#X obj 686 284 r \$0-playindexs;
#X obj 863 515 s \$0-playindexr;
#X obj 863 486 prepend set;
#X obj 950 17 tgl 15 0 empty empty empty 17 7 0 10 -262144 -1 -1 0
1;
#X obj 1060 47 r \$0-playindexr;
#X floatatom 1065 170 6 0 0 0 - - -, f 6;
#X obj 1062 74 sel 0;
#X obj 1065 130 prepend set;
#X obj 686 312 sel 0;
#X msg 850 352 inc;
#X obj 713 341 prepend set;
#X obj 816 226 r \$0autos;
#X obj 167 196 tgl 15 0 \$0loops \$0loopr loop 17 7 0 10 -262144 -95704
-1 0 1;
#X obj 516 1074 gate;
#X obj 516 1044 r \$0loops;
#X connect 2 0 10 0;
#X connect 4 0 7 0;
#X connect 5 0 8 0;
#X connect 6 0 2 0;
#X connect 7 0 6 0;
#X connect 8 0 9 0;
#X connect 8 1 4 0;
#X connect 9 0 10 1;
#X connect 10 0 3 0;
#X connect 14 0 8 0;
#X connect 15 0 20 0;
#X connect 17 0 74 1;
#X connect 17 3 74 2;
#X connect 18 0 62 0;
#X connect 19 0 18 0;
#X connect 19 0 22 0;
#X connect 20 0 19 0;
#X connect 20 1 18 1;
#X connect 21 0 23 0;
#X connect 22 0 21 0;
#X connect 24 0 25 0;
#X connect 26 0 58 0;
#X connect 27 0 15 1;
#X connect 28 0 29 0;
#X connect 29 0 16 0;
#X connect 30 0 78 0;
#X connect 31 0 35 0;
#X connect 31 1 36 0;
#X connect 32 0 31 0;
#X connect 33 0 37 0;
#X connect 34 0 33 1;
#X connect 35 0 86 0;
#X connect 36 0 33 0;
#X connect 37 0 86 0;
#X connect 39 0 40 0;
#X connect 39 0 57 0;
#X connect 43 0 50 0;
#X connect 43 1 122 1;
#X connect 44 0 43 0;
#X connect 45 0 44 0;
#X connect 46 0 44 0;
#X connect 47 0 44 0;
#X connect 48 0 43 0;
#X connect 48 0 85 0;
#X connect 48 1 63 0;
#X connect 49 0 27 0;
#X connect 51 0 84 0;
#X connect 52 0 44 0;
#X connect 52 1 46 0;
#X connect 52 2 45 0;
#X connect 52 3 47 0;
#X connect 52 4 51 0;
#X connect 56 0 48 0;
#X connect 57 0 41 0;
#X connect 58 0 73 0;
#X connect 58 1 21 0;
#X connect 58 2 15 0;
#X connect 58 3 49 0;
#X connect 58 4 19 2;
#X connect 58 5 61 0;
#X connect 58 5 64 0;
#X connect 60 0 17 0;
#X connect 64 0 21 0;
#X connect 70 0 71 0;
#X connect 71 0 69 0;
#X connect 73 0 59 0;
#X connect 74 0 52 0;
#X connect 75 0 74 0;
#X connect 78 0 81 0;
#X connect 80 0 79 0;
#X connect 81 0 80 0;
#X connect 82 0 55 0;
#X connect 84 0 53 0;
#X connect 85 0 82 0;
#X connect 87 0 48 0;
#X connect 89 0 93 0;
#X connect 90 0 94 0;
#X connect 92 0 93 0;
#X connect 93 0 91 0;
#X connect 94 0 95 0;
#X connect 95 0 99 0;
#X connect 97 0 96 0;
#X connect 99 0 108 0;
#X connect 99 1 98 0;
#X connect 101 0 105 0;
#X connect 102 0 104 0;
#X connect 103 0 111 0;
#X connect 104 0 101 4;
#X connect 105 0 103 0;
#X connect 107 0 118 0;
#X connect 108 0 97 0;
#X connect 108 1 107 1;
#X connect 109 0 117 0;
#X connect 111 0 110 0;
#X connect 112 0 94 0;
#X connect 113 0 115 0;
#X connect 115 1 116 0;
#X connect 116 0 114 0;
#X connect 117 1 119 0;
#X connect 118 0 101 0;
#X connect 119 0 101 0;
#X connect 120 0 107 0;
#X connect 122 0 44 0;
#X connect 123 0 122 0;
#X coords 0 -1 1 1 137 127 2 77 102;
