#N canvas 428 49 666 673 10;
#N canvas 778 75 450 522 (subpatch) 0;
#X obj 183 22 inlet;
#X obj 175 152 -;
#X obj 175 187 abs;
#X obj 173 275 bng 15 250 50 0 empty empty empty 17 7 0 10 #fcfcfc
#000000 #000000;
#X obj 221 331 float;
#X obj 183 60 t f f b f, f 11;
#X obj 220 387 outlet;
#X obj 194 115 float;
#X obj 176 226 < 5;
#X connect 0 0 5 0;
#X connect 1 0 2 0;
#X connect 2 0 8 0;
#X connect 3 0 4 0;
#X connect 4 0 6 0;
#X connect 5 0 7 1;
#X connect 5 1 1 0;
#X connect 5 2 7 0;
#X connect 5 3 4 1;
#X connect 7 0 1 1;
#X connect 8 0 3 0;
#X restore 86 -656 pd;
#X obj 124 -104 pow 0.8, f 9;
#X obj 90 -510 mavg 10;
#X obj 84 -699 inlet;
#X obj 126 -38 outlet;
#X obj 175 -166 r \$1curves;
#X obj 85 -234 maxlib/scale 1024 0 0 1 0, f 64;
#X connect 0 0 2 0;
#X connect 1 0 4 0;
#X connect 2 0 6 0;
#X connect 3 0 0 0;
#X connect 5 0 1 1;
#X connect 6 0 1 0;
