#N canvas 428 51 666 669 10;
#X obj 300 -530 prepend set;
#N canvas 778 75 450 522 (subpatch) 0;
#X obj 183 22 inlet;
#X obj 175 152 -;
#X obj 175 187 abs;
#X obj 173 275 bng 15 250 50 0 empty empty empty 17 7 0 10 #fcfcfc
#000000 #000000;
#X obj 221 331 float;
#X obj 183 60 t f f b f, f 11;
#X obj 220 387 outlet;
#X obj 194 115 float;
#X obj 176 226 < 5;
#X connect 0 0 5 0;
#X connect 1 0 2 0;
#X connect 2 0 8 0;
#X connect 3 0 4 0;
#X connect 4 0 6 0;
#X connect 5 0 7 1;
#X connect 5 1 1 0;
#X connect 5 2 7 0;
#X connect 5 3 4 1;
#X connect 7 0 1 1;
#X connect 8 0 3 0;
#X restore 86 -656 pd;
#X obj 85 -147 moses 0;
#X obj 124 -104 pow 0.8, f 9;
#X obj 227 -372 min;
#X floatatom 258 -371 5 0 0 0 - - -, f 5;
#X obj 227 -404 t f b;
#X floatatom 348 -370 5 0 0 0 - - -, f 5;
#X obj 317 -403 t f b;
#X obj 317 -371 max;
#X obj 348 -348 change;
#X obj 258 -349 change;
#X obj 85 -201 * -1;
#X obj 85 -174 + 1;
#X msg 356 -469 -276.2;
#X obj 86 -624 mavg 10;
#X obj 85 -234 maxlib/scale 0 1024 0 1 0, f 64;
#X obj 251 -167 loadbang;
#X obj 251 -141 delay 100;
#X obj 84 -699 inlet;
#X obj 126 -38 outlet;
#X obj 86 -584 * -1;
#X obj 355 -504 r \$1-reset;
#X obj 251 -110 s \$1curver;
#X obj 175 -166 r \$1curves;
#X text 310 -570 auto min and max;
#X connect 0 0 14 0;
#X connect 1 0 15 0;
#X connect 2 1 3 0;
#X connect 3 0 20 0;
#X connect 4 0 5 0;
#X connect 5 0 4 1;
#X connect 5 0 11 0;
#X connect 5 0 6 0;
#X connect 6 0 4 0;
#X connect 6 1 5 0;
#X connect 7 0 9 1;
#X connect 7 0 10 0;
#X connect 8 0 9 0;
#X connect 8 1 7 0;
#X connect 9 0 7 0;
#X connect 12 0 13 0;
#X connect 13 0 2 0;
#X connect 14 0 5 0;
#X connect 14 0 7 0;
#X connect 15 0 21 0;
#X connect 16 0 12 0;
#X connect 17 0 18 0;
#X connect 18 0 23 0;
#X connect 19 0 1 0;
#X connect 21 0 0 0;
#X connect 21 0 8 0;
#X connect 21 0 6 0;
#X connect 21 0 16 0;
#X connect 22 0 14 0;
#X connect 24 0 3 1;
