#N canvas 20 26 739 548 10;
#X obj 15 175 outlet;
#X floatatom 15 137 5 0 0 0 - - -, f 5;
#X floatatom 59 137 5 0 0 0 - - -, f 5;
#X floatatom 103 137 5 0 0 0 - - -, f 5;
#X floatatom 147 137 5 0 0 0 - - -, f 5;
#X floatatom 191 137 5 0 0 0 - - -, f 5;
#X floatatom 235 137 5 0 0 0 - - -, f 5;
#X floatatom 279 137 5 0 0 0 - - -, f 5;
#X floatatom 323 137 5 0 0 0 - - -, f 5;
#X obj 59 175 outlet;
#X obj 103 175 outlet;
#X obj 147 175 outlet;
#X obj 191 175 outlet;
#X obj 235 175 outlet;
#X obj 279 175 outlet;
#X obj 323 175 outlet;
#X text 4 137 0;
#X text 48 137 1;
#X text 92 137 2;
#X text 136 137 3;
#X text 180 137 4;
#X text 224 137 5;
#X text 268 137 6;
#X text 312 137 7;
#X obj 14 -21 oscparse;
#X obj 14 6 route list;
#X obj 14 33 route \$1;
#X obj 14 60 route touches;
#X obj 14 -52 mrpeach/slipdec 65536;
#X msg 61 -124 close;
#X text -239 -253 comment;
#X obj 7 -206 tgl 15 0 empty empty empty 17 7 0 10 -262144 -1 -1 0
1;
#X obj 7 -186 sel 1 0;
#X obj 8 -229 r \$0-on;
#X obj 526 113 tgl 15 0 \$0-on empty empty 17 7 0 10 -262144 -1 -1
0 1;
#X obj 14 87 unpack 0 0 0 0 0 0 0 0 0 0 0 0, f 52;
#X floatatom 368 137 5 0 0 0 - - -, f 5;
#X floatatom 412 137 5 0 0 0 - - -, f 5;
#X floatatom 460 137 5 0 0 0 - - -, f 5;
#X floatatom 508 137 5 0 0 0 - - -, f 5;
#X obj 368 175 outlet;
#X obj 412 175 outlet;
#X obj 460 175 outlet;
#X obj 508 175 outlet;
#X text 357 137 8;
#X text 401 137 9;
#X text 445 137 10;
#X text 493 137 11;
#X obj 16 -89 comport 1 115200;
#X floatatom 7 -150 5 0 0 0 - - -, f 5;
#X obj -84 -219 inlet;
#X msg 7 -124 open \$1;
#X floatatom -46 -218 5 0 0 0 - - -, f 5;
#X obj -84 -188 prepend set;
#X text -212 -217 set custom comport >;
#N canvas 776 188 450 323 os_check 0;
#X obj 70 54 operating_system;
#X obj 70 21 loadbang;
#X symbolatom 70 86 10 0 0 0 - - -, f 10;
#X obj 70 110 select linux windows macos;
#X msg 121 140 10;
#X msg 172 141 1;
#X msg 70 142 1;
#X obj 70 214 outlet;
#X connect 0 0 2 0;
#X connect 1 0 0 0;
#X connect 2 0 3 0;
#X connect 3 0 6 0;
#X connect 3 1 4 0;
#X connect 3 2 5 0;
#X connect 4 0 7 0;
#X connect 5 0 7 0;
#X connect 6 0 7 0;
#X restore -45 -253 pd os_check;
#X text 32 -252 < set default port for current operating system;
#X connect 1 0 0 0;
#X connect 2 0 9 0;
#X connect 3 0 10 0;
#X connect 4 0 11 0;
#X connect 5 0 12 0;
#X connect 6 0 13 0;
#X connect 7 0 14 0;
#X connect 8 0 15 0;
#X connect 24 0 25 0;
#X connect 25 0 26 0;
#X connect 26 0 27 0;
#X connect 27 0 35 0;
#X connect 28 0 24 0;
#X connect 29 0 48 0;
#X connect 31 0 32 0;
#X connect 32 0 49 0;
#X connect 32 1 29 0;
#X connect 33 0 31 0;
#X connect 35 0 1 0;
#X connect 35 1 2 0;
#X connect 35 2 3 0;
#X connect 35 3 4 0;
#X connect 35 4 5 0;
#X connect 35 5 6 0;
#X connect 35 6 7 0;
#X connect 35 7 8 0;
#X connect 36 0 40 0;
#X connect 37 0 41 0;
#X connect 38 0 42 0;
#X connect 39 0 43 0;
#X connect 48 0 28 0;
#X connect 49 0 51 0;
#X connect 50 0 53 0;
#X connect 51 0 48 0;
#X connect 52 0 53 0;
#X connect 53 0 49 0;
#X connect 55 0 52 0;
#X coords 0 -1 1 1 544 48 1 0 110;
